STARTFONT 2.1
COMMENT JIS X208 glyphs donated by T.Maebashi <maebashi@mcs.meitetsu.co.jp>
COMMENT Adapted and extended for ISO 10646-1 by Markus Kuhn <mkuhn@acm.org>
COMMENT This font was scaled down from a 14x14 source font
COMMENT Hangul glyphs prepared by Won-kyu Park <wkpark@chem.skku.ac.kr>
COMMENT from BAEKMUK font.
COMMENT $Id: nippon13.bdf,v 1.1 2005/06/14 08:57:57 cvs Exp $
FONT -Misc-Fixed-Medium-R-Normal-ja-13-120-75-75-C-120-ISO10646-1
SIZE 12 75 75
FONTBOUNDINGBOX 12 13 0 -2
STARTPROPERTIES 22
FONTNAME_REGISTRY ""
FOUNDRY "Misc"
FAMILY_NAME "Fixed"
WEIGHT_NAME "Medium"
SLANT "R"
SETWIDTH_NAME "Normal"
ADD_STYLE_NAME "ja"
PIXEL_SIZE 13
POINT_SIZE 120
RESOLUTION_X 75
RESOLUTION_Y 75
SPACING "P"
AVERAGE_WIDTH 120
CHARSET_REGISTRY "ISO10646"
CHARSET_ENCODING "1"
DEFAULT_CHAR 0
FONT_DESCENT 2
FONT_ASCENT 11
COPYRIGHT "Public domain font.  Share and enjoy."
_XMBDFED_INFO "Edited with xmbdfed 4.3."
CAP_HEIGHT 9
X_HEIGHT 7
ENDPROPERTIES
CHARS 6749
STARTCHAR char0
ENCODING 0
SWIDTH 960 0
DWIDTH 12 0
BBX 12 13 0 -2
BITMAP
0000
0000
AAA0
0000
8020
0000
8020
0000
8020
0000
AAA0
0000
0000
ENDCHAR
STARTCHAR space
ENCODING 32
SWIDTH 278 0
DWIDTH 4 0
BBX 1 1 0 0
BITMAP
00
ENDCHAR
STARTCHAR exclam
ENCODING 33
SWIDTH 278 0
DWIDTH 3 0
BBX 1 9 1 0
BITMAP
80
80
80
80
80
80
80
00
80
ENDCHAR
STARTCHAR quotedbl
ENCODING 34
SWIDTH 355 0
DWIDTH 5 0
BBX 3 3 1 6
BITMAP
A0
A0
A0
ENDCHAR
STARTCHAR numbersign
ENCODING 35
SWIDTH 556 0
DWIDTH 7 0
BBX 6 8 0 0
BITMAP
28
28
FC
28
FC
50
50
50
ENDCHAR
STARTCHAR dollar
ENCODING 36
SWIDTH 556 0
DWIDTH 7 0
BBX 5 10 1 -1
BITMAP
20
70
A8
A0
70
28
A8
A8
70
20
ENDCHAR
STARTCHAR percent
ENCODING 37
SWIDTH 889 0
DWIDTH 11 0
BBX 9 9 1 0
BITMAP
6200
9400
9400
6800
0800
1300
1480
1480
2300
ENDCHAR
STARTCHAR ampersand
ENCODING 38
SWIDTH 667 0
DWIDTH 9 0
BBX 7 9 1 0
BITMAP
30
48
48
30
50
8A
84
8C
72
ENDCHAR
STARTCHAR quoteright
ENCODING 39
SWIDTH 222 0
DWIDTH 3 0
BBX 2 3 1 6
BITMAP
C0
40
80
ENDCHAR
STARTCHAR parenleft
ENCODING 40
SWIDTH 333 0
DWIDTH 4 0
BBX 3 12 1 -3
BITMAP
20
40
40
80
80
80
80
80
80
40
40
20
ENDCHAR
STARTCHAR parenright
ENCODING 41
SWIDTH 333 0
DWIDTH 4 0
BBX 3 12 0 -3
BITMAP
80
40
40
20
20
20
20
20
20
40
40
80
ENDCHAR
STARTCHAR asterisk
ENCODING 42
SWIDTH 389 0
DWIDTH 5 0
BBX 3 3 1 6
BITMAP
A0
40
A0
ENDCHAR
STARTCHAR plus
ENCODING 43
SWIDTH 584 0
DWIDTH 7 0
BBX 5 5 1 1
BITMAP
20
20
F8
20
20
ENDCHAR
STARTCHAR comma
ENCODING 44
SWIDTH 278 0
DWIDTH 4 0
BBX 2 3 1 -2
BITMAP
40
40
80
ENDCHAR
STARTCHAR minus
ENCODING 45
SWIDTH 584 0
DWIDTH 8 0
BBX 5 1 1 3
BITMAP
F8
ENDCHAR
STARTCHAR period
ENCODING 46
SWIDTH 278 0
DWIDTH 3 0
BBX 1 1 1 0
BITMAP
80
ENDCHAR
STARTCHAR slash
ENCODING 47
SWIDTH 278 0
DWIDTH 4 0
BBX 4 9 0 0
BITMAP
10
10
20
20
40
40
40
80
80
ENDCHAR
STARTCHAR zero
ENCODING 48
SWIDTH 556 0
DWIDTH 7 0
BBX 5 9 1 0
BITMAP
70
88
88
88
88
88
88
88
70
ENDCHAR
STARTCHAR one
ENCODING 49
SWIDTH 556 0
DWIDTH 7 0
BBX 3 9 1 0
BITMAP
20
E0
20
20
20
20
20
20
20
ENDCHAR
STARTCHAR two
ENCODING 50
SWIDTH 556 0
DWIDTH 7 0
BBX 5 9 1 0
BITMAP
70
88
08
10
20
40
80
80
F8
ENDCHAR
STARTCHAR three
ENCODING 51
SWIDTH 556 0
DWIDTH 7 0
BBX 5 9 1 0
BITMAP
70
88
08
30
08
08
88
88
70
ENDCHAR
STARTCHAR four
ENCODING 52
SWIDTH 556 0
DWIDTH 7 0
BBX 6 9 0 0
BITMAP
08
18
28
28
48
88
FC
08
08
ENDCHAR
STARTCHAR five
ENCODING 53
SWIDTH 556 0
DWIDTH 7 0
BBX 5 9 1 0
BITMAP
F8
80
80
F0
08
08
88
88
70
ENDCHAR
STARTCHAR six
ENCODING 54
SWIDTH 556 0
DWIDTH 7 0
BBX 5 9 1 0
BITMAP
70
88
80
B0
C8
88
88
88
70
ENDCHAR
STARTCHAR seven
ENCODING 55
SWIDTH 556 0
DWIDTH 7 0
BBX 5 9 1 0
BITMAP
F8
08
10
10
20
20
20
40
40
ENDCHAR
STARTCHAR eight
ENCODING 56
SWIDTH 556 0
DWIDTH 7 0
BBX 5 9 1 0
BITMAP
70
88
88
70
88
88
88
88
70
ENDCHAR
STARTCHAR nine
ENCODING 57
SWIDTH 556 0
DWIDTH 7 0
BBX 5 9 1 0
BITMAP
70
88
88
88
78
08
08
88
70
ENDCHAR
STARTCHAR colon
ENCODING 58
SWIDTH 278 0
DWIDTH 3 0
BBX 1 6 1 0
BITMAP
80
00
00
00
00
80
ENDCHAR
STARTCHAR semicolon
ENCODING 59
SWIDTH 278 0
DWIDTH 3 0
BBX 2 8 0 -2
BITMAP
40
00
00
00
00
40
40
80
ENDCHAR
STARTCHAR less
ENCODING 60
SWIDTH 584 0
DWIDTH 7 0
BBX 6 5 0 1
BITMAP
0C
30
C0
30
0C
ENDCHAR
STARTCHAR equal
ENCODING 61
SWIDTH 584 0
DWIDTH 7 0
BBX 5 3 1 2
BITMAP
F8
00
F8
ENDCHAR
STARTCHAR greater
ENCODING 62
SWIDTH 584 0
DWIDTH 7 0
BBX 6 5 1 1
BITMAP
C0
30
0C
30
C0
ENDCHAR
STARTCHAR question
ENCODING 63
SWIDTH 556 0
DWIDTH 7 0
BBX 5 9 1 0
BITMAP
70
88
88
10
10
20
20
00
20
ENDCHAR
STARTCHAR at
ENCODING 64
SWIDTH 1015 0
DWIDTH 12 0
BBX 10 10 1 -1
BITMAP
1F00
6080
4D40
9240
A240
A240
A680
9B00
4000
3E00
ENDCHAR
STARTCHAR A
ENCODING 65
SWIDTH 667 0
DWIDTH 9 0
BBX 7 9 1 0
BITMAP
10
28
28
44
44
7C
82
82
82
ENDCHAR
STARTCHAR B
ENCODING 66
SWIDTH 667 0
DWIDTH 8 0
BBX 6 9 1 0
BITMAP
F8
84
84
84
F8
84
84
84
F8
ENDCHAR
STARTCHAR C
ENCODING 67
SWIDTH 722 0
DWIDTH 9 0
BBX 7 9 1 0
BITMAP
3C
42
80
80
80
80
80
42
3C
ENDCHAR
STARTCHAR D
ENCODING 68
SWIDTH 722 0
DWIDTH 9 0
BBX 7 9 1 0
BITMAP
F8
84
82
82
82
82
82
84
F8
ENDCHAR
STARTCHAR E
ENCODING 69
SWIDTH 667 0
DWIDTH 8 0
BBX 6 9 1 0
BITMAP
FC
80
80
80
FC
80
80
80
FC
ENDCHAR
STARTCHAR F
ENCODING 70
SWIDTH 611 0
DWIDTH 8 0
BBX 6 9 1 0
BITMAP
FC
80
80
80
F8
80
80
80
80
ENDCHAR
STARTCHAR G
ENCODING 71
SWIDTH 778 0
DWIDTH 9 0
BBX 7 9 1 0
BITMAP
3C
42
80
80
8E
82
82
46
3A
ENDCHAR
STARTCHAR H
ENCODING 72
SWIDTH 722 0
DWIDTH 9 0
BBX 7 9 1 0
BITMAP
82
82
82
82
FE
82
82
82
82
ENDCHAR
STARTCHAR I
ENCODING 73
SWIDTH 278 0
DWIDTH 3 0
BBX 1 9 1 0
BITMAP
80
80
80
80
80
80
80
80
80
ENDCHAR
STARTCHAR J
ENCODING 74
SWIDTH 500 0
DWIDTH 7 0
BBX 5 9 1 0
BITMAP
08
08
08
08
08
08
88
88
70
ENDCHAR
STARTCHAR K
ENCODING 75
SWIDTH 667 0
DWIDTH 8 0
BBX 7 9 1 0
BITMAP
84
88
90
A0
E0
90
88
84
82
ENDCHAR
STARTCHAR L
ENCODING 76
SWIDTH 556 0
DWIDTH 7 0
BBX 5 9 1 0
BITMAP
80
80
80
80
80
80
80
80
F8
ENDCHAR
STARTCHAR M
ENCODING 77
SWIDTH 833 0
DWIDTH 11 0
BBX 9 9 1 0
BITMAP
8080
C180
C180
A280
A280
9480
9480
8880
8880
ENDCHAR
STARTCHAR N
ENCODING 78
SWIDTH 722 0
DWIDTH 9 0
BBX 7 9 1 0
BITMAP
82
C2
A2
A2
92
8A
8A
86
82
ENDCHAR
STARTCHAR O
ENCODING 79
SWIDTH 778 0
DWIDTH 10 0
BBX 8 9 1 0
BITMAP
3C
42
81
81
81
81
81
42
3C
ENDCHAR
STARTCHAR P
ENCODING 80
SWIDTH 667 0
DWIDTH 8 0
BBX 6 9 1 0
BITMAP
F8
84
84
84
F8
80
80
80
80
ENDCHAR
STARTCHAR Q
ENCODING 81
SWIDTH 778 0
DWIDTH 10 0
BBX 8 9 1 0
BITMAP
3C
42
81
81
81
89
85
42
3D
ENDCHAR
STARTCHAR R
ENCODING 82
SWIDTH 722 0
DWIDTH 8 0
BBX 6 9 1 0
BITMAP
F8
84
84
84
F8
88
84
84
84
ENDCHAR
STARTCHAR S
ENCODING 83
SWIDTH 667 0
DWIDTH 8 0
BBX 6 9 1 0
BITMAP
78
84
80
60
18
04
84
84
78
ENDCHAR
STARTCHAR T
ENCODING 84
SWIDTH 611 0
DWIDTH 7 0
BBX 7 9 0 0
BITMAP
FE
10
10
10
10
10
10
10
10
ENDCHAR
STARTCHAR U
ENCODING 85
SWIDTH 722 0
DWIDTH 8 0
BBX 6 9 1 0
BITMAP
84
84
84
84
84
84
84
84
78
ENDCHAR
STARTCHAR V
ENCODING 86
SWIDTH 667 0
DWIDTH 9 0
BBX 7 9 1 0
BITMAP
82
82
44
44
44
28
28
10
10
ENDCHAR
STARTCHAR W
ENCODING 87
SWIDTH 944 0
DWIDTH 11 0
BBX 9 9 1 0
BITMAP
8880
8880
8880
4900
5500
5500
2200
2200
2200
ENDCHAR
STARTCHAR X
ENCODING 88
SWIDTH 667 0
DWIDTH 9 0
BBX 7 9 1 0
BITMAP
82
44
44
28
10
28
44
44
82
ENDCHAR
STARTCHAR Y
ENCODING 89
SWIDTH 667 0
DWIDTH 9 0
BBX 7 9 1 0
BITMAP
82
82
44
44
28
10
10
10
10
ENDCHAR
STARTCHAR Z
ENCODING 90
SWIDTH 611 0
DWIDTH 9 0
BBX 7 9 1 0
BITMAP
FE
02
04
08
10
20
40
80
FE
ENDCHAR
STARTCHAR bracketleft
ENCODING 91
SWIDTH 278 0
DWIDTH 3 0
BBX 2 12 1 -3
BITMAP
C0
80
80
80
80
80
80
80
80
80
80
C0
ENDCHAR
STARTCHAR backslash
ENCODING 92
SWIDTH 278 0
DWIDTH 4 0
BBX 4 9 0 0
BITMAP
80
80
40
40
20
20
20
10
10
ENDCHAR
STARTCHAR bracketright
ENCODING 93
SWIDTH 278 0
DWIDTH 3 0
BBX 2 12 0 -3
BITMAP
C0
40
40
40
40
40
40
40
40
40
40
C0
ENDCHAR
STARTCHAR asciicircum
ENCODING 94
SWIDTH 469 0
DWIDTH 6 0
BBX 5 3 0 5
BITMAP
20
50
88
ENDCHAR
STARTCHAR underscore
ENCODING 95
SWIDTH 556 0
DWIDTH 7 0
BBX 7 1 0 -2
BITMAP
FE
ENDCHAR
STARTCHAR quoteleft
ENCODING 96
SWIDTH 222 0
DWIDTH 3 0
BBX 2 3 0 6
BITMAP
40
80
C0
ENDCHAR
STARTCHAR a
ENCODING 97
SWIDTH 556 0
DWIDTH 7 0
BBX 6 7 1 0
BITMAP
70
88
08
78
88
88
74
ENDCHAR
STARTCHAR b
ENCODING 98
SWIDTH 556 0
DWIDTH 7 0
BBX 5 9 1 0
BITMAP
80
80
B0
C8
88
88
88
C8
B0
ENDCHAR
STARTCHAR c
ENCODING 99
SWIDTH 500 0
DWIDTH 7 0
BBX 5 7 1 0
BITMAP
70
88
80
80
80
88
70
ENDCHAR
STARTCHAR d
ENCODING 100
SWIDTH 556 0
DWIDTH 7 0
BBX 5 9 1 0
BITMAP
08
08
68
98
88
88
88
98
68
ENDCHAR
STARTCHAR e
ENCODING 101
SWIDTH 556 0
DWIDTH 7 0
BBX 5 7 1 0
BITMAP
70
88
88
F8
80
88
70
ENDCHAR
STARTCHAR f
ENCODING 102
SWIDTH 278 0
DWIDTH 3 0
BBX 4 9 0 0
BITMAP
30
40
E0
40
40
40
40
40
40
ENDCHAR
STARTCHAR g
ENCODING 103
SWIDTH 556 0
DWIDTH 7 0
BBX 5 10 1 -3
BITMAP
68
98
88
88
88
98
68
08
88
70
ENDCHAR
STARTCHAR h
ENCODING 104
SWIDTH 556 0
DWIDTH 7 0
BBX 5 9 1 0
BITMAP
80
80
B0
C8
88
88
88
88
88
ENDCHAR
STARTCHAR i
ENCODING 105
SWIDTH 222 0
DWIDTH 3 0
BBX 1 9 1 0
BITMAP
80
00
80
80
80
80
80
80
80
ENDCHAR
STARTCHAR j
ENCODING 106
SWIDTH 222 0
DWIDTH 3 0
BBX 2 12 0 -3
BITMAP
40
00
40
40
40
40
40
40
40
40
40
80
ENDCHAR
STARTCHAR k
ENCODING 107
SWIDTH 500 0
DWIDTH 6 0
BBX 5 9 1 0
BITMAP
80
80
90
A0
C0
C0
A0
90
88
ENDCHAR
STARTCHAR l
ENCODING 108
SWIDTH 222 0
DWIDTH 3 0
BBX 1 9 1 0
BITMAP
80
80
80
80
80
80
80
80
80
ENDCHAR
STARTCHAR m
ENCODING 109
SWIDTH 833 0
DWIDTH 9 0
BBX 7 7 1 0
BITMAP
A4
DA
92
92
92
92
92
ENDCHAR
STARTCHAR n
ENCODING 110
SWIDTH 556 0
DWIDTH 7 0
BBX 5 7 1 0
BITMAP
B0
C8
88
88
88
88
88
ENDCHAR
STARTCHAR o
ENCODING 111
SWIDTH 556 0
DWIDTH 7 0
BBX 5 7 1 0
BITMAP
70
88
88
88
88
88
70
ENDCHAR
STARTCHAR p
ENCODING 112
SWIDTH 556 0
DWIDTH 7 0
BBX 5 10 1 -3
BITMAP
B0
C8
88
88
88
C8
B0
80
80
80
ENDCHAR
STARTCHAR q
ENCODING 113
SWIDTH 556 0
DWIDTH 7 0
BBX 5 10 1 -3
BITMAP
68
98
88
88
88
98
68
08
08
08
ENDCHAR
STARTCHAR r
ENCODING 114
SWIDTH 333 0
DWIDTH 4 0
BBX 3 7 1 0
BITMAP
A0
C0
80
80
80
80
80
ENDCHAR
STARTCHAR s
ENCODING 115
SWIDTH 500 0
DWIDTH 6 0
BBX 4 7 1 0
BITMAP
60
90
80
60
10
90
60
ENDCHAR
STARTCHAR t
ENCODING 116
SWIDTH 278 0
DWIDTH 3 0
BBX 3 9 0 0
BITMAP
40
40
E0
40
40
40
40
40
60
ENDCHAR
STARTCHAR u
ENCODING 117
SWIDTH 556 0
DWIDTH 7 0
BBX 5 7 1 0
BITMAP
88
88
88
88
88
98
68
ENDCHAR
STARTCHAR v
ENCODING 118
SWIDTH 500 0
DWIDTH 7 0
BBX 5 7 1 0
BITMAP
88
88
88
50
50
20
20
ENDCHAR
STARTCHAR w
ENCODING 119
SWIDTH 722 0
DWIDTH 9 0
BBX 9 7 0 0
BITMAP
8880
8880
4900
4900
5500
2200
2200
ENDCHAR
STARTCHAR x
ENCODING 120
SWIDTH 500 0
DWIDTH 6 0
BBX 6 7 0 0
BITMAP
84
48
30
30
48
84
84
ENDCHAR
STARTCHAR y
ENCODING 121
SWIDTH 500 0
DWIDTH 7 0
BBX 5 10 1 -3
BITMAP
88
88
88
90
50
50
20
20
40
80
ENDCHAR
STARTCHAR z
ENCODING 122
SWIDTH 500 0
DWIDTH 6 0
BBX 4 7 1 0
BITMAP
F0
10
20
40
40
80
F0
ENDCHAR
STARTCHAR braceleft
ENCODING 123
SWIDTH 334 0
DWIDTH 4 0
BBX 4 12 0 -3
BITMAP
30
40
40
40
40
80
40
40
40
40
40
30
ENDCHAR
STARTCHAR bar
ENCODING 124
SWIDTH 260 0
DWIDTH 3 0
BBX 1 12 1 -3
BITMAP
80
80
80
80
80
80
80
80
80
80
80
80
ENDCHAR
STARTCHAR braceright
ENCODING 125
SWIDTH 334 0
DWIDTH 4 0
BBX 4 12 0 -3
BITMAP
C0
20
20
20
20
10
20
20
20
20
20
C0
ENDCHAR
STARTCHAR asciitilde
ENCODING 126
SWIDTH 584 0
DWIDTH 7 0
BBX 6 2 0 3
BITMAP
64
98
ENDCHAR
STARTCHAR space
ENCODING 160
SWIDTH 278 0
DWIDTH 4 0
BBX 1 1 0 0
BITMAP
00
ENDCHAR
STARTCHAR exclamdown
ENCODING 161
SWIDTH 333 0
DWIDTH 3 0
BBX 1 10 1 -3
BITMAP
80
00
80
80
80
80
80
80
80
80
ENDCHAR
STARTCHAR cent
ENCODING 162
SWIDTH 556 0
DWIDTH 7 0
BBX 5 9 1 -1
BITMAP
10
70
A8
A0
A0
A0
C8
70
40
ENDCHAR
STARTCHAR sterling
ENCODING 163
SWIDTH 556 0
DWIDTH 7 0
BBX 5 9 1 0
BITMAP
30
48
40
40
F0
20
20
48
B0
ENDCHAR
STARTCHAR currency
ENCODING 164
SWIDTH 556 0
DWIDTH 7 0
BBX 6 6 0 1
BITMAP
84
78
48
48
78
84
ENDCHAR
STARTCHAR yen
ENCODING 165
SWIDTH 556 0
DWIDTH 7 0
BBX 5 9 1 0
BITMAP
88
88
50
20
F8
20
F8
20
20
ENDCHAR
STARTCHAR brokenbar
ENCODING 166
SWIDTH 260 0
DWIDTH 3 0
BBX 1 11 1 -2
BITMAP
80
80
80
80
00
00
00
80
80
80
80
ENDCHAR
STARTCHAR section
ENCODING 167
SWIDTH 556 0
DWIDTH 6 0
BBX 5 12 0 -3
BITMAP
70
88
80
60
90
88
88
48
30
08
88
70
ENDCHAR
STARTCHAR dieresis
ENCODING 168
SWIDTH 333 0
DWIDTH 3 0
BBX 3 1 0 8
BITMAP
A0
ENDCHAR
STARTCHAR copyright
ENCODING 169
SWIDTH 737 0
DWIDTH 11 0
BBX 9 9 1 0
BITMAP
3E00
4100
9C80
A280
A080
A280
9C80
4100
3E00
ENDCHAR
STARTCHAR ordfeminine
ENCODING 170
SWIDTH 370 0
DWIDTH 5 0
BBX 3 5 1 4
BITMAP
E0
20
A0
00
E0
ENDCHAR
STARTCHAR guillemotleft
ENCODING 171
SWIDTH 556 0
DWIDTH 7 0
BBX 5 5 1 1
BITMAP
28
50
A0
50
28
ENDCHAR
STARTCHAR logicalnot
ENCODING 172
SWIDTH 584 0
DWIDTH 8 0
BBX 6 4 1 2
BITMAP
FC
04
04
04
ENDCHAR
STARTCHAR hyphen
ENCODING 173
SWIDTH 333 0
DWIDTH 5 0
BBX 4 1 0 3
BITMAP
F0
ENDCHAR
STARTCHAR registered
ENCODING 174
SWIDTH 737 0
DWIDTH 11 0
BBX 9 9 1 0
BITMAP
3E00
4100
9C80
9480
9880
9480
9480
4100
3E00
ENDCHAR
STARTCHAR macron
ENCODING 175
SWIDTH 333 0
DWIDTH 4 0
BBX 4 1 0 8
BITMAP
F0
ENDCHAR
STARTCHAR degree
ENCODING 176
SWIDTH 400 0
DWIDTH 5 0
BBX 4 4 0 4
BITMAP
60
90
90
60
ENDCHAR
STARTCHAR plusminus
ENCODING 177
SWIDTH 584 0
DWIDTH 7 0
BBX 5 7 1 0
BITMAP
20
20
F8
20
20
00
F8
ENDCHAR
STARTCHAR twosuperior
ENCODING 178
SWIDTH 333 0
DWIDTH 4 0
BBX 4 5 0 3
BITMAP
60
90
20
40
F0
ENDCHAR
STARTCHAR threesuperior
ENCODING 179
SWIDTH 333 0
DWIDTH 4 0
BBX 3 5 0 3
BITMAP
E0
20
40
20
C0
ENDCHAR
STARTCHAR acute
ENCODING 180
SWIDTH 333 0
DWIDTH 2 0
BBX 2 2 0 8
BITMAP
40
80
ENDCHAR
STARTCHAR mu
ENCODING 181
SWIDTH 556 0
DWIDTH 7 0
BBX 5 10 1 -3
BITMAP
88
88
88
88
88
98
E8
80
80
80
ENDCHAR
STARTCHAR paragraph
ENCODING 182
SWIDTH 537 0
DWIDTH 7 0
BBX 6 12 0 -3
BITMAP
3C
68
E8
E8
E8
68
28
28
28
28
28
28
ENDCHAR
STARTCHAR periodcentered
ENCODING 183
SWIDTH 278 0
DWIDTH 3 0
BBX 1 1 1 3
BITMAP
80
ENDCHAR
STARTCHAR cedilla
ENCODING 184
SWIDTH 333 0
DWIDTH 3 0
BBX 3 4 0 -3
BITMAP
40
20
20
C0
ENDCHAR
STARTCHAR onesuperior
ENCODING 185
SWIDTH 333 0
DWIDTH 4 0
BBX 2 5 1 3
BITMAP
40
C0
40
40
40
ENDCHAR
STARTCHAR ordmasculine
ENCODING 186
SWIDTH 365 0
DWIDTH 5 0
BBX 3 5 1 4
BITMAP
E0
A0
E0
00
E0
ENDCHAR
STARTCHAR guillemotright
ENCODING 187
SWIDTH 556 0
DWIDTH 7 0
BBX 5 5 1 1
BITMAP
A0
50
28
50
A0
ENDCHAR
STARTCHAR onequarter
ENCODING 188
SWIDTH 834 0
DWIDTH 10 0
BBX 9 9 0 0
BITMAP
4100
C200
4400
4400
4900
1300
1500
2780
4100
ENDCHAR
STARTCHAR onehalf
ENCODING 189
SWIDTH 834 0
DWIDTH 10 0
BBX 9 9 0 0
BITMAP
4100
C200
4400
4800
4B00
1480
1100
2200
4780
ENDCHAR
STARTCHAR threequarters
ENCODING 190
SWIDTH 834 0
DWIDTH 10 0
BBX 9 9 0 0
BITMAP
E100
2200
4400
2400
C900
0B00
1500
1780
2100
ENDCHAR
STARTCHAR questiondown
ENCODING 191
SWIDTH 611 0
DWIDTH 7 0
BBX 5 9 1 -3
BITMAP
20
00
20
20
40
40
88
88
70
ENDCHAR
STARTCHAR Agrave
ENCODING 192
SWIDTH 667 0
DWIDTH 9 0
BBX 7 12 1 0
BITMAP
20
10
00
10
10
28
44
44
7C
82
82
82
ENDCHAR
STARTCHAR Aacute
ENCODING 193
SWIDTH 667 0
DWIDTH 9 0
BBX 7 12 1 0
BITMAP
08
10
00
10
10
28
44
44
7C
82
82
82
ENDCHAR
STARTCHAR Acircumflex
ENCODING 194
SWIDTH 667 0
DWIDTH 9 0
BBX 7 12 1 0
BITMAP
10
28
00
10
10
28
44
44
7C
82
82
82
ENDCHAR
STARTCHAR Atilde
ENCODING 195
SWIDTH 667 0
DWIDTH 9 0
BBX 7 12 1 0
BITMAP
14
28
00
10
10
28
44
44
7C
82
82
82
ENDCHAR
STARTCHAR Adieresis
ENCODING 196
SWIDTH 667 0
DWIDTH 9 0
BBX 7 11 1 0
BITMAP
28
00
10
10
28
44
44
7C
82
82
82
ENDCHAR
STARTCHAR Aring
ENCODING 197
SWIDTH 667 0
DWIDTH 9 0
BBX 7 12 1 0
BITMAP
10
28
10
10
10
28
44
44
7C
82
82
82
ENDCHAR
STARTCHAR AE
ENCODING 198
SWIDTH 1000 0
DWIDTH 11 0
BBX 9 9 1 0
BITMAP
1F80
2800
2800
4800
4F80
7800
8800
8800
8F80
ENDCHAR
STARTCHAR Ccedilla
ENCODING 199
SWIDTH 722 0
DWIDTH 9 0
BBX 7 12 1 -3
BITMAP
3C
42
80
80
80
80
80
42
3C
08
08
30
ENDCHAR
STARTCHAR Egrave
ENCODING 200
SWIDTH 667 0
DWIDTH 8 0
BBX 6 12 1 0
BITMAP
20
10
00
FC
80
80
80
FC
80
80
80
FC
ENDCHAR
STARTCHAR Eacute
ENCODING 201
SWIDTH 667 0
DWIDTH 8 0
BBX 6 12 1 0
BITMAP
08
10
00
FC
80
80
80
FC
80
80
80
FC
ENDCHAR
STARTCHAR Ecircumflex
ENCODING 202
SWIDTH 667 0
DWIDTH 8 0
BBX 6 12 1 0
BITMAP
10
28
00
FC
80
80
80
FC
80
80
80
FC
ENDCHAR
STARTCHAR Edieresis
ENCODING 203
SWIDTH 667 0
DWIDTH 8 0
BBX 6 11 1 0
BITMAP
28
00
FC
80
80
80
FC
80
80
80
FC
ENDCHAR
STARTCHAR Igrave
ENCODING 204
SWIDTH 278 0
DWIDTH 3 0
BBX 2 12 0 0
BITMAP
80
40
00
40
40
40
40
40
40
40
40
40
ENDCHAR
STARTCHAR Iacute
ENCODING 205
SWIDTH 278 0
DWIDTH 3 0
BBX 2 12 1 0
BITMAP
40
80
00
80
80
80
80
80
80
80
80
80
ENDCHAR
STARTCHAR Icircumflex
ENCODING 206
SWIDTH 278 0
DWIDTH 3 0
BBX 3 12 0 0
BITMAP
40
A0
00
40
40
40
40
40
40
40
40
40
ENDCHAR
STARTCHAR Idieresis
ENCODING 207
SWIDTH 278 0
DWIDTH 3 0
BBX 3 11 0 0
BITMAP
A0
00
40
40
40
40
40
40
40
40
40
ENDCHAR
STARTCHAR Eth
ENCODING 208
SWIDTH 722 0
DWIDTH 9 0
BBX 8 9 0 0
BITMAP
7C
42
41
41
F1
41
41
42
7C
ENDCHAR
STARTCHAR Ntilde
ENCODING 209
SWIDTH 722 0
DWIDTH 9 0
BBX 7 12 1 0
BITMAP
14
28
00
82
C2
A2
A2
92
8A
8A
86
82
ENDCHAR
STARTCHAR Ograve
ENCODING 210
SWIDTH 778 0
DWIDTH 10 0
BBX 8 12 1 0
BITMAP
10
08
00
3C
42
81
81
81
81
81
42
3C
ENDCHAR
STARTCHAR Oacute
ENCODING 211
SWIDTH 778 0
DWIDTH 10 0
BBX 8 12 1 0
BITMAP
04
08
00
3C
42
81
81
81
81
81
42
3C
ENDCHAR
STARTCHAR Ocircumflex
ENCODING 212
SWIDTH 778 0
DWIDTH 10 0
BBX 8 12 1 0
BITMAP
08
14
00
3C
42
81
81
81
81
81
42
3C
ENDCHAR
STARTCHAR Otilde
ENCODING 213
SWIDTH 778 0
DWIDTH 10 0
BBX 8 12 1 0
BITMAP
14
28
00
3C
42
81
81
81
81
81
42
3C
ENDCHAR
STARTCHAR Odieresis
ENCODING 214
SWIDTH 778 0
DWIDTH 10 0
BBX 8 11 1 0
BITMAP
24
00
3C
42
81
81
81
81
81
42
3C
ENDCHAR
STARTCHAR multiply
ENCODING 215
SWIDTH 584 0
DWIDTH 7 0
BBX 5 5 1 1
BITMAP
88
50
20
50
88
ENDCHAR
STARTCHAR Oslash
ENCODING 216
SWIDTH 778 0
DWIDTH 10 0
BBX 10 11 0 -1
BITMAP
0040
1E80
2100
4280
4480
4480
4880
5080
2100
5E00
8000
ENDCHAR
STARTCHAR Ugrave
ENCODING 217
SWIDTH 722 0
DWIDTH 8 0
BBX 6 12 1 0
BITMAP
20
10
00
84
84
84
84
84
84
84
84
78
ENDCHAR
STARTCHAR Uacute
ENCODING 218
SWIDTH 722 0
DWIDTH 8 0
BBX 6 12 1 0
BITMAP
08
10
00
84
84
84
84
84
84
84
84
78
ENDCHAR
STARTCHAR Ucircumflex
ENCODING 219
SWIDTH 722 0
DWIDTH 8 0
BBX 6 12 1 0
BITMAP
10
28
00
84
84
84
84
84
84
84
84
78
ENDCHAR
STARTCHAR Udieresis
ENCODING 220
SWIDTH 722 0
DWIDTH 8 0
BBX 6 11 1 0
BITMAP
48
00
84
84
84
84
84
84
84
84
78
ENDCHAR
STARTCHAR Yacute
ENCODING 221
SWIDTH 667 0
DWIDTH 9 0
BBX 7 12 1 0
BITMAP
08
10
00
82
82
44
44
28
10
10
10
10
ENDCHAR
STARTCHAR Thorn
ENCODING 222
SWIDTH 667 0
DWIDTH 8 0
BBX 6 9 1 0
BITMAP
80
80
F8
84
84
84
F8
80
80
ENDCHAR
STARTCHAR germandbls
ENCODING 223
SWIDTH 611 0
DWIDTH 7 0
BBX 5 9 1 0
BITMAP
70
88
88
88
B0
88
88
88
B0
ENDCHAR
STARTCHAR agrave
ENCODING 224
SWIDTH 556 0
DWIDTH 7 0
BBX 6 10 1 0
BITMAP
20
10
00
70
88
08
78
88
88
74
ENDCHAR
STARTCHAR aacute
ENCODING 225
SWIDTH 556 0
DWIDTH 7 0
BBX 6 10 1 0
BITMAP
10
20
00
70
88
08
78
88
88
74
ENDCHAR
STARTCHAR acircumflex
ENCODING 226
SWIDTH 556 0
DWIDTH 7 0
BBX 6 10 1 0
BITMAP
20
50
00
70
88
08
78
88
88
74
ENDCHAR
STARTCHAR atilde
ENCODING 227
SWIDTH 556 0
DWIDTH 7 0
BBX 6 10 1 0
BITMAP
28
50
00
70
88
08
78
88
88
74
ENDCHAR
STARTCHAR adieresis
ENCODING 228
SWIDTH 556 0
DWIDTH 7 0
BBX 6 9 1 0
BITMAP
50
00
70
88
08
78
88
88
74
ENDCHAR
STARTCHAR aring
ENCODING 229
SWIDTH 556 0
DWIDTH 7 0
BBX 6 10 1 0
BITMAP
30
48
30
70
88
08
78
88
88
74
ENDCHAR
STARTCHAR ae
ENCODING 230
SWIDTH 889 0
DWIDTH 11 0
BBX 9 7 1 0
BITMAP
7700
8880
0880
7F80
8800
8880
7700
ENDCHAR
STARTCHAR ccedilla
ENCODING 231
SWIDTH 500 0
DWIDTH 7 0
BBX 5 10 1 -3
BITMAP
70
88
80
80
80
88
70
20
10
60
ENDCHAR
STARTCHAR egrave
ENCODING 232
SWIDTH 556 0
DWIDTH 7 0
BBX 5 10 1 0
BITMAP
40
20
00
70
88
88
F8
80
88
70
ENDCHAR
STARTCHAR eacute
ENCODING 233
SWIDTH 556 0
DWIDTH 7 0
BBX 5 10 1 0
BITMAP
10
20
00
70
88
88
F8
80
88
70
ENDCHAR
STARTCHAR ecircumflex
ENCODING 234
SWIDTH 556 0
DWIDTH 7 0
BBX 5 10 1 0
BITMAP
20
50
00
70
88
88
F8
80
88
70
ENDCHAR
STARTCHAR edieresis
ENCODING 235
SWIDTH 556 0
DWIDTH 7 0
BBX 5 9 1 0
BITMAP
50
00
70
88
88
F8
80
88
70
ENDCHAR
STARTCHAR igrave
ENCODING 236
SWIDTH 278 0
DWIDTH 3 0
BBX 2 10 0 0
BITMAP
80
40
00
40
40
40
40
40
40
40
ENDCHAR
STARTCHAR iacute
ENCODING 237
SWIDTH 278 0
DWIDTH 3 0
BBX 2 10 1 0
BITMAP
40
80
00
80
80
80
80
80
80
80
ENDCHAR
STARTCHAR icircumflex
ENCODING 238
SWIDTH 278 0
DWIDTH 3 0
BBX 3 10 0 0
BITMAP
40
A0
00
40
40
40
40
40
40
40
ENDCHAR
STARTCHAR idieresis
ENCODING 239
SWIDTH 278 0
DWIDTH 3 0
BBX 3 9 0 0
BITMAP
A0
00
40
40
40
40
40
40
40
ENDCHAR
STARTCHAR eth
ENCODING 240
SWIDTH 556 0
DWIDTH 7 0
BBX 5 10 1 0
BITMAP
68
30
50
08
78
88
88
88
88
70
ENDCHAR
STARTCHAR ntilde
ENCODING 241
SWIDTH 556 0
DWIDTH 7 0
BBX 5 10 1 0
BITMAP
28
50
00
B0
C8
88
88
88
88
88
ENDCHAR
STARTCHAR ograve
ENCODING 242
SWIDTH 556 0
DWIDTH 7 0
BBX 5 10 1 0
BITMAP
40
20
00
70
88
88
88
88
88
70
ENDCHAR
STARTCHAR oacute
ENCODING 243
SWIDTH 556 0
DWIDTH 7 0
BBX 5 10 1 0
BITMAP
10
20
00
70
88
88
88
88
88
70
ENDCHAR
STARTCHAR ocircumflex
ENCODING 244
SWIDTH 556 0
DWIDTH 7 0
BBX 5 10 1 0
BITMAP
20
50
00
70
88
88
88
88
88
70
ENDCHAR
STARTCHAR otilde
ENCODING 245
SWIDTH 556 0
DWIDTH 7 0
BBX 5 10 1 0
BITMAP
28
50
00
70
88
88
88
88
88
70
ENDCHAR
STARTCHAR odieresis
ENCODING 246
SWIDTH 556 0
DWIDTH 7 0
BBX 5 9 1 0
BITMAP
50
00
70
88
88
88
88
88
70
ENDCHAR
STARTCHAR divide
ENCODING 247
SWIDTH 584 0
DWIDTH 7 0
BBX 5 5 1 1
BITMAP
20
00
F8
00
20
ENDCHAR
STARTCHAR oslash
ENCODING 248
SWIDTH 611 0
DWIDTH 7 0
BBX 7 7 0 0
BITMAP
3A
44
4C
54
64
44
B8
ENDCHAR
STARTCHAR ugrave
ENCODING 249
SWIDTH 556 0
DWIDTH 7 0
BBX 5 10 1 0
BITMAP
40
20
00
88
88
88
88
88
98
68
ENDCHAR
STARTCHAR uacute
ENCODING 250
SWIDTH 556 0
DWIDTH 7 0
BBX 5 10 1 0
BITMAP
10
20
00
88
88
88
88
88
98
68
ENDCHAR
STARTCHAR ucircumflex
ENCODING 251
SWIDTH 556 0
DWIDTH 7 0
BBX 5 10 1 0
BITMAP
20
50
00
88
88
88
88
88
98
68
ENDCHAR
STARTCHAR udieresis
ENCODING 252
SWIDTH 556 0
DWIDTH 7 0
BBX 5 9 1 0
BITMAP
50
00
88
88
88
88
88
98
68
ENDCHAR
STARTCHAR yacute
ENCODING 253
SWIDTH 500 0
DWIDTH 7 0
BBX 5 13 1 -3
BITMAP
10
20
00
88
88
88
90
50
50
20
20
40
80
ENDCHAR
STARTCHAR thorn
ENCODING 254
SWIDTH 556 0
DWIDTH 7 0
BBX 5 12 1 -3
BITMAP
80
80
B0
C8
88
88
88
C8
B0
80
80
80
ENDCHAR
STARTCHAR ydieresis
ENCODING 255
SWIDTH 500 0
DWIDTH 7 0
BBX 5 12 1 -3
BITMAP
50
00
88
88
48
50
50
30
20
20
20
C0
ENDCHAR
STARTCHAR uni3000
ENCODING 12288
SWIDTH 960 0
DWIDTH 12 0
BBX 12 13 0 -2
BITMAP
0000
0000
0000
0000
0000
0000
0000
0000
0000
0000
0000
0000
0000
ENDCHAR
STARTCHAR uni3001
ENCODING 12289
SWIDTH 960 0
DWIDTH 12 0
BBX 12 13 0 -2
BITMAP
0000
0000
0000
0000
0000
0000
0000
0000
4000
2000
3000
1000
0000
ENDCHAR
STARTCHAR uni3002
ENCODING 12290
SWIDTH 960 0
DWIDTH 12 0
BBX 12 13 0 -2
BITMAP
0000
0000
0000
0000
0000
0000
0000
0000
3000
4800
4800
3000
0000
ENDCHAR
STARTCHAR uni3003
ENCODING 12291
SWIDTH 960 0
DWIDTH 12 0
BBX 12 13 0 -2
BITMAP
0000
0000
0000
0880
0880
0880
1100
1100
2200
0000
0000
0000
0000
ENDCHAR
STARTCHAR uni3005
ENCODING 12293
SWIDTH 960 0
DWIDTH 12 0
BBX 12 13 0 -2
BITMAP
0000
0000
0000
0800
0800
0F80
1100
1100
2200
0600
0300
0100
0000
ENDCHAR
STARTCHAR uni3006
ENCODING 12294
SWIDTH 960 0
DWIDTH 12 0
BBX 12 13 0 -2
BITMAP
0000
0000
0040
0040
0C80
1300
1200
1500
2800
3000
2000
0000
0000
ENDCHAR
STARTCHAR uni3007
ENCODING 12295
SWIDTH 960 0
DWIDTH 12 0
BBX 12 13 0 -2
BITMAP
0000
1F00
2080
4040
8020
8020
8020
8020
8020
4040
2080
1F00
0000
ENDCHAR
STARTCHAR uni3008
ENCODING 12296
SWIDTH 960 0
DWIDTH 12 0
BBX 12 13 0 -2
BITMAP
0040
0080
0100
0200
0400
0800
0800
0400
0200
0100
0080
0040
0000
ENDCHAR
STARTCHAR uni3009
ENCODING 12297
SWIDTH 960 0
DWIDTH 12 0
BBX 12 13 0 -2
BITMAP
4000
2000
1000
0800
0400
0200
0200
0400
0800
1000
2000
4000
0000
ENDCHAR
STARTCHAR uni300A
ENCODING 12298
SWIDTH 960 0
DWIDTH 12 0
BBX 12 13 0 -2
BITMAP
0240
0480
0480
0900
0900
1200
1200
0900
0900
0480
0480
0240
0000
ENDCHAR
STARTCHAR uni300B
ENCODING 12299
SWIDTH 960 0
DWIDTH 12 0
BBX 12 13 0 -2
BITMAP
4800
2400
2400
1200
1200
0900
0900
1200
1200
2400
2400
4800
0000
ENDCHAR
STARTCHAR uni300C
ENCODING 12300
SWIDTH 960 0
DWIDTH 12 0
BBX 12 13 0 -2
BITMAP
07C0
0400
0400
0400
0400
0400
0400
0400
0400
0400
0400
0400
0000
ENDCHAR
STARTCHAR uni300D
ENCODING 12301
SWIDTH 960 0
DWIDTH 12 0
BBX 12 13 0 -2
BITMAP
0400
0400
0400
0400
0400
0400
0400
0400
0400
0400
0400
7C00
0000
ENDCHAR
STARTCHAR uni300E
ENCODING 12302
SWIDTH 960 0
DWIDTH 12 0
BBX 12 13 0 -2
BITMAP
0FC0
0840
0BC0
0A00
0A00
0A00
0A00
0A00
0A00
0A00
0A00
0E00
0000
ENDCHAR
STARTCHAR uni300F
ENCODING 12303
SWIDTH 960 0
DWIDTH 12 0
BBX 12 13 0 -2
BITMAP
0E00
0A00
0A00
0A00
0A00
0A00
0A00
0A00
0A00
7A00
4200
7E00
0000
ENDCHAR
STARTCHAR uni3010
ENCODING 12304
SWIDTH 960 0
DWIDTH 12 0
BBX 12 13 0 -2
BITMAP
03C0
0380
0380
0300
0300
0300
0300
0300
0300
0380
0380
03C0
0000
ENDCHAR
STARTCHAR uni3011
ENCODING 12305
SWIDTH 960 0
DWIDTH 12 0
BBX 12 13 0 -2
BITMAP
7800
3800
3800
1800
1800
1800
1800
1800
1800
3800
3800
7800
0000
ENDCHAR
STARTCHAR uni3012
ENCODING 12306
SWIDTH 960 0
DWIDTH 12 0
BBX 12 13 0 -2
BITMAP
0000
3FC0
3FC0
0000
7FE0
7FE0
0600
0600
0600
0600
0600
0000
0000
ENDCHAR
STARTCHAR uni3013
ENCODING 12307
SWIDTH 960 0
DWIDTH 12 0
BBX 12 13 0 -2
BITMAP
0000
0000
0000
3FC0
3FC0
0000
0000
3FC0
3FC0
0000
0000
0000
0000
ENDCHAR
STARTCHAR uni3014
ENCODING 12308
SWIDTH 960 0
DWIDTH 12 0
BBX 12 13 0 -2
BITMAP
0040
0080
0100
0100
0100
0100
0100
0100
0100
0100
0080
0040
0000
ENDCHAR
STARTCHAR uni3015
ENCODING 12309
SWIDTH 960 0
DWIDTH 12 0
BBX 12 13 0 -2
BITMAP
4000
2000
1000
1000
1000
1000
1000
1000
1000
1000
2000
4000
0000
ENDCHAR
STARTCHAR uni301C
ENCODING 12316
SWIDTH 960 0
DWIDTH 12 0
BBX 12 13 0 -2
BITMAP
0000
0000
0000
0000
1800
2420
4240
0180
0000
0000
0000
0000
0000
ENDCHAR
STARTCHAR uni3041
ENCODING 12353
SWIDTH 960 0
DWIDTH 12 0
BBX 12 13 0 -2
BITMAP
0000
0000
0000
0800
0700
3C00
0900
0F80
1A40
2440
2C40
3180
0000
ENDCHAR
STARTCHAR uni3042
ENCODING 12354
SWIDTH 960 0
DWIDTH 12 0
BBX 12 13 0 -2
BITMAP
1000
0800
0E00
7800
1200
1F00
3480
5440
4840
5840
2180
0000
0000
ENDCHAR
STARTCHAR uni3043
ENCODING 12355
SWIDTH 960 0
DWIDTH 12 0
BBX 12 13 0 -2
BITMAP
0000
0000
0000
0000
0000
2080
2080
2040
1040
1400
0800
0000
0000
ENDCHAR
STARTCHAR uni3044
ENCODING 12356
SWIDTH 960 0
DWIDTH 12 0
BBX 12 13 0 -2
BITMAP
0000
0000
0000
4080
2040
2020
2420
2860
2820
3000
1000
0000
0000
ENDCHAR
STARTCHAR uni3045
ENCODING 12357
SWIDTH 960 0
DWIDTH 12 0
BBX 12 13 0 -2
BITMAP
0000
0000
0000
0400
0300
0000
1700
0880
0080
0080
0100
0600
0000
ENDCHAR
STARTCHAR uni3046
ENCODING 12358
SWIDTH 960 0
DWIDTH 12 0
BBX 12 13 0 -2
BITMAP
0800
0700
0000
0F00
3080
0080
0080
0080
0100
0100
0200
0400
0000
ENDCHAR
STARTCHAR uni3047
ENCODING 12359
SWIDTH 960 0
DWIDTH 12 0
BBX 12 13 0 -2
BITMAP
0000
0000
0000
0800
0600
0000
0700
1A00
0400
0800
1400
2380
0000
ENDCHAR
STARTCHAR uni3048
ENCODING 12360
SWIDTH 960 0
DWIDTH 12 0
BBX 12 13 0 -2
BITMAP
1000
0E00
0000
0700
3A00
0400
0800
1000
3800
4400
43C0
0000
0000
ENDCHAR
STARTCHAR uni3049
ENCODING 12361
SWIDTH 960 0
DWIDTH 12 0
BBX 12 13 0 -2
BITMAP
0000
0000
0000
0000
1080
18C0
3000
1780
1840
3040
3180
1000
0000
ENDCHAR
STARTCHAR uni304A
ENCODING 12362
SWIDTH 960 0
DWIDTH 12 0
BBX 12 13 0 -2
BITMAP
0000
1000
0880
0C60
3820
0980
0E40
1820
6820
19C0
0800
0000
0000
ENDCHAR
STARTCHAR uni304B
ENCODING 12363
SWIDTH 960 0
DWIDTH 12 0
BBX 12 13 0 -2
BITMAP
0000
1000
0880
4E40
3920
0960
1100
1100
1100
2500
2200
0000
0000
ENDCHAR
STARTCHAR uni304C
ENCODING 12364
SWIDTH 960 0
DWIDTH 12 0
BBX 12 13 0 -2
BITMAP
0040
2120
1080
9D00
7280
1240
22C0
2200
2200
4A00
4400
0000
0000
ENDCHAR
STARTCHAR uni304D
ENCODING 12365
SWIDTH 960 0
DWIDTH 12 0
BBX 12 13 0 -2
BITMAP
0800
0400
0500
1E00
0380
3E00
0100
0180
1E80
2000
1800
0700
0000
ENDCHAR
STARTCHAR uni304E
ENCODING 12366
SWIDTH 960 0
DWIDTH 12 0
BBX 12 13 0 -2
BITMAP
1040
0920
0A80
3C00
0700
7C00
0200
0300
3D00
4000
3000
0E00
0000
ENDCHAR
STARTCHAR uni304F
ENCODING 12367
SWIDTH 960 0
DWIDTH 12 0
BBX 12 13 0 -2
BITMAP
0100
0080
0100
0200
0C00
1000
1000
0800
0400
0200
0100
0080
0000
ENDCHAR
STARTCHAR uni3050
ENCODING 12368
SWIDTH 960 0
DWIDTH 12 0
BBX 12 13 0 -2
BITMAP
0200
0100
0240
0420
1880
2040
2000
1000
0800
0400
0200
0100
0000
ENDCHAR
STARTCHAR uni3051
ENCODING 12369
SWIDTH 960 0
DWIDTH 12 0
BBX 12 13 0 -2
BITMAP
0200
4100
2080
20E0
4F80
4080
4080
4080
6080
2100
2100
0200
0000
ENDCHAR
STARTCHAR uni3052
ENCODING 12370
SWIDTH 960 0
DWIDTH 12 0
BBX 12 13 0 -2
BITMAP
0440
82A0
4140
41C0
9F00
8100
8100
8100
C100
4200
4200
0400
0000
ENDCHAR
STARTCHAR uni3053
ENCODING 12371
SWIDTH 960 0
DWIDTH 12 0
BBX 12 13 0 -2
BITMAP
0000
1000
0F80
0200
0000
0000
0000
0000
2000
2000
1FC0
0000
0000
ENDCHAR
STARTCHAR uni3054
ENCODING 12372
SWIDTH 960 0
DWIDTH 12 0
BBX 12 13 0 -2
BITMAP
0140
20A0
1F00
0400
0000
0000
0000
0000
4000
4000
3F80
0000
0000
ENDCHAR
STARTCHAR uni3055
ENCODING 12373
SWIDTH 960 0
DWIDTH 12 0
BBX 12 13 0 -2
BITMAP
0800
0400
03C0
3D00
0100
0080
0FC0
1000
2000
1800
0780
0000
0000
ENDCHAR
STARTCHAR uni3056
ENCODING 12374
SWIDTH 960 0
DWIDTH 12 0
BBX 12 13 0 -2
BITMAP
1040
08A0
0740
7A00
0200
0100
1F80
2000
4000
3000
0F00
0000
0000
ENDCHAR
STARTCHAR uni3057
ENCODING 12375
SWIDTH 960 0
DWIDTH 12 0
BBX 12 13 0 -2
BITMAP
0000
4000
2000
2000
2000
2000
2000
2000
2040
1180
0E00
0000
0000
ENDCHAR
STARTCHAR uni3058
ENCODING 12376
SWIDTH 960 0
DWIDTH 12 0
BBX 12 13 0 -2
BITMAP
0000
4080
2240
2100
2000
2000
2000
2000
2040
1180
0E00
0000
0000
ENDCHAR
STARTCHAR uni3059
ENCODING 12377
SWIDTH 960 0
DWIDTH 12 0
BBX 12 13 0 -2
BITMAP
0200
0100
41E0
3F00
0700
0980
0880
0780
0100
0100
0200
0400
0000
ENDCHAR
STARTCHAR uni305A
ENCODING 12378
SWIDTH 960 0
DWIDTH 12 0
BBX 12 13 0 -2
BITMAP
0540
02A0
83C0
7E00
0E00
1300
1100
0F00
0200
0200
0400
0800
0000
ENDCHAR
STARTCHAR uni305B
ENCODING 12379
SWIDTH 960 0
DWIDTH 12 0
BBX 12 13 0 -2
BITMAP
0000
0100
1080
10E0
5780
3880
1080
1180
1080
0800
07C0
0000
0000
ENDCHAR
STARTCHAR uni305C
ENCODING 12380
SWIDTH 960 0
DWIDTH 12 0
BBX 12 13 0 -2
BITMAP
0040
02A0
2140
21C0
AF00
7100
2100
2300
2100
1000
0F80
0000
0000
ENDCHAR
STARTCHAR uni305D
ENCODING 12381
SWIDTH 960 0
DWIDTH 12 0
BBX 12 13 0 -2
BITMAP
0000
2700
1A00
0400
08C0
1F00
6200
0400
0800
0800
0400
0300
0000
ENDCHAR
STARTCHAR uni305E
ENCODING 12382
SWIDTH 960 0
DWIDTH 12 0
BBX 12 13 0 -2
BITMAP
0040
2720
1A80
0440
08C0
1F00
6200
0400
0800
0800
0400
0300
0000
ENDCHAR
STARTCHAR uni305F
ENCODING 12383
SWIDTH 960 0
DWIDTH 12 0
BBX 12 13 0 -2
BITMAP
0000
3000
1600
7800
1380
20C0
2100
2000
4000
4400
43C0
0000
0000
ENDCHAR
STARTCHAR uni3060
ENCODING 12384
SWIDTH 960 0
DWIDTH 12 0
BBX 12 13 0 -2
BITMAP
0040
3120
1680
7800
1380
20C0
2100
2000
4000
4400
43C0
0000
0000
ENDCHAR
STARTCHAR uni3061
ENCODING 12385
SWIDTH 960 0
DWIDTH 12 0
BBX 12 13 0 -2
BITMAP
1000
0800
0B00
7C00
1000
1180
1640
3840
2040
0040
0180
0E00
0000
ENDCHAR
STARTCHAR uni3062
ENCODING 12386
SWIDTH 960 0
DWIDTH 12 0
BBX 12 13 0 -2
BITMAP
2040
1020
1680
F840
2000
2300
2C80
7080
4080
0080
0300
1C00
0000
ENDCHAR
STARTCHAR uni3063
ENCODING 12387
SWIDTH 960 0
DWIDTH 12 0
BBX 12 13 0 -2
BITMAP
0000
0000
0000
0000
0000
0700
1880
6040
0040
0080
0300
1C00
0000
ENDCHAR
STARTCHAR uni3064
ENCODING 12388
SWIDTH 960 0
DWIDTH 12 0
BBX 12 13 0 -2
BITMAP
0000
0000
0380
4C40
3020
0020
0020
0020
0040
0180
0600
0000
0000
ENDCHAR
STARTCHAR uni3065
ENCODING 12389
SWIDTH 960 0
DWIDTH 12 0
BBX 12 13 0 -2
BITMAP
0140
00A0
0700
9880
6040
0040
0040
0040
0080
0300
0C00
0000
0000
ENDCHAR
STARTCHAR uni3066
ENCODING 12390
SWIDTH 960 0
DWIDTH 12 0
BBX 12 13 0 -2
BITMAP
0000
00E0
4700
3A00
0200
0400
0400
0400
0400
0200
0180
0000
0000
ENDCHAR
STARTCHAR uni3067
ENCODING 12391
SWIDTH 960 0
DWIDTH 12 0
BBX 12 13 0 -2
BITMAP
0000
01C0
8E00
7440
0520
0880
0800
0800
0800
0400
0300
0000
0000
ENDCHAR
STARTCHAR uni3068
ENCODING 12392
SWIDTH 960 0
DWIDTH 12 0
BBX 12 13 0 -2
BITMAP
0000
0800
0400
0400
04C0
0700
0C00
1000
2000
1000
0FC0
0000
0000
ENDCHAR
STARTCHAR uni3069
ENCODING 12393
SWIDTH 960 0
DWIDTH 12 0
BBX 12 13 0 -2
BITMAP
0000
1140
08A0
0800
0980
0E00
1800
2000
4000
2000
1F80
0000
0000
ENDCHAR
STARTCHAR uni306A
ENCODING 12394
SWIDTH 960 0
DWIDTH 12 0
BBX 12 13 0 -2
BITMAP
1000
0A00
7C00
0980
10C0
2080
2100
4100
0F00
1180
1140
0E00
0000
ENDCHAR
STARTCHAR uni306B
ENCODING 12395
SWIDTH 960 0
DWIDTH 12 0
BBX 12 13 0 -2
BITMAP
0000
4000
2380
2CC0
4080
4000
4000
4000
4800
67C0
2000
2000
0000
ENDCHAR
STARTCHAR uni306C
ENCODING 12396
SWIDTH 960 0
DWIDTH 12 0
BBX 12 13 0 -2
BITMAP
0000
0200
0100
0780
2A40
3220
3420
3C20
48E0
5940
20A0
0000
0000
ENDCHAR
STARTCHAR uni306D
ENCODING 12397
SWIDTH 960 0
DWIDTH 12 0
BBX 12 13 0 -2
BITMAP
2000
1000
1000
1980
7E40
1840
1040
3040
31C0
5260
1180
0000
0000
ENDCHAR
STARTCHAR uni306E
ENCODING 12398
SWIDTH 960 0
DWIDTH 12 0
BBX 12 13 0 -2
BITMAP
0000
0000
1F00
2480
2440
4840
4840
5040
5080
2100
0600
0000
0000
ENDCHAR
STARTCHAR uni306F
ENCODING 12399
SWIDTH 960 0
DWIDTH 12 0
BBX 12 13 0 -2
BITMAP
0100
4080
28E0
2780
4080
4080
4080
4080
6780
28C0
2720
0000
0000
ENDCHAR
STARTCHAR uni3070
ENCODING 12400
SWIDTH 960 0
DWIDTH 12 0
BBX 12 13 0 -2
BITMAP
0240
8120
51C0
4F20
8100
8100
8100
8100
CF00
5180
4E40
0000
0000
ENDCHAR
STARTCHAR uni3071
ENCODING 12401
SWIDTH 960 0
DWIDTH 12 0
BBX 12 13 0 -2
BITMAP
02C0
81A0
5160
4FC0
8100
8100
8100
8100
CF00
5180
4E40
0000
0000
ENDCHAR
STARTCHAR uni3072
ENCODING 12402
SWIDTH 960 0
DWIDTH 12 0
BBX 12 13 0 -2
BITMAP
0000
0080
0880
78C0
1040
1060
20A0
2080
2080
1100
0E00
0000
0000
ENDCHAR
STARTCHAR uni3073
ENCODING 12403
SWIDTH 960 0
DWIDTH 12 0
BBX 12 13 0 -2
BITMAP
0040
0120
1140
F1A0
2080
2080
4140
4100
4100
2200
1C00
0000
0000
ENDCHAR
STARTCHAR uni3074
ENCODING 12404
SWIDTH 960 0
DWIDTH 12 0
BBX 12 13 0 -2
BITMAP
00C0
01A0
11E0
F100
2080
2080
4140
4100
4100
2200
1C00
0000
0000
ENDCHAR
STARTCHAR uni3075
ENCODING 12405
SWIDTH 960 0
DWIDTH 12 0
BBX 12 13 0 -2
BITMAP
0000
1000
0E00
0400
0800
0800
0400
0AC0
B220
5260
0C00
0000
0000
ENDCHAR
STARTCHAR uni3076
ENCODING 12406
SWIDTH 960 0
DWIDTH 12 0
BBX 12 13 0 -2
BITMAP
0000
1040
0E20
0480
0840
0800
0400
0AC0
B220
5260
0C00
0000
0000
ENDCHAR
STARTCHAR uni3077
ENCODING 12407
SWIDTH 960 0
DWIDTH 12 0
BBX 12 13 0 -2
BITMAP
0000
1000
0E60
04A0
08C0
0800
0400
0AC0
B220
5260
0C00
0000
0000
ENDCHAR
STARTCHAR uni3078
ENCODING 12408
SWIDTH 960 0
DWIDTH 12 0
BBX 12 13 0 -2
BITMAP
0000
0000
0000
1800
1400
A200
4100
00C0
0060
0000
0000
0000
0000
ENDCHAR
STARTCHAR uni3079
ENCODING 12409
SWIDTH 960 0
DWIDTH 12 0
BBX 12 13 0 -2
BITMAP
0000
0000
0040
1920
1480
A200
4100
00C0
0060
0000
0000
0000
0000
ENDCHAR
STARTCHAR uni307A
ENCODING 12410
SWIDTH 960 0
DWIDTH 12 0
BBX 12 13 0 -2
BITMAP
0000
00C0
0140
1980
1400
A200
4100
00C0
0060
0000
0000
0000
0000
ENDCHAR
STARTCHAR uni307B
ENCODING 12411
SWIDTH 960 0
DWIDTH 12 0
BBX 12 13 0 -2
BITMAP
0000
48C0
2780
20E0
4F80
4080
4080
4080
6780
28C0
2720
0000
0000
ENDCHAR
STARTCHAR uni307C
ENCODING 12412
SWIDTH 960 0
DWIDTH 12 0
BBX 12 13 0 -2
BITMAP
0040
93A0
4E40
4380
9F00
8100
8100
8100
CF00
5180
4E40
0000
0000
ENDCHAR
STARTCHAR uni307D
ENCODING 12413
SWIDTH 960 0
DWIDTH 12 0
BBX 12 13 0 -2
BITMAP
00C0
93A0
4E60
43C0
9F00
8100
8100
8100
CF00
5180
4E40
0000
0000
ENDCHAR
STARTCHAR uni307E
ENCODING 12414
SWIDTH 960 0
DWIDTH 12 0
BBX 12 13 0 -2
BITMAP
0400
0200
23C0
1E00
0380
3E00
0200
0200
1E00
2380
1C00
0000
0000
ENDCHAR
STARTCHAR uni307F
ENCODING 12415
SWIDTH 960 0
DWIDTH 12 0
BBX 12 13 0 -2
BITMAP
0000
2200
1E00
0400
0880
0880
3F80
50C0
9120
6100
0200
0000
0000
ENDCHAR
STARTCHAR uni3080
ENCODING 12416
SWIDTH 960 0
DWIDTH 12 0
BBX 12 13 0 -2
BITMAP
2000
1000
7C80
1040
3060
5000
5100
7080
2080
2080
1F00
0000
0000
ENDCHAR
STARTCHAR uni3081
ENCODING 12417
SWIDTH 960 0
DWIDTH 12 0
BBX 12 13 0 -2
BITMAP
0000
0200
0100
2700
2980
3240
3220
4C20
4420
4C20
30C0
0000
0000
ENDCHAR
STARTCHAR uni3082
ENCODING 12418
SWIDTH 960 0
DWIDTH 12 0
BBX 12 13 0 -2
BITMAP
0400
0200
1200
0F00
0400
2880
1840
0E40
0840
0840
0480
0300
0000
ENDCHAR
STARTCHAR uni3083
ENCODING 12419
SWIDTH 960 0
DWIDTH 12 0
BBX 12 13 0 -2
BITMAP
0000
0000
0000
0200
1100
1380
0C40
3840
0880
0400
0200
0200
0000
ENDCHAR
STARTCHAR uni3084
ENCODING 12420
SWIDTH 960 0
DWIDTH 12 0
BBX 12 13 0 -2
BITMAP
0200
0100
1300
31C0
1620
5820
2820
04C0
0400
0200
0100
0100
0000
ENDCHAR
STARTCHAR uni3085
ENCODING 12421
SWIDTH 960 0
DWIDTH 12 0
BBX 12 13 0 -2
BITMAP
0000
0000
0000
0400
0200
2380
2E40
3240
2240
2380
0200
0400
0000
ENDCHAR
STARTCHAR uni3086
ENCODING 12422
SWIDTH 960 0
DWIDTH 12 0
BBX 12 13 0 -2
BITMAP
0000
0600
4380
2540
2920
3120
3120
2120
2540
0380
0200
0400
0000
ENDCHAR
STARTCHAR uni3087
ENCODING 12423
SWIDTH 960 0
DWIDTH 12 0
BBX 12 13 0 -2
BITMAP
0000
0000
0400
0200
0240
0380
0200
0200
1E00
2380
2240
1C00
0000
ENDCHAR
STARTCHAR uni3088
ENCODING 12424
SWIDTH 960 0
DWIDTH 12 0
BBX 12 13 0 -2
BITMAP
0800
0400
04C0
0700
0400
0400
0400
0400
3E00
4580
4440
3800
0000
ENDCHAR
STARTCHAR uni3089
ENCODING 12425
SWIDTH 960 0
DWIDTH 12 0
BBX 12 13 0 -2
BITMAP
0800
0400
0700
1800
2000
2000
2700
3880
2080
0080
0300
0C00
0000
ENDCHAR
STARTCHAR uni308A
ENCODING 12426
SWIDTH 960 0
DWIDTH 12 0
BBX 12 13 0 -2
BITMAP
2000
1300
1480
1840
1840
1040
1040
1040
0080
0080
0100
0200
0000
ENDCHAR
STARTCHAR uni308B
ENCODING 12427
SWIDTH 960 0
DWIDTH 12 0
BBX 12 13 0 -2
BITMAP
0000
1180
0F00
0200
0400
0F80
1840
2040
0640
09C0
0880
0700
0000
ENDCHAR
STARTCHAR uni308C
ENCODING 12428
SWIDTH 960 0
DWIDTH 12 0
BBX 12 13 0 -2
BITMAP
0000
4000
2600
2900
3100
F100
2100
6100
6100
A120
20C0
2000
0000
ENDCHAR
STARTCHAR uni308D
ENCODING 12429
SWIDTH 960 0
DWIDTH 12 0
BBX 12 13 0 -2
BITMAP
0000
1180
0F00
0200
0400
0F80
1040
2040
0040
0040
0180
0E00
0000
ENDCHAR
STARTCHAR uni308E
ENCODING 12430
SWIDTH 960 0
DWIDTH 12 0
BBX 12 13 0 -2
BITMAP
0000
0000
0000
0000
1000
1000
1B00
3480
1880
3080
3080
1100
0000
ENDCHAR
STARTCHAR uni308F
ENCODING 12431
SWIDTH 960 0
DWIDTH 12 0
BBX 12 13 0 -2
BITMAP
2000
1000
1000
5980
3E40
1820
1020
3020
3020
5040
1180
1000
0000
ENDCHAR
STARTCHAR uni3090
ENCODING 12432
SWIDTH 960 0
DWIDTH 12 0
BBX 12 13 0 -2
BITMAP
0000
3600
1A00
0400
0F00
3880
4840
5040
5240
65C0
6380
0000
0000
ENDCHAR
STARTCHAR uni3091
ENCODING 12433
SWIDTH 960 0
DWIDTH 12 0
BBX 12 13 0 -2
BITMAP
0000
1B00
0E00
0F00
1880
1040
0C40
1B80
0E00
1980
2640
4060
0000
ENDCHAR
STARTCHAR uni3092
ENCODING 12434
SWIDTH 960 0
DWIDTH 12 0
BBX 12 13 0 -2
BITMAP
1000
0800
3E00
0800
1080
3CC0
2300
4600
0A00
1000
2000
1F00
0000
ENDCHAR
STARTCHAR uni3093
ENCODING 12435
SWIDTH 960 0
DWIDTH 12 0
BBX 12 13 0 -2
BITMAP
0800
0400
0400
0800
1000
1000
3C00
2200
2200
4240
4180
0000
0000
ENDCHAR
STARTCHAR uni3099
ENCODING 12441
SWIDTH 960 0
DWIDTH 12 0
BBX 12 13 0 -2
BITMAP
0020
0090
0040
0000
0000
0000
0000
0000
0000
0000
0000
0000
0000
ENDCHAR
STARTCHAR uni309A
ENCODING 12442
SWIDTH 960 0
DWIDTH 12 0
BBX 12 13 0 -2
BITMAP
0020
0050
0020
0000
0000
0000
0000
0000
0000
0000
0000
0000
0000
ENDCHAR
STARTCHAR uni309B
ENCODING 12443
SWIDTH 960 0
DWIDTH 12 0
BBX 12 13 0 -2
BITMAP
1000
4800
2000
0000
0000
0000
0000
0000
0000
0000
0000
0000
0000
ENDCHAR
STARTCHAR uni309C
ENCODING 12444
SWIDTH 960 0
DWIDTH 12 0
BBX 12 13 0 -2
BITMAP
3000
4800
4800
3000
0000
0000
0000
0000
0000
0000
0000
0000
0000
ENDCHAR
STARTCHAR uni309D
ENCODING 12445
SWIDTH 960 0
DWIDTH 12 0
BBX 12 13 0 -2
BITMAP
0000
0000
0000
1000
0C00
0200
0300
0400
0000
0000
0000
0000
0000
ENDCHAR
STARTCHAR uni309E
ENCODING 12446
SWIDTH 960 0
DWIDTH 12 0
BBX 12 13 0 -2
BITMAP
0000
0200
0500
1200
0C00
0200
0300
0400
0000
0000
0000
0000
0000
ENDCHAR
STARTCHAR uni30A1
ENCODING 12449
SWIDTH 960 0
DWIDTH 12 0
BBX 12 13 0 -2
BITMAP
0000
0000
0000
0000
0000
23C0
1C80
0500
0200
0200
0400
0800
0000
ENDCHAR
STARTCHAR uni30A2
ENCODING 12450
SWIDTH 960 0
DWIDTH 12 0
BBX 12 13 0 -2
BITMAP
0000
0000
23C0
1C40
0480
0300
0200
0200
0200
0400
0800
1000
0000
ENDCHAR
STARTCHAR uni30A3
ENCODING 12451
SWIDTH 960 0
DWIDTH 12 0
BBX 12 13 0 -2
BITMAP
0000
0000
0000
0080
0100
0200
0E00
3200
0200
0200
0200
0200
0000
ENDCHAR
STARTCHAR uni30A4
ENCODING 12452
SWIDTH 960 0
DWIDTH 12 0
BBX 12 13 0 -2
BITMAP
0000
0040
0080
0100
0600
0A00
3100
0100
0100
0100
0100
0100
0000
ENDCHAR
STARTCHAR uni30A5
ENCODING 12453
SWIDTH 960 0
DWIDTH 12 0
BBX 12 13 0 -2
BITMAP
0000
0000
0000
0400
0200
0380
1C80
0880
0880
0100
0200
0400
0000
ENDCHAR
STARTCHAR uni30A6
ENCODING 12454
SWIDTH 960 0
DWIDTH 12 0
BBX 12 13 0 -2
BITMAP
0000
0400
0200
03C0
3C40
1040
1040
1080
0080
0100
0200
0400
0000
ENDCHAR
STARTCHAR uni30A7
ENCODING 12455
SWIDTH 960 0
DWIDTH 12 0
BBX 12 13 0 -2
BITMAP
0000
0000
0000
0000
0000
0300
3C00
0400
0400
0700
3880
0000
0000
ENDCHAR
STARTCHAR uni30A8
ENCODING 12456
SWIDTH 960 0
DWIDTH 12 0
BBX 12 13 0 -2
BITMAP
0000
0000
0180
3E00
0800
0400
0400
0400
0F80
7040
0000
0000
0000
ENDCHAR
STARTCHAR uni30A9
ENCODING 12457
SWIDTH 960 0
DWIDTH 12 0
BBX 12 13 0 -2
BITMAP
0000
0000
0000
0400
0200
0380
3E00
0600
0A00
1200
2600
0200
0000
ENDCHAR
STARTCHAR uni30AA
ENCODING 12458
SWIDTH 960 0
DWIDTH 12 0
BBX 12 13 0 -2
BITMAP
0000
0200
0100
41C0
3F00
0300
0500
0900
1100
2100
0300
0100
0000
ENDCHAR
STARTCHAR uni30AB
ENCODING 12459
SWIDTH 960 0
DWIDTH 12 0
BBX 12 13 0 -2
BITMAP
0000
0400
0200
03C0
3E40
0440
0440
0840
0880
1280
2180
0100
0000
ENDCHAR
STARTCHAR uni30AC
ENCODING 12460
SWIDTH 960 0
DWIDTH 12 0
BBX 12 13 0 -2
BITMAP
0040
0920
0480
0780
7C80
0880
0880
1080
1100
2500
4300
0200
0000
ENDCHAR
STARTCHAR uni30AD
ENCODING 12461
SWIDTH 960 0
DWIDTH 12 0
BBX 12 13 0 -2
BITMAP
0000
1000
0980
0E00
3400
0400
05C0
0E00
7200
0200
0100
0100
0000
ENDCHAR
STARTCHAR uni30AE
ENCODING 12462
SWIDTH 960 0
DWIDTH 12 0
BBX 12 13 0 -2
BITMAP
0140
10A0
0980
0E00
3400
0400
05C0
0E00
7200
0200
0100
0100
0000
ENDCHAR
STARTCHAR uni30AF
ENCODING 12463
SWIDTH 960 0
DWIDTH 12 0
BBX 12 13 0 -2
BITMAP
0000
1000
0B80
0C80
1080
1100
2100
0200
0400
0800
1000
2000
0000
ENDCHAR
STARTCHAR uni30B0
ENCODING 12464
SWIDTH 960 0
DWIDTH 12 0
BBX 12 13 0 -2
BITMAP
0140
30A0
1700
1900
1100
2200
2200
4400
0400
0800
1000
2000
0000
ENDCHAR
STARTCHAR uni30B1
ENCODING 12465
SWIDTH 960 0
DWIDTH 12 0
BBX 12 13 0 -2
BITMAP
0000
1800
0800
0860
1F80
1200
2100
4100
0200
0200
0400
0800
0000
ENDCHAR
STARTCHAR uni30B2
ENCODING 12466
SWIDTH 960 0
DWIDTH 12 0
BBX 12 13 0 -2
BITMAP
0040
3120
10A0
1080
3F00
2400
4200
8200
0400
0400
0800
1000
0000
ENDCHAR
STARTCHAR uni30B3
ENCODING 12467
SWIDTH 960 0
DWIDTH 12 0
BBX 12 13 0 -2
BITMAP
0000
0000
43C0
3C40
0040
0040
0040
0080
0780
3880
0000
0000
0000
ENDCHAR
STARTCHAR uni30B4
ENCODING 12468
SWIDTH 960 0
DWIDTH 12 0
BBX 12 13 0 -2
BITMAP
0140
00A0
8600
7900
0100
0100
0100
0200
0E00
7200
0000
0000
0000
ENDCHAR
STARTCHAR uni30B5
ENCODING 12469
SWIDTH 960 0
DWIDTH 12 0
BBX 12 13 0 -2
BITMAP
0000
0200
1100
1100
53C0
3D00
1100
1100
1200
0200
0400
0800
0000
ENDCHAR
STARTCHAR uni30B6
ENCODING 12470
SWIDTH 960 0
DWIDTH 12 0
BBX 12 13 0 -2
BITMAP
0040
02A0
1140
1100
53C0
3D00
1100
1100
1200
0200
0400
0800
0000
ENDCHAR
STARTCHAR uni30B7
ENCODING 12471
SWIDTH 960 0
DWIDTH 12 0
BBX 12 13 0 -2
BITMAP
0000
0000
3000
0800
6000
1040
0080
0100
0200
4C00
3000
0000
0000
ENDCHAR
STARTCHAR uni30B8
ENCODING 12472
SWIDTH 960 0
DWIDTH 12 0
BBX 12 13 0 -2
BITMAP
0000
0040
3120
0880
6000
1040
0080
0100
0200
4C00
3000
0000
0000
ENDCHAR
STARTCHAR uni30B9
ENCODING 12473
SWIDTH 960 0
DWIDTH 12 0
BBX 12 13 0 -2
BITMAP
0000
0000
11C0
0E80
0080
0100
0100
0280
0C40
3040
0000
0000
0000
ENDCHAR
STARTCHAR uni30BA
ENCODING 12474
SWIDTH 960 0
DWIDTH 12 0
BBX 12 13 0 -2
BITMAP
0040
0120
4680
3A00
0200
0400
0400
0A00
3100
C100
0000
0000
0000
ENDCHAR
STARTCHAR uni30BB
ENCODING 12475
SWIDTH 960 0
DWIDTH 12 0
BBX 12 13 0 -2
BITMAP
0000
2000
1000
11C0
1640
5880
3100
1100
1000
0800
0780
0000
0000
ENDCHAR
STARTCHAR uni30BC
ENCODING 12476
SWIDTH 960 0
DWIDTH 12 0
BBX 12 13 0 -2
BITMAP
0040
2120
1080
11C0
1640
5880
3100
1100
1000
0800
07C0
0000
0000
ENDCHAR
STARTCHAR uni30BD
ENCODING 12477
SWIDTH 960 0
DWIDTH 12 0
BBX 12 13 0 -2
BITMAP
0000
0100
2080
1080
1080
1080
0100
0100
0200
0400
0800
1000
0000
ENDCHAR
STARTCHAR uni30BE
ENCODING 12478
SWIDTH 960 0
DWIDTH 12 0
BBX 12 13 0 -2
BITMAP
0040
02A0
4140
2100
2100
2100
0200
0200
0400
0800
1000
2000
0000
ENDCHAR
STARTCHAR uni30BF
ENCODING 12479
SWIDTH 960 0
DWIDTH 12 0
BBX 12 13 0 -2
BITMAP
0000
0400
03C0
0640
0440
0A40
11C0
0080
0100
0200
0C00
3000
0000
ENDCHAR
STARTCHAR uni30C0
ENCODING 12480
SWIDTH 960 0
DWIDTH 12 0
BBX 12 13 0 -2
BITMAP
0040
10A0
0F40
1900
1100
2900
4700
0200
0400
0800
3000
C000
0000
ENDCHAR
STARTCHAR uni30C1
ENCODING 12481
SWIDTH 960 0
DWIDTH 12 0
BBX 12 13 0 -2
BITMAP
0000
0100
0600
3C00
03C0
4E00
3200
0200
0200
0400
0800
1000
0000
ENDCHAR
STARTCHAR uni30C2
ENCODING 12482
SWIDTH 960 0
DWIDTH 12 0
BBX 12 13 0 -2
BITMAP
0040
01A0
0640
3C00
03C0
4E00
3200
0200
0200
0400
0800
1000
0000
ENDCHAR
STARTCHAR uni30C3
ENCODING 12483
SWIDTH 960 0
DWIDTH 12 0
BBX 12 13 0 -2
BITMAP
0000
0000
0000
0000
0000
0880
2440
1440
1080
0100
0200
0400
0000
ENDCHAR
STARTCHAR uni30C4
ENCODING 12484
SWIDTH 960 0
DWIDTH 12 0
BBX 12 13 0 -2
BITMAP
0000
0080
0840
4440
2440
2080
0080
0100
0200
0400
0800
0000
0000
ENDCHAR
STARTCHAR uni30C5
ENCODING 12485
SWIDTH 960 0
DWIDTH 12 0
BBX 12 13 0 -2
BITMAP
0040
0120
2280
9100
5100
4100
0200
0200
0400
0800
3000
0000
0000
ENDCHAR
STARTCHAR uni30C6
ENCODING 12486
SWIDTH 960 0
DWIDTH 12 0
BBX 12 13 0 -2
BITMAP
0000
0000
2700
1800
01C0
4E00
3200
0200
0400
0800
1000
2000
0000
ENDCHAR
STARTCHAR uni30C7
ENCODING 12487
SWIDTH 960 0
DWIDTH 12 0
BBX 12 13 0 -2
BITMAP
0040
0120
2680
1800
01C0
4E00
3200
0200
0400
0800
1000
2000
0000
ENDCHAR
STARTCHAR uni30C8
ENCODING 12488
SWIDTH 960 0
DWIDTH 12 0
BBX 12 13 0 -2
BITMAP
0000
2000
1000
1000
1000
1C00
1300
1080
1000
1000
1000
1000
0000
ENDCHAR
STARTCHAR uni30C9
ENCODING 12489
SWIDTH 960 0
DWIDTH 12 0
BBX 12 13 0 -2
BITMAP
0080
2240
1100
1000
1000
1C00
1300
1080
1000
1000
1000
1000
0000
ENDCHAR
STARTCHAR uni30CA
ENCODING 12490
SWIDTH 960 0
DWIDTH 12 0
BBX 12 13 0 -2
BITMAP
0000
0400
0200
03C0
7E00
0200
0200
0200
0400
0800
1000
2000
0000
ENDCHAR
STARTCHAR uni30CB
ENCODING 12491
SWIDTH 960 0
DWIDTH 12 0
BBX 12 13 0 -2
BITMAP
0000
0000
0300
3C00
0000
0000
0000
0000
0780
7840
0000
0000
0000
ENDCHAR
STARTCHAR uni30CC
ENCODING 12492
SWIDTH 960 0
DWIDTH 12 0
BBX 12 13 0 -2
BITMAP
0000
0000
13C0
0C40
0080
1C80
0300
0180
0240
0C40
3000
0000
0000
ENDCHAR
STARTCHAR uni30CD
ENCODING 12493
SWIDTH 960 0
DWIDTH 12 0
BBX 12 13 0 -2
BITMAP
0000
0800
0780
3C80
0100
0200
0400
0D00
3480
4440
0400
0400
0000
ENDCHAR
STARTCHAR uni30CE
ENCODING 12494
SWIDTH 960 0
DWIDTH 12 0
BBX 12 13 0 -2
BITMAP
0000
0100
0080
0080
0100
0100
0200
0200
0400
0800
1000
2000
0000
ENDCHAR
STARTCHAR uni30CF
ENCODING 12495
SWIDTH 960 0
DWIDTH 12 0
BBX 12 13 0 -2
BITMAP
0000
0000
0000
0100
0880
0880
1040
1040
2020
4020
0000
0000
0000
ENDCHAR
STARTCHAR uni30D0
ENCODING 12496
SWIDTH 960 0
DWIDTH 12 0
BBX 12 13 0 -2
BITMAP
0000
0140
00A0
0200
1100
1100
2080
2080
4040
8040
0000
0000
0000
ENDCHAR
STARTCHAR uni30D1
ENCODING 12497
SWIDTH 960 0
DWIDTH 12 0
BBX 12 13 0 -2
BITMAP
0000
00E0
00A0
02E0
1100
1100
2080
2080
4040
8040
0000
0000
0000
ENDCHAR
STARTCHAR uni30D2
ENCODING 12498
SWIDTH 960 0
DWIDTH 12 0
BBX 12 13 0 -2
BITMAP
0000
0000
2000
2000
2300
3C00
2000
2000
2000
1000
0F80
0000
0000
ENDCHAR
STARTCHAR uni30D3
ENCODING 12499
SWIDTH 960 0
DWIDTH 12 0
BBX 12 13 0 -2
BITMAP
0000
0040
2120
2080
2300
3C00
2000
2000
2000
1000
0F80
0000
0000
ENDCHAR
STARTCHAR uni30D4
ENCODING 12500
SWIDTH 960 0
DWIDTH 12 0
BBX 12 13 0 -2
BITMAP
0000
00E0
20A0
20E0
2300
3C00
2000
2000
2000
1000
0F80
0000
0000
ENDCHAR
STARTCHAR uni30D5
ENCODING 12501
SWIDTH 960 0
DWIDTH 12 0
BBX 12 13 0 -2
BITMAP
0000
0000
2780
1880
0080
0100
0100
0200
0400
0800
1000
0000
0000
ENDCHAR
STARTCHAR uni30D6
ENCODING 12502
SWIDTH 960 0
DWIDTH 12 0
BBX 12 13 0 -2
BITMAP
0140
00A0
4F00
3100
0200
0200
0400
0400
0800
1000
2000
0000
0000
ENDCHAR
STARTCHAR uni30D7
ENCODING 12503
SWIDTH 960 0
DWIDTH 12 0
BBX 12 13 0 -2
BITMAP
00E0
00A0
4FE0
3100
0200
0200
0400
0400
0800
1000
2000
0000
0000
ENDCHAR
STARTCHAR uni30D8
ENCODING 12504
SWIDTH 960 0
DWIDTH 12 0
BBX 12 13 0 -2
BITMAP
0000
0000
0000
0800
1400
A200
4100
00C0
0020
0000
0000
0000
0000
ENDCHAR
STARTCHAR uni30D9
ENCODING 12505
SWIDTH 960 0
DWIDTH 12 0
BBX 12 13 0 -2
BITMAP
0000
0080
0240
0900
1400
A200
4100
00C0
0020
0000
0000
0000
0000
ENDCHAR
STARTCHAR uni30DA
ENCODING 12506
SWIDTH 960 0
DWIDTH 12 0
BBX 12 13 0 -2
BITMAP
0000
0380
0280
0B80
1400
A200
4100
00C0
0020
0000
0000
0000
0000
ENDCHAR
STARTCHAR uni30DB
ENCODING 12507
SWIDTH 960 0
DWIDTH 12 0
BBX 12 13 0 -2
BITMAP
0000
0400
0200
03C0
3E00
0200
0280
1240
1240
2200
0600
0200
0000
ENDCHAR
STARTCHAR uni30DC
ENCODING 12508
SWIDTH 960 0
DWIDTH 12 0
BBX 12 13 0 -2
BITMAP
0140
08A0
0400
0780
7C00
0400
0500
2480
2480
4400
0C00
0400
0000
ENDCHAR
STARTCHAR uni30DD
ENCODING 12509
SWIDTH 960 0
DWIDTH 12 0
BBX 12 13 0 -2
BITMAP
00E0
08A0
04E0
07C0
7C00
0400
0500
2480
2480
4400
0C00
0400
0000
ENDCHAR
STARTCHAR uni30DE
ENCODING 12510
SWIDTH 960 0
DWIDTH 12 0
BBX 12 13 0 -2
BITMAP
0000
0000
4380
3C40
0040
0080
0100
3200
0C00
0200
0100
0000
0000
ENDCHAR
STARTCHAR uni30DF
ENCODING 12511
SWIDTH 960 0
DWIDTH 12 0
BBX 12 13 0 -2
BITMAP
0000
0800
0600
0180
1000
0C00
0300
0080
1800
0600
0100
0080
0000
ENDCHAR
STARTCHAR uni30E0
ENCODING 12512
SWIDTH 960 0
DWIDTH 12 0
BBX 12 13 0 -2
BITMAP
0000
0800
0400
0400
0800
0800
0900
1080
1740
7840
0000
0000
0000
ENDCHAR
STARTCHAR uni30E1
ENCODING 12513
SWIDTH 960 0
DWIDTH 12 0
BBX 12 13 0 -2
BITMAP
0000
0080
0040
0040
0C40
0380
0080
0140
0200
0400
0800
3000
0000
ENDCHAR
STARTCHAR uni30E2
ENCODING 12514
SWIDTH 960 0
DWIDTH 12 0
BBX 12 13 0 -2
BITMAP
0000
0000
2700
1800
0800
4FC0
3800
0800
0800
0780
0000
0000
0000
ENDCHAR
STARTCHAR uni30E3
ENCODING 12515
SWIDTH 960 0
DWIDTH 12 0
BBX 12 13 0 -2
BITMAP
0000
0000
0000
0000
1000
0980
0E80
3900
0400
0400
0200
0200
0000
ENDCHAR
STARTCHAR uni30E4
ENCODING 12516
SWIDTH 960 0
DWIDTH 12 0
BBX 12 13 0 -2
BITMAP
0000
2000
11C0
0E40
5840
2880
0500
0400
0400
0200
0200
0000
0000
ENDCHAR
STARTCHAR uni30E5
ENCODING 12517
SWIDTH 960 0
DWIDTH 12 0
BBX 12 13 0 -2
BITMAP
0000
0000
0000
0000
0000
0700
1900
0100
0200
0780
3840
0000
0000
ENDCHAR
STARTCHAR uni30E6
ENCODING 12518
SWIDTH 960 0
DWIDTH 12 0
BBX 12 13 0 -2
BITMAP
0000
0000
0000
2700
1900
0100
0200
0200
0780
7840
0000
0000
0000
ENDCHAR
STARTCHAR uni30E7
ENCODING 12519
SWIDTH 960 0
DWIDTH 12 0
BBX 12 13 0 -2
BITMAP
0000
0000
0000
0000
0780
3880
0080
0700
1900
0700
3880
0000
0000
ENDCHAR
STARTCHAR uni30E8
ENCODING 12520
SWIDTH 960 0
DWIDTH 12 0
BBX 12 13 0 -2
BITMAP
0000
0000
03C0
3C40
0040
03C0
1C80
0080
0080
0380
1C40
0000
0000
ENDCHAR
STARTCHAR uni30E9
ENCODING 12521
SWIDTH 960 0
DWIDTH 12 0
BBX 12 13 0 -2
BITMAP
0000
1300
0C00
00C0
2740
1840
0040
0080
0080
0100
0600
1800
0000
ENDCHAR
STARTCHAR uni30EA
ENCODING 12522
SWIDTH 960 0
DWIDTH 12 0
BBX 12 13 0 -2
BITMAP
0000
0100
1080
0880
0880
0880
0880
0880
0080
0100
0200
0400
0000
ENDCHAR
STARTCHAR uni30EB
ENCODING 12523
SWIDTH 960 0
DWIDTH 12 0
BBX 12 13 0 -2
BITMAP
0000
0000
0400
2200
1200
1240
1240
1280
2280
2300
4200
0000
0000
ENDCHAR
STARTCHAR uni30EC
ENCODING 12524
SWIDTH 960 0
DWIDTH 12 0
BBX 12 13 0 -2
BITMAP
0000
2000
1000
1000
1000
1000
1040
1080
1100
1600
1800
0000
0000
ENDCHAR
STARTCHAR uni30ED
ENCODING 12525
SWIDTH 960 0
DWIDTH 12 0
BBX 12 13 0 -2
BITMAP
0000
0000
43C0
3C40
2040
2040
1080
1080
1380
1C40
1000
0000
0000
ENDCHAR
STARTCHAR uni30EE
ENCODING 12526
SWIDTH 960 0
DWIDTH 12 0
BBX 12 13 0 -2
BITMAP
0000
0000
0000
0000
0000
2380
1C80
1080
1100
0100
0200
0400
0000
ENDCHAR
STARTCHAR uni30EF
ENCODING 12527
SWIDTH 960 0
DWIDTH 12 0
BBX 12 13 0 -2
BITMAP
0000
0000
43C0
3C40
2040
1040
1080
0080
0100
0200
0400
0800
0000
ENDCHAR
STARTCHAR uni30F0
ENCODING 12528
SWIDTH 960 0
DWIDTH 12 0
BBX 12 13 0 -2
BITMAP
0000
0400
0200
0780
7A00
2200
1200
1780
7A40
0200
0200
0200
0000
ENDCHAR
STARTCHAR uni30F1
ENCODING 12529
SWIDTH 960 0
DWIDTH 12 0
BBX 12 13 0 -2
BITMAP
0000
0000
0700
3880
0900
0600
0400
0400
07C0
7800
0000
0000
0000
ENDCHAR
STARTCHAR uni30F2
ENCODING 12530
SWIDTH 960 0
DWIDTH 12 0
BBX 12 13 0 -2
BITMAP
0000
0000
03C0
3C40
0040
03C0
1C80
0080
0100
0200
0C00
1000
0000
ENDCHAR
STARTCHAR uni30F3
ENCODING 12531
SWIDTH 960 0
DWIDTH 12 0
BBX 12 13 0 -2
BITMAP
0000
0000
6000
1040
0840
0080
0080
0100
0200
4C00
3000
0000
0000
ENDCHAR
STARTCHAR uni30F4
ENCODING 12532
SWIDTH 960 0
DWIDTH 12 0
BBX 12 13 0 -2
BITMAP
0040
1120
0880
8F80
7080
4100
2100
2100
0200
0400
0800
1000
0000
ENDCHAR
STARTCHAR uni30F5
ENCODING 12533
SWIDTH 960 0
DWIDTH 12 0
BBX 12 13 0 -2
BITMAP
0000
0000
0000
0000
0800
0400
2780
1880
0880
0880
1300
2100
0000
ENDCHAR
STARTCHAR uni30F6
ENCODING 12534
SWIDTH 960 0
DWIDTH 12 0
BBX 12 13 0 -2
BITMAP
0000
0000
0000
0000
1000
0800
08C0
0F00
1100
2200
0400
0800
0000
ENDCHAR
STARTCHAR uni30FB
ENCODING 12539
SWIDTH 960 0
DWIDTH 12 0
BBX 12 13 0 -2
BITMAP
0000
0000
0000
0000
0600
0F00
0F00
0600
0000
0000
0000
0000
0000
ENDCHAR
STARTCHAR uni30FC
ENCODING 12540
SWIDTH 960 0
DWIDTH 12 0
BBX 12 13 0 -2
BITMAP
0000
0000
0000
0000
0000
41E0
3E00
0000
0000
0000
0000
0000
0000
ENDCHAR
STARTCHAR uni30FD
ENCODING 12541
SWIDTH 960 0
DWIDTH 12 0
BBX 12 13 0 -2
BITMAP
0000
0000
0000
1000
0C00
0200
0100
0000
0000
0000
0000
0000
0000
ENDCHAR
STARTCHAR uni30FE
ENCODING 12542
SWIDTH 960 0
DWIDTH 12 0
BBX 12 13 0 -2
BITMAP
0000
0100
0280
1100
0C00
0200
0100
0000
0000
0000
0000
0000
0000
ENDCHAR
STARTCHAR uni4E00
ENCODING 19968
SWIDTH 960 0
DWIDTH 12 0
BBX 12 13 0 -2
BITMAP
0000
0000
0000
0000
0000
FFE0
0000
0000
0000
0000
0000
0000
0000
ENDCHAR
STARTCHAR uni4E01
ENCODING 19969
SWIDTH 960 0
DWIDTH 12 0
BBX 12 13 0 -2
BITMAP
0000
FFE0
0400
0400
0400
0400
0400
0400
0400
0400
0400
0C00
0000
ENDCHAR
STARTCHAR uni4E03
ENCODING 19971
SWIDTH 960 0
DWIDTH 12 0
BBX 12 13 0 -2
BITMAP
1000
1000
1000
10E0
1F00
F000
1000
1000
1000
1040
1040
0FC0
0000
ENDCHAR
STARTCHAR uni4E07
ENCODING 19975
SWIDTH 960 0
DWIDTH 12 0
BBX 12 13 0 -2
BITMAP
0000
FFE0
0800
0800
0F80
0880
0880
1080
1080
2080
4080
8180
0000
ENDCHAR
STARTCHAR uni4E08
ENCODING 19976
SWIDTH 960 0
DWIDTH 12 0
BBX 12 13 0 -2
BITMAP
0400
0400
FFE0
0400
0400
0400
2400
1400
0800
1600
2180
C060
0000
ENDCHAR
STARTCHAR uni4E09
ENCODING 19977
SWIDTH 960 0
DWIDTH 12 0
BBX 12 13 0 -2
BITMAP
0000
7FC0
0000
0000
0000
3F80
0000
0000
0000
0000
FFE0
0000
0000
ENDCHAR
STARTCHAR uni4E0A
ENCODING 19978
SWIDTH 960 0
DWIDTH 12 0
BBX 12 13 0 -2
BITMAP
0800
0800
0800
0800
0F80
0800
0800
0800
0800
0800
FFE0
0000
0000
ENDCHAR
STARTCHAR uni4E0B
ENCODING 19979
SWIDTH 960 0
DWIDTH 12 0
BBX 12 13 0 -2
BITMAP
0000
FFE0
0400
0600
0700
0500
0480
0480
0400
0400
0400
0400
0000
ENDCHAR
STARTCHAR uni4E0D
ENCODING 19981
SWIDTH 960 0
DWIDTH 12 0
BBX 12 13 0 -2
BITMAP
0000
FFE0
0200
0400
0E00
1500
2480
C440
0420
0400
0400
0400
0000
ENDCHAR
STARTCHAR uni4E0E
ENCODING 19982
SWIDTH 960 0
DWIDTH 12 0
BBX 12 13 0 -2
BITMAP
1000
1000
1F80
1000
1F00
1100
0100
FFE0
0100
0100
0100
0E00
0000
ENDCHAR
STARTCHAR uni4E10
ENCODING 19984
SWIDTH 960 0
DWIDTH 12 0
BBX 12 13 0 -2
BITMAP
0000
FFE0
0400
07C0
4400
4400
7FC0
4040
0040
0040
0080
0180
0000
ENDCHAR
STARTCHAR uni4E11
ENCODING 19985
SWIDTH 960 0
DWIDTH 12 0
BBX 12 13 0 -2
BITMAP
0000
3F80
0880
0880
0880
7FC0
1080
1080
1080
1080
FFE0
0000
0000
ENDCHAR
STARTCHAR uni4E14
ENCODING 19988
SWIDTH 960 0
DWIDTH 12 0
BBX 12 13 0 -2
BITMAP
0000
3F80
2080
2080
3F80
2080
2080
3F80
2080
2080
FFE0
0000
0000
ENDCHAR
STARTCHAR uni4E15
ENCODING 19989
SWIDTH 960 0
DWIDTH 12 0
BBX 12 13 0 -2
BITMAP
0000
7FC0
0600
0C00
1700
2480
4440
8420
0400
0000
7FC0
0000
0000
ENDCHAR
STARTCHAR uni4E16
ENCODING 19990
SWIDTH 960 0
DWIDTH 12 0
BBX 12 13 0 -2
BITMAP
4900
4900
4900
FFE0
4900
4900
4900
4F00
4800
4000
7FC0
4000
0000
ENDCHAR
STARTCHAR uni4E17
ENCODING 19991
SWIDTH 960 0
DWIDTH 12 0
BBX 12 13 0 -2
BITMAP
6480
6480
6480
6480
FFE0
6480
6480
6480
6480
6480
7F80
6080
0000
ENDCHAR
STARTCHAR uni4E18
ENCODING 19992
SWIDTH 960 0
DWIDTH 12 0
BBX 12 13 0 -2
BITMAP
0100
0200
3C00
2000
3FC0
2100
2100
2100
2100
2100
FFE0
0000
0000
ENDCHAR
STARTCHAR uni4E19
ENCODING 19993
SWIDTH 960 0
DWIDTH 12 0
BBX 12 13 0 -2
BITMAP
0000
FFE0
0400
7FC0
4440
4440
4A40
4940
50C0
4040
4040
40C0
0000
ENDCHAR
STARTCHAR uni4E1E
ENCODING 19998
SWIDTH 960 0
DWIDTH 12 0
BBX 12 13 0 -2
BITMAP
0000
3F00
0200
7640
1580
2500
2480
4440
8420
0000
7FC0
0000
0000
ENDCHAR
STARTCHAR uni4E21
ENCODING 20001
SWIDTH 960 0
DWIDTH 12 0
BBX 12 13 0 -2
BITMAP
0000
FFE0
0400
7FC0
4440
4440
5540
5540
5540
5F40
5140
40C0
0000
ENDCHAR
STARTCHAR uni4E25
ENCODING 20005
SWIDTH 960 0
DWIDTH 12 0
BBX 12 13 0 -2
BITMAP
0000
0000
FFE0
0A00
4A40
2A80
FFE0
4000
4000
4000
4000
4000
8000
ENDCHAR
STARTCHAR uni4E26
ENCODING 20006
SWIDTH 960 0
DWIDTH 12 0
BBX 12 13 0 -2
BITMAP
2080
1100
FFE0
1100
1100
5140
3140
3180
1100
1100
FFE0
0000
0000
ENDCHAR
STARTCHAR uni4E2A
ENCODING 20010
SWIDTH 960 0
DWIDTH 12 0
BBX 12 13 0 -2
BITMAP
0400
0400
0A00
0A00
1100
2480
4440
8420
0400
0400
0400
0400
0000
ENDCHAR
STARTCHAR uni4E2D
ENCODING 20013
SWIDTH 960 0
DWIDTH 12 0
BBX 12 13 0 -2
BITMAP
0400
0400
0400
7FC0
4440
4440
4440
7FC0
4440
0400
0400
0400
0000
ENDCHAR
STARTCHAR uni4E31
ENCODING 20017
SWIDTH 960 0
DWIDTH 12 0
BBX 12 13 0 -2
BITMAP
0900
0900
4920
4920
4920
4920
4920
79E0
4920
1100
1100
2100
0000
ENDCHAR
STARTCHAR uni4E32
ENCODING 20018
SWIDTH 960 0
DWIDTH 12 0
BBX 12 13 0 -2
BITMAP
0400
0400
3F80
2480
3F80
0400
7FC0
4440
7FC0
4440
0400
0400
0000
ENDCHAR
STARTCHAR uni4E36
ENCODING 20022
SWIDTH 960 0
DWIDTH 12 0
BBX 12 13 0 -2
BITMAP
0000
0000
0000
0800
0400
0200
0200
0000
0000
0000
0000
0000
0000
ENDCHAR
STARTCHAR uni4E38
ENCODING 20024
SWIDTH 960 0
DWIDTH 12 0
BBX 12 13 0 -2
BITMAP
0800
0800
0800
FF00
0900
0900
2900
1900
1500
2320
4120
81E0
0000
ENDCHAR
STARTCHAR uni4E39
ENCODING 20025
SWIDTH 960 0
DWIDTH 12 0
BBX 12 13 0 -2
BITMAP
0000
3F80
2080
2480
2480
2080
FFE0
2080
2080
4080
4080
8080
0000
ENDCHAR
STARTCHAR uni4E3B
ENCODING 20027
SWIDTH 960 0
DWIDTH 12 0
BBX 12 13 0 -2
BITMAP
0800
0400
7FC0
0400
0400
0400
3F80
0400
0400
0400
FFE0
0000
0000
ENDCHAR
STARTCHAR uni4E3C
ENCODING 20028
SWIDTH 960 0
DWIDTH 12 0
BBX 12 13 0 -2
BITMAP
1080
1080
7FE0
1080
1480
1280
1280
FFE0
1080
2080
2080
4080
0000
ENDCHAR
STARTCHAR uni4E3F
ENCODING 20031
SWIDTH 960 0
DWIDTH 12 0
BBX 12 13 0 -2
BITMAP
0080
0080
0080
0080
0080
0080
0100
0100
0200
0400
0800
3000
0000
ENDCHAR
STARTCHAR uni4E42
ENCODING 20034
SWIDTH 960 0
DWIDTH 12 0
BBX 12 13 0 -2
BITMAP
0080
6080
2080
2100
2100
1100
1200
0A00
0400
0A00
3180
C060
0000
ENDCHAR
STARTCHAR uni4E43
ENCODING 20035
SWIDTH 960 0
DWIDTH 12 0
BBX 12 13 0 -2
BITMAP
0000
3F80
0880
0880
0880
08E0
08A0
0820
1020
1020
2020
40C0
0000
ENDCHAR
STARTCHAR uni4E45
ENCODING 20037
SWIDTH 960 0
DWIDTH 12 0
BBX 12 13 0 -2
BITMAP
0800
0800
0F80
1080
1080
2100
4100
0200
0500
1880
2040
C020
0000
ENDCHAR
STARTCHAR uni4E4B
ENCODING 20043
SWIDTH 960 0
DWIDTH 12 0
BBX 12 13 0 -2
BITMAP
0400
0400
7F80
0080
0080
0100
0100
0200
6400
7800
4C00
83E0
0000
ENDCHAR
STARTCHAR uni4E4D
ENCODING 20045
SWIDTH 960 0
DWIDTH 12 0
BBX 12 13 0 -2
BITMAP
1000
1000
1FE0
2400
2400
47C0
8400
0400
07C0
0400
0400
0400
0000
ENDCHAR
STARTCHAR uni4E4E
ENCODING 20046
SWIDTH 960 0
DWIDTH 12 0
BBX 12 13 0 -2
BITMAP
0180
7F00
0480
2480
2500
0400
FFE0
0400
0400
0400
0400
0C00
0000
ENDCHAR
STARTCHAR uni4E4F
ENCODING 20047
SWIDTH 960 0
DWIDTH 12 0
BBX 12 13 0 -2
BITMAP
00C0
0300
7C00
0400
3F80
0080
0100
0200
3C00
3000
4C00
83E0
0000
ENDCHAR
STARTCHAR uni4E55
ENCODING 20053
SWIDTH 960 0
DWIDTH 12 0
BBX 12 13 0 -2
BITMAP
01C0
7E00
7FE0
7FE0
7FE0
6200
7FC0
7240
5240
52C0
8200
0200
0000
ENDCHAR
STARTCHAR uni4E56
ENCODING 20054
SWIDTH 960 0
DWIDTH 12 0
BBX 12 13 0 -2
BITMAP
0180
3E00
0400
FFE0
0400
2400
E560
2580
2500
E4E0
0400
0400
0000
ENDCHAR
STARTCHAR uni4E57
ENCODING 20055
SWIDTH 960 0
DWIDTH 12 0
BBX 12 13 0 -2
BITMAP
0100
3E00
7FC0
2480
FFE0
2480
7FC0
0E00
3580
C460
0400
0400
0000
ENDCHAR
STARTCHAR uni4E58
ENCODING 20056
SWIDTH 960 0
DWIDTH 12 0
BBX 12 13 0 -2
BITMAP
0100
3E00
FFE0
1500
75C0
1500
3540
D4C0
0E00
3580
C460
0400
0000
ENDCHAR
STARTCHAR uni4E59
ENCODING 20057
SWIDTH 960 0
DWIDTH 12 0
BBX 12 13 0 -2
BITMAP
0000
7F00
0200
0400
0800
1000
2000
4000
4040
4040
3FC0
0000
0000
ENDCHAR
STARTCHAR uni4E5D
ENCODING 20061
SWIDTH 960 0
DWIDTH 12 0
BBX 12 13 0 -2
BITMAP
0800
0800
0800
FF00
0900
0900
0900
1100
1100
2120
4120
81E0
0000
ENDCHAR
STARTCHAR uni4E5E
ENCODING 20062
SWIDTH 960 0
DWIDTH 12 0
BBX 12 13 0 -2
BITMAP
1000
1000
1FE0
2000
2000
5F80
0200
0C00
1000
2020
2020
1FE0
0000
ENDCHAR
STARTCHAR uni4E5F
ENCODING 20063
SWIDTH 960 0
DWIDTH 12 0
BBX 12 13 0 -2
BITMAP
0400
2400
2480
2780
3C80
E480
2480
2480
2580
2020
2020
1FE0
0000
ENDCHAR
STARTCHAR uni4E62
ENCODING 20066
SWIDTH 960 0
DWIDTH 12 0
BBX 12 13 0 -2
BITMAP
6200
6200
6200
F200
F200
F200
F200
F200
F200
F220
8220
01E0
0000
ENDCHAR
STARTCHAR uni4E71
ENCODING 20081
SWIDTH 960 0
DWIDTH 12 0
BBX 12 13 0 -2
BITMAP
0900
1100
6100
2100
FD00
2100
2100
7900
4900
4920
7920
49E0
0000
ENDCHAR
STARTCHAR uni4E73
ENCODING 20083
SWIDTH 960 0
DWIDTH 12 0
BBX 12 13 0 -2
BITMAP
0D00
F100
0500
A900
5100
7D00
0900
1100
1D00
F120
1120
31E0
0000
ENDCHAR
STARTCHAR uni4E7E
ENCODING 20094
SWIDTH 960 0
DWIDTH 12 0
BBX 12 13 0 -2
BITMAP
2200
2200
FBE0
7C00
4BC0
7880
4900
7900
2200
FE20
2220
21E0
0000
ENDCHAR
STARTCHAR uni4E80
ENCODING 20096
SWIDTH 960 0
DWIDTH 12 0
BBX 12 13 0 -2
BITMAP
0800
0F00
F600
3F80
2480
3F80
7F80
4480
7F80
7FA0
44A0
03E0
0000
ENDCHAR
STARTCHAR uni4E82
ENCODING 20098
SWIDTH 960 0
DWIDTH 12 0
BBX 12 13 0 -2
BITMAP
1D00
E900
7D00
F900
3100
FD00
F500
F500
F500
B520
B520
CDE0
0000
ENDCHAR
STARTCHAR uni4E85
ENCODING 20101
SWIDTH 960 0
DWIDTH 12 0
BBX 12 13 0 -2
BITMAP
0200
0200
0200
0200
0200
0200
0200
0200
0200
0200
0200
0C00
0000
ENDCHAR
STARTCHAR uni4E86
ENCODING 20102
SWIDTH 960 0
DWIDTH 12 0
BBX 12 13 0 -2
BITMAP
0000
3FC0
0080
0300
0200
0200
0200
0200
0200
0200
0200
0600
0000
ENDCHAR
STARTCHAR uni4E88
ENCODING 20104
SWIDTH 960 0
DWIDTH 12 0
BBX 12 13 0 -2
BITMAP
0000
3F80
0900
0600
FFE0
0440
0480
0400
0400
0400
0400
0C00
0000
ENDCHAR
STARTCHAR uni4E89
ENCODING 20105
SWIDTH 960 0
DWIDTH 12 0
BBX 12 13 0 -2
BITMAP
0400
0F00
7200
3F80
0480
FFE0
0480
0480
3F80
0400
0400
0C00
0000
ENDCHAR
STARTCHAR uni4E8A
ENCODING 20106
SWIDTH 960 0
DWIDTH 12 0
BBX 12 13 0 -2
BITMAP
0400
0400
FFE0
2480
2480
3F80
0480
FFE0
3F80
3F80
0400
0C00
0000
ENDCHAR
STARTCHAR uni4E8B
ENCODING 20107
SWIDTH 960 0
DWIDTH 12 0
BBX 12 13 0 -2
BITMAP
0400
FFE0
0400
3F80
3F80
0400
3F80
0480
FFE0
3F80
0480
0C00
0000
ENDCHAR
STARTCHAR uni4E8C
ENCODING 20108
SWIDTH 960 0
DWIDTH 12 0
BBX 12 13 0 -2
BITMAP
0000
0000
7FC0
0000
0000
0000
0000
0000
0000
FFE0
0000
0000
0000
ENDCHAR
STARTCHAR uni4E8E
ENCODING 20110
SWIDTH 960 0
DWIDTH 12 0
BBX 12 13 0 -2
BITMAP
0000
7FC0
0400
0400
0400
FFE0
0400
0400
0400
0400
0400
1800
0000
ENDCHAR
STARTCHAR uni4E91
ENCODING 20113
SWIDTH 960 0
DWIDTH 12 0
BBX 12 13 0 -2
BITMAP
0000
3F80
0000
0000
FFE0
0400
0400
0900
0880
1180
7E40
0040
0000
ENDCHAR
STARTCHAR uni4E92
ENCODING 20114
SWIDTH 960 0
DWIDTH 12 0
BBX 12 13 0 -2
BITMAP
0000
7FC0
0800
0F80
0880
1080
1100
3F00
0100
0200
FFE0
0000
0000
ENDCHAR
STARTCHAR uni4E94
ENCODING 20116
SWIDTH 960 0
DWIDTH 12 0
BBX 12 13 0 -2
BITMAP
0000
7FC0
0800
0800
0800
7F00
1100
1100
1100
2100
FFE0
0000
0000
ENDCHAR
STARTCHAR uni4E95
ENCODING 20117
SWIDTH 960 0
DWIDTH 12 0
BBX 12 13 0 -2
BITMAP
1100
1100
1100
7FC0
1100
1100
1100
FFE0
1100
1100
2100
4100
0000
ENDCHAR
STARTCHAR uni4E98
ENCODING 20120
SWIDTH 960 0
DWIDTH 12 0
BBX 12 13 0 -2
BITMAP
0000
7FC0
0000
3F80
2080
2080
3F80
2080
2080
3F80
0000
FFE0
0000
ENDCHAR
STARTCHAR uni4E99
ENCODING 20121
SWIDTH 960 0
DWIDTH 12 0
BBX 12 13 0 -2
BITMAP
0000
7FC0
0800
1F80
1480
1280
1280
2880
2500
0100
FFE0
0000
0000
ENDCHAR
STARTCHAR uni4E9B
ENCODING 20123
SWIDTH 960 0
DWIDTH 12 0
BBX 12 13 0 -2
BITMAP
1200
1200
5FC0
5200
5220
7A20
C1E0
0000
3F80
0000
FFE0
0000
0000
ENDCHAR
STARTCHAR uni4E9C
ENCODING 20124
SWIDTH 960 0
DWIDTH 12 0
BBX 12 13 0 -2
BITMAP
0000
7FE0
0900
3FC0
2940
2940
2940
3FC0
2940
0900
7FE0
0000
0000
ENDCHAR
STARTCHAR uni4E9E
ENCODING 20126
SWIDTH 960 0
DWIDTH 12 0
BBX 12 13 0 -2
BITMAP
0000
FFE0
1100
1100
71C0
4040
4040
71C0
1140
1100
FFE0
0000
0000
ENDCHAR
STARTCHAR uni4E9F
ENCODING 20127
SWIDTH 960 0
DWIDTH 12 0
BBX 12 13 0 -2
BITMAP
0000
FFE0
0800
1FC0
7340
5340
5280
52C0
7360
0E00
FFE0
0000
0000
ENDCHAR
STARTCHAR uni4EA0
ENCODING 20128
SWIDTH 960 0
DWIDTH 12 0
BBX 12 13 0 -2
BITMAP
0000
0000
0000
0400
0400
0400
FFE0
0000
0000
0000
0000
0000
0000
ENDCHAR
STARTCHAR uni4EA1
ENCODING 20129
SWIDTH 960 0
DWIDTH 12 0
BBX 12 13 0 -2
BITMAP
0400
0400
FFE0
2000
2000
2000
2000
2000
2000
2000
1FC0
0000
0000
ENDCHAR
STARTCHAR uni4EA2
ENCODING 20130
SWIDTH 960 0
DWIDTH 12 0
BBX 12 13 0 -2
BITMAP
0400
0400
FFE0
0000
1F00
1100
1100
1100
1100
2120
2120
41E0
0000
ENDCHAR
STARTCHAR uni4EA4
ENCODING 20132
SWIDTH 960 0
DWIDTH 12 0
BBX 12 13 0 -2
BITMAP
0400
0400
FFE0
1100
2080
3140
5140
0A00
0400
0A00
3180
C060
0000
ENDCHAR
STARTCHAR uni4EA5
ENCODING 20133
SWIDTH 960 0
DWIDTH 12 0
BBX 12 13 0 -2
BITMAP
0400
0400
FFE0
0800
2900
1280
0D00
0A00
3700
0880
3040
C040
0000
ENDCHAR
STARTCHAR uni4EA6
ENCODING 20134
SWIDTH 960 0
DWIDTH 12 0
BBX 12 13 0 -2
BITMAP
0400
0400
FFE0
1100
1100
1180
5140
9120
9120
2100
2100
4300
0000
ENDCHAR
STARTCHAR uni4EA8
ENCODING 20136
SWIDTH 960 0
DWIDTH 12 0
BBX 12 13 0 -2
BITMAP
0400
FFE0
3F80
2080
3F80
0000
3F80
0100
0600
0400
0400
0C00
0000
ENDCHAR
STARTCHAR uni4EAB
ENCODING 20139
SWIDTH 960 0
DWIDTH 12 0
BBX 12 13 0 -2
BITMAP
0400
FFE0
3F80
2080
3F80
0000
3F00
0200
FFE0
0400
0400
0C00
0000
ENDCHAR
STARTCHAR uni4EAC
ENCODING 20140
SWIDTH 960 0
DWIDTH 12 0
BBX 12 13 0 -2
BITMAP
0400
0400
FFE0
0000
3F80
2080
3F80
0400
2480
2440
4440
0C00
0000
ENDCHAR
STARTCHAR uni4EAD
ENCODING 20141
SWIDTH 960 0
DWIDTH 12 0
BBX 12 13 0 -2
BITMAP
0400
FFE0
1F00
1100
1F00
0000
7FE0
4040
BF80
0400
0400
0C00
0000
ENDCHAR
STARTCHAR uni4EAE
ENCODING 20142
SWIDTH 960 0
DWIDTH 12 0
BBX 12 13 0 -2
BITMAP
0400
FFE0
3F80
2080
3F80
0000
7FE0
4040
9200
1220
2220
C1E0
0000
ENDCHAR
STARTCHAR uni4EB0
ENCODING 20144
SWIDTH 960 0
DWIDTH 12 0
BBX 12 13 0 -2
BITMAP
0400
0400
FFE0
3F80
2080
3F80
2080
3F80
2480
2440
4440
0C00
0000
ENDCHAR
STARTCHAR uni4EB3
ENCODING 20147
SWIDTH 960 0
DWIDTH 12 0
BBX 12 13 0 -2
BITMAP
0400
FFE0
3F80
2080
3F80
0000
7FE0
4340
9C00
7FC0
0420
03E0
0000
ENDCHAR
STARTCHAR uni4EB6
ENCODING 20150
SWIDTH 960 0
DWIDTH 12 0
BBX 12 13 0 -2
BITMAP
0400
FFE0
7F80
7F80
7F80
7F80
3F80
3180
3F80
3F80
FFE0
0000
0000
ENDCHAR
STARTCHAR uni4EBA
ENCODING 20154
SWIDTH 960 0
DWIDTH 12 0
BBX 12 13 0 -2
BITMAP
0400
0400
0400
0400
0400
0E00
0A00
1100
1100
2080
4040
8020
0000
ENDCHAR
STARTCHAR uni4EC0
ENCODING 20160
SWIDTH 960 0
DWIDTH 12 0
BBX 12 13 0 -2
BITMAP
1100
1100
1100
2100
3FE0
6100
A100
2100
2100
2100
2100
2100
0000
ENDCHAR
STARTCHAR uni4EC1
ENCODING 20161
SWIDTH 960 0
DWIDTH 12 0
BBX 12 13 0 -2
BITMAP
2000
2000
2FC0
4000
4000
C000
4000
4000
4000
5FE0
4000
4000
0000
ENDCHAR
STARTCHAR uni4EC2
ENCODING 20162
SWIDTH 960 0
DWIDTH 12 0
BBX 12 13 0 -2
BITMAP
1100
1100
1100
2FE0
2120
6120
2120
2120
2220
2420
2820
2040
0000
ENDCHAR
STARTCHAR uni4EC4
ENCODING 20164
SWIDTH 960 0
DWIDTH 12 0
BBX 12 13 0 -2
BITMAP
0000
3FE0
2000
2200
2200
2200
2500
2500
4880
4880
9040
2020
0000
ENDCHAR
STARTCHAR uni4EC6
ENCODING 20166
SWIDTH 960 0
DWIDTH 12 0
BBX 12 13 0 -2
BITMAP
1100
1100
1100
2100
2180
6140
A120
2120
2100
2100
2100
2100
0000
ENDCHAR
STARTCHAR uni4EC7
ENCODING 20167
SWIDTH 960 0
DWIDTH 12 0
BBX 12 13 0 -2
BITMAP
2400
2400
2400
6700
7D00
A500
2500
2500
2500
2920
30A0
2060
0000
ENDCHAR
STARTCHAR uni4ECA
ENCODING 20170
SWIDTH 960 0
DWIDTH 12 0
BBX 12 13 0 -2
BITMAP
0400
0400
0A00
3180
DF60
0000
0000
3F80
0100
0100
0200
0400
0000
ENDCHAR
STARTCHAR uni4ECB
ENCODING 20171
SWIDTH 960 0
DWIDTH 12 0
BBX 12 13 0 -2
BITMAP
0400
0400
0A00
3180
D160
1100
1100
1100
1100
2100
2100
4100
0000
ENDCHAR
STARTCHAR uni4ECD
ENCODING 20173
SWIDTH 960 0
DWIDTH 12 0
BBX 12 13 0 -2
BITMAP
1000
1F80
1280
2280
2280
62E0
2220
2220
2220
2420
2820
3040
0000
ENDCHAR
STARTCHAR uni4ECE
ENCODING 20174
SWIDTH 960 0
DWIDTH 12 0
BBX 12 13 0 -2
BITMAP
2100
2100
2100
2100
2100
2100
2100
3100
2A80
4640
4440
8820
0000
ENDCHAR
STARTCHAR uni4ECF
ENCODING 20175
SWIDTH 960 0
DWIDTH 12 0
BBX 12 13 0 -2
BITMAP
2200
2200
2200
2200
4200
4200
C400
4480
4440
49C0
7E20
4020
0000
ENDCHAR
STARTCHAR uni4ED4
ENCODING 20180
SWIDTH 960 0
DWIDTH 12 0
BBX 12 13 0 -2
BITMAP
2000
2FC0
2080
6100
6100
A100
3FE0
2100
2100
2100
2100
2300
0000
ENDCHAR
STARTCHAR uni4ED5
ENCODING 20181
SWIDTH 960 0
DWIDTH 12 0
BBX 12 13 0 -2
BITMAP
2100
2100
2100
6100
7FE0
A100
2100
2100
2100
2100
2FC0
2000
0000
ENDCHAR
STARTCHAR uni4ED6
ENCODING 20182
SWIDTH 960 0
DWIDTH 12 0
BBX 12 13 0 -2
BITMAP
2100
2100
2900
69C0
6F40
B940
2940
2940
2940
2820
2820
27E0
0000
ENDCHAR
STARTCHAR uni4ED7
ENCODING 20183
SWIDTH 960 0
DWIDTH 12 0
BBX 12 13 0 -2
BITMAP
2100
2100
3FE0
4100
4900
C900
4500
4600
4200
4500
4880
5060
0000
ENDCHAR
STARTCHAR uni4ED8
ENCODING 20184
SWIDTH 960 0
DWIDTH 12 0
BBX 12 13 0 -2
BITMAP
1080
1080
1080
2FE0
2080
6480
A280
2280
2080
2080
2080
2080
0000
ENDCHAR
STARTCHAR uni4ED9
ENCODING 20185
SWIDTH 960 0
DWIDTH 12 0
BBX 12 13 0 -2
BITMAP
1080
1080
1080
34A0
34A0
54A0
14A0
14A0
14A0
17E0
1420
1420
0000
ENDCHAR
STARTCHAR uni4EDD
ENCODING 20189
SWIDTH 960 0
DWIDTH 12 0
BBX 12 13 0 -2
BITMAP
0400
0400
0A00
1100
2080
C060
1F00
0400
0400
0400
FFE0
0000
0000
ENDCHAR
STARTCHAR uni4EDE
ENCODING 20190
SWIDTH 960 0
DWIDTH 12 0
BBX 12 13 0 -2
BITMAP
1000
1FE0
1120
2120
2120
6520
2520
2920
2220
2220
2420
2840
0000
ENDCHAR
STARTCHAR uni4EDF
ENCODING 20191
SWIDTH 960 0
DWIDTH 12 0
BBX 12 13 0 -2
BITMAP
2040
2180
2F00
6100
6100
FFE0
6100
6100
6100
6100
6100
6100
0000
ENDCHAR
STARTCHAR uni4EE3
ENCODING 20195
SWIDTH 960 0
DWIDTH 12 0
BBX 12 13 0 -2
BITMAP
1280
1240
1240
23E0
3F00
6100
A100
2180
2080
20A0
2060
2020
0000
ENDCHAR
STARTCHAR uni4EE4
ENCODING 20196
SWIDTH 960 0
DWIDTH 12 0
BBX 12 13 0 -2
BITMAP
0400
0400
0A00
3180
FFE0
0000
3F80
0480
0480
0780
0400
0400
0000
ENDCHAR
STARTCHAR uni4EE5
ENCODING 20197
SWIDTH 960 0
DWIDTH 12 0
BBX 12 13 0 -2
BITMAP
2040
2040
2440
2340
2140
2040
2040
2040
2CE0
30A0
C310
0C10
0000
ENDCHAR
STARTCHAR uni4EED
ENCODING 20205
SWIDTH 960 0
DWIDTH 12 0
BBX 12 13 0 -2
BITMAP
2000
3FC0
2240
6240
7240
EA40
6640
6240
65E0
6860
7040
6080
0000
ENDCHAR
STARTCHAR uni4EEE
ENCODING 20206
SWIDTH 960 0
DWIDTH 12 0
BBX 12 13 0 -2
BITMAP
2000
2FE0
2800
6FC0
6A40
AA40
2940
2980
2980
3180
3640
3820
0000
ENDCHAR
STARTCHAR uni4EF0
ENCODING 20208
SWIDTH 960 0
DWIDTH 12 0
BBX 12 13 0 -2
BITMAP
1080
1100
16E0
34A0
34A0
54A0
14A0
15A0
16A0
1CC0
1080
1080
0000
ENDCHAR
STARTCHAR uni4EF2
ENCODING 20210
SWIDTH 960 0
DWIDTH 12 0
BBX 12 13 0 -2
BITMAP
2100
2100
2FE0
6920
6920
A920
2920
2FE0
2920
2100
2100
2100
0000
ENDCHAR
STARTCHAR uni4EF6
ENCODING 20214
SWIDTH 960 0
DWIDTH 12 0
BBX 12 13 0 -2
BITMAP
2100
2500
2500
6FC0
7100
A100
3FE0
2100
2100
2100
2100
2100
0000
ENDCHAR
STARTCHAR uni4EF7
ENCODING 20215
SWIDTH 960 0
DWIDTH 12 0
BBX 12 13 0 -2
BITMAP
2200
2200
2700
6500
6880
F4C0
65A0
6580
6580
6980
7180
6180
0000
ENDCHAR
STARTCHAR uni4EFB
ENCODING 20219
SWIDTH 960 0
DWIDTH 12 0
BBX 12 13 0 -2
BITMAP
20C0
2F00
2100
4100
4100
DFE0
4100
4100
4100
4100
4FC0
4000
0000
ENDCHAR
STARTCHAR uni4F01
ENCODING 20225
SWIDTH 960 0
DWIDTH 12 0
BBX 12 13 0 -2
BITMAP
0400
0400
0A00
3180
C460
0400
2400
2780
2400
2400
FFE0
0000
0000
ENDCHAR
STARTCHAR uni4F09
ENCODING 20233
SWIDTH 960 0
DWIDTH 12 0
BBX 12 13 0 -2
BITMAP
2100
3300
3FE0
6000
6700
E580
6580
6580
6580
69A0
71A0
60E0
0000
ENDCHAR
STARTCHAR uni4F0A
ENCODING 20234
SWIDTH 960 0
DWIDTH 12 0
BBX 12 13 0 -2
BITMAP
2000
2FC0
2140
6FE0
6140
A140
2FC0
2140
2200
2200
2400
2800
0000
ENDCHAR
STARTCHAR uni4F0D
ENCODING 20237
SWIDTH 960 0
DWIDTH 12 0
BBX 12 13 0 -2
BITMAP
2000
3FC0
2200
6200
6200
BF80
2480
2480
2480
2480
3FE0
2000
0000
ENDCHAR
STARTCHAR uni4F0E
ENCODING 20238
SWIDTH 960 0
DWIDTH 12 0
BBX 12 13 0 -2
BITMAP
2100
2100
3FE0
6100
6100
AFC0
2440
2480
2280
2300
2480
3860
0000
ENDCHAR
STARTCHAR uni4F0F
ENCODING 20239
SWIDTH 960 0
DWIDTH 12 0
BBX 12 13 0 -2
BITMAP
2100
2180
2140
4100
5FE0
C100
4100
4300
4280
4480
5840
6020
0000
ENDCHAR
STARTCHAR uni4F10
ENCODING 20240
SWIDTH 960 0
DWIDTH 12 0
BBX 12 13 0 -2
BITMAP
1180
1140
1140
21E0
3F40
6140
A180
2180
2100
22A0
2C60
2020
0000
ENDCHAR
STARTCHAR uni4F11
ENCODING 20241
SWIDTH 960 0
DWIDTH 12 0
BBX 12 13 0 -2
BITMAP
2100
2100
2100
7FE0
6300
A300
2380
2580
2540
3920
2100
2100
0000
ENDCHAR
STARTCHAR uni4F1A
ENCODING 20250
SWIDTH 960 0
DWIDTH 12 0
BBX 12 13 0 -2
BITMAP
0400
0400
0A00
3180
DF60
0000
0000
7FC0
0900
1380
7C40
0040
0000
ENDCHAR
STARTCHAR uni4F1C
ENCODING 20252
SWIDTH 960 0
DWIDTH 12 0
BBX 12 13 0 -2
BITMAP
2200
3200
3F80
65A0
65A0
E8E0
7100
6300
7FE0
6100
6100
6100
0000
ENDCHAR
STARTCHAR uni4F1D
ENCODING 20253
SWIDTH 960 0
DWIDTH 12 0
BBX 12 13 0 -2
BITMAP
2000
2FC0
2000
4000
5FE0
C200
4200
4280
4440
48C0
5F20
4020
0000
ENDCHAR
STARTCHAR uni4F2F
ENCODING 20271
SWIDTH 960 0
DWIDTH 12 0
BBX 12 13 0 -2
BITMAP
1080
1080
1100
27E0
2420
6420
2420
27E0
2420
2420
27E0
2420
0000
ENDCHAR
STARTCHAR uni4F30
ENCODING 20272
SWIDTH 960 0
DWIDTH 12 0
BBX 12 13 0 -2
BITMAP
2100
2100
3FE0
6FE0
6100
E100
6FC0
6840
6840
6840
6FC0
6840
0000
ENDCHAR
STARTCHAR uni4F34
ENCODING 20276
SWIDTH 960 0
DWIDTH 12 0
BBX 12 13 0 -2
BITMAP
2100
2940
2540
6100
6FC0
A100
2100
3FE0
2100
2100
2100
2100
0000
ENDCHAR
STARTCHAR uni4F36
ENCODING 20278
SWIDTH 960 0
DWIDTH 12 0
BBX 12 13 0 -2
BITMAP
1100
1100
1280
2480
2FC0
7020
AFC0
2140
2140
21C0
2100
2100
0000
ENDCHAR
STARTCHAR uni4F38
ENCODING 20280
SWIDTH 960 0
DWIDTH 12 0
BBX 12 13 0 -2
BITMAP
0880
0880
17E0
14A0
37E0
54A0
14A0
17E0
14A0
1080
1080
1080
0000
ENDCHAR
STARTCHAR uni4F3A
ENCODING 20282
SWIDTH 960 0
DWIDTH 12 0
BBX 12 13 0 -2
BITMAP
1000
1FE0
1020
37A0
3020
57A0
14A0
14A0
17A0
1020
1020
1060
0000
ENDCHAR
STARTCHAR uni4F3C
ENCODING 20284
SWIDTH 960 0
DWIDTH 12 0
BBX 12 13 0 -2
BITMAP
2080
2880
2880
6A80
6980
A880
2880
2880
2880
2D40
3120
2220
0000
ENDCHAR
STARTCHAR uni4F3D
ENCODING 20285
SWIDTH 960 0
DWIDTH 12 0
BBX 12 13 0 -2
BITMAP
1400
1400
1FE0
35A0
35A0
55A0
15A0
15A0
15A0
19E0
1BA0
1000
0000
ENDCHAR
STARTCHAR uni4F43
ENCODING 20291
SWIDTH 960 0
DWIDTH 12 0
BBX 12 13 0 -2
BITMAP
1000
17E0
14A0
34A0
34A0
57E0
14A0
14A0
14A0
14A0
17E0
1420
0000
ENDCHAR
STARTCHAR uni4F46
ENCODING 20294
SWIDTH 960 0
DWIDTH 12 0
BBX 12 13 0 -2
BITMAP
2000
2F80
2880
6880
6F80
A880
2880
2880
2F80
2000
3FE0
2000
0000
ENDCHAR
STARTCHAR uni4F47
ENCODING 20295
SWIDTH 960 0
DWIDTH 12 0
BBX 12 13 0 -2
BITMAP
2100
2300
2FE0
6860
7000
FFE0
6100
6100
6100
6100
6100
6300
0000
ENDCHAR
STARTCHAR uni4F4D
ENCODING 20301
SWIDTH 960 0
DWIDTH 12 0
BBX 12 13 0 -2
BITMAP
2200
2200
2200
7FE0
6040
A840
2480
2480
2480
2100
3FE0
2000
0000
ENDCHAR
STARTCHAR uni4F4E
ENCODING 20302
SWIDTH 960 0
DWIDTH 12 0
BBX 12 13 0 -2
BITMAP
20C0
2F00
2900
6900
6FE0
A900
2900
2880
2E80
3060
2FE0
2020
0000
ENDCHAR
STARTCHAR uni4F4F
ENCODING 20303
SWIDTH 960 0
DWIDTH 12 0
BBX 12 13 0 -2
BITMAP
2200
2100
3FE0
6100
6100
A100
2FC0
2100
2100
2100
3FE0
2000
0000
ENDCHAR
STARTCHAR uni4F50
ENCODING 20304
SWIDTH 960 0
DWIDTH 12 0
BBX 12 13 0 -2
BITMAP
2200
2200
3FE0
6200
6200
A200
27C0
2500
2900
3100
2FE0
2000
0000
ENDCHAR
STARTCHAR uni4F51
ENCODING 20305
SWIDTH 960 0
DWIDTH 12 0
BBX 12 13 0 -2
BITMAP
2200
2200
3FE0
4400
4400
C800
4FC0
5440
6440
4440
47C0
4440
0000
ENDCHAR
STARTCHAR uni4F53
ENCODING 20307
SWIDTH 960 0
DWIDTH 12 0
BBX 12 13 0 -2
BITMAP
2100
2100
2100
7FE0
6300
A380
2580
2540
2920
2780
2100
2100
0000
ENDCHAR
STARTCHAR uni4F55
ENCODING 20309
SWIDTH 960 0
DWIDTH 12 0
BBX 12 13 0 -2
BITMAP
2000
3FE0
2040
6F40
6940
A940
2940
2F40
2840
2040
2040
20C0
0000
ENDCHAR
STARTCHAR uni4F57
ENCODING 20311
SWIDTH 960 0
DWIDTH 12 0
BBX 12 13 0 -2
BITMAP
2100
2300
2FE0
6A60
7200
E240
6280
6300
6200
6220
6220
61E0
0000
ENDCHAR
STARTCHAR uni4F59
ENCODING 20313
SWIDTH 960 0
DWIDTH 12 0
BBX 12 13 0 -2
BITMAP
0400
0400
0A00
3180
C060
1F00
0400
7FC0
2480
2440
4440
0C00
0000
ENDCHAR
STARTCHAR uni4F5A
ENCODING 20314
SWIDTH 960 0
DWIDTH 12 0
BBX 12 13 0 -2
BITMAP
2100
2900
2900
6FC0
7300
E100
7FE0
6300
6780
6880
7040
6020
0000
ENDCHAR
STARTCHAR uni4F5B
ENCODING 20315
SWIDTH 960 0
DWIDTH 12 0
BBX 12 13 0 -2
BITMAP
2380
3380
3FC0
63C0
7FC0
F380
7380
7FE0
77A0
65A0
69C0
7180
0000
ENDCHAR
STARTCHAR uni4F5C
ENCODING 20316
SWIDTH 960 0
DWIDTH 12 0
BBX 12 13 0 -2
BITMAP
2400
2400
27E0
6A00
7200
A3C0
2200
2200
23C0
2200
2200
2200
0000
ENDCHAR
STARTCHAR uni4F5D
ENCODING 20317
SWIDTH 960 0
DWIDTH 12 0
BBX 12 13 0 -2
BITMAP
1200
1200
13E0
37E0
3820
77A0
34A0
34A0
37A0
3720
3020
3040
0000
ENDCHAR
STARTCHAR uni4F5E
ENCODING 20318
SWIDTH 960 0
DWIDTH 12 0
BBX 12 13 0 -2
BITMAP
2000
2FC0
2000
7FE0
6200
E200
7FE0
6480
6780
6780
6340
7C20
0000
ENDCHAR
STARTCHAR uni4F69
ENCODING 20329
SWIDTH 960 0
DWIDTH 12 0
BBX 12 13 0 -2
BITMAP
2000
3F80
3080
7F80
7280
FF80
7B80
7B80
7B80
7BE0
6260
6220
0000
ENDCHAR
STARTCHAR uni4F6F
ENCODING 20335
SWIDTH 960 0
DWIDTH 12 0
BBX 12 13 0 -2
BITMAP
2880
2480
3FE0
6FE0
6100
EFC0
6100
6300
7FE0
6100
6100
6100
0000
ENDCHAR
STARTCHAR uni4F70
ENCODING 20336
SWIDTH 960 0
DWIDTH 12 0
BBX 12 13 0 -2
BITMAP
2000
3FE0
2200
6FC0
6840
E840
6840
6FC0
6840
6840
6FC0
6840
0000
ENDCHAR
STARTCHAR uni4F73
ENCODING 20339
SWIDTH 960 0
DWIDTH 12 0
BBX 12 13 0 -2
BITMAP
2100
2100
27C0
6100
6FE0
A100
2100
2FC0
2100
2100
3FE0
2000
0000
ENDCHAR
STARTCHAR uni4F75
ENCODING 20341
SWIDTH 960 0
DWIDTH 12 0
BBX 12 13 0 -2
BITMAP
2880
2480
3FC0
4480
4480
C480
7FE0
4480
4480
4880
5080
6080
0000
ENDCHAR
STARTCHAR uni4F76
ENCODING 20342
SWIDTH 960 0
DWIDTH 12 0
BBX 12 13 0 -2
BITMAP
2100
2100
3FE0
7FE0
6100
EFC0
6000
6FC0
6840
6840
6FC0
6840
0000
ENDCHAR
STARTCHAR uni4F7B
ENCODING 20347
SWIDTH 960 0
DWIDTH 12 0
BBX 12 13 0 -2
BITMAP
2380
2380
33C0
6BC0
6B80
E380
67C0
6BA0
77A0
65A0
69A0
70E0
0000
ENDCHAR
STARTCHAR uni4F7C
ENCODING 20348
SWIDTH 960 0
DWIDTH 12 0
BBX 12 13 0 -2
BITMAP
2200
2200
3FE0
4480
4880
D540
4500
4200
4200
4500
5880
4060
0000
ENDCHAR
STARTCHAR uni4F7F
ENCODING 20351
SWIDTH 960 0
DWIDTH 12 0
BBX 12 13 0 -2
BITMAP
2100
2100
3FE0
6FC0
6940
A940
2FC0
2940
2600
2200
2D80
3060
0000
ENDCHAR
STARTCHAR uni4F83
ENCODING 20355
SWIDTH 960 0
DWIDTH 12 0
BBX 12 13 0 -2
BITMAP
2000
2FC0
2840
4840
4FC0
C000
4A80
4A80
4A80
4AA0
52A0
6060
0000
ENDCHAR
STARTCHAR uni4F86
ENCODING 20358
SWIDTH 960 0
DWIDTH 12 0
BBX 12 13 0 -2
BITMAP
0400
0400
FFE0
2580
3580
2D40
4E40
0E00
3580
E4E0
0400
0400
0000
ENDCHAR
STARTCHAR uni4F88
ENCODING 20360
SWIDTH 960 0
DWIDTH 12 0
BBX 12 13 0 -2
BITMAP
2200
23C0
2440
7B80
6100
E700
79E0
6220
6DC0
6180
6300
7C00
0000
ENDCHAR
STARTCHAR uni4F8B
ENCODING 20363
SWIDTH 960 0
DWIDTH 12 0
BBX 12 13 0 -2
BITMAP
1020
1FA0
14A0
27A0
29A0
69A0
35A0
22A0
22A0
2420
2820
3060
0000
ENDCHAR
STARTCHAR uni4F8D
ENCODING 20365
SWIDTH 960 0
DWIDTH 12 0
BBX 12 13 0 -2
BITMAP
2100
2100
2FC0
6100
7FE0
A080
2080
3FE0
2880
2480
2080
2080
0000
ENDCHAR
STARTCHAR uni4F8F
ENCODING 20367
SWIDTH 960 0
DWIDTH 12 0
BBX 12 13 0 -2
BITMAP
2100
2500
27C0
6FC0
7100
FFE0
6380
6380
6580
6940
7120
6100
0000
ENDCHAR
STARTCHAR uni4F91
ENCODING 20369
SWIDTH 960 0
DWIDTH 12 0
BBX 12 13 0 -2
BITMAP
2200
3200
3FE0
6400
67C0
EC40
77C0
6440
67C0
6440
6440
64C0
0000
ENDCHAR
STARTCHAR uni4F96
ENCODING 20374
SWIDTH 960 0
DWIDTH 12 0
BBX 12 13 0 -2
BITMAP
0400
0400
0A00
3F80
C060
7F80
6A80
6A80
7F80
6A80
6A80
6A80
0000
ENDCHAR
STARTCHAR uni4F98
ENCODING 20376
SWIDTH 960 0
DWIDTH 12 0
BBX 12 13 0 -2
BITMAP
2100
2300
2FE0
6860
7180
EF00
6100
63E0
7F00
6120
6120
61E0
0000
ENDCHAR
STARTCHAR uni4F9B
ENCODING 20379
SWIDTH 960 0
DWIDTH 12 0
BBX 12 13 0 -2
BITMAP
2480
2480
2480
7FC0
6480
A480
2480
3FE0
2000
2480
2840
3040
0000
ENDCHAR
STARTCHAR uni4F9D
ENCODING 20381
SWIDTH 960 0
DWIDTH 12 0
BBX 12 13 0 -2
BITMAP
2100
2100
3FE0
6300
6340
A540
2D80
3500
2480
2480
2640
3820
0000
ENDCHAR
STARTCHAR uni4FA0
ENCODING 20384
SWIDTH 960 0
DWIDTH 12 0
BBX 12 13 0 -2
BITMAP
2100
2100
3FE0
6940
6540
A580
3FE0
2300
2380
2480
2840
3020
0000
ENDCHAR
STARTCHAR uni4FA1
ENCODING 20385
SWIDTH 960 0
DWIDTH 12 0
BBX 12 13 0 -2
BITMAP
2000
3FE0
2280
6280
6FC0
AAC0
2AC0
2AC0
2AC0
2AC0
2FC0
2840
0000
ENDCHAR
STARTCHAR uni4FAB
ENCODING 20395
SWIDTH 960 0
DWIDTH 12 0
BBX 12 13 0 -2
BITMAP
2100
3300
3FE0
6800
67C0
E200
7FE0
6480
6780
6780
6340
7C20
0000
ENDCHAR
STARTCHAR uni4FAD
ENCODING 20397
SWIDTH 960 0
DWIDTH 12 0
BBX 12 13 0 -2
BITMAP
2000
2FC0
2840
4FC0
48C0
C880
4A80
5140
5020
4600
4100
4080
0000
ENDCHAR
STARTCHAR uni4FAE
ENCODING 20398
SWIDTH 960 0
DWIDTH 12 0
BBX 12 13 0 -2
BITMAP
2400
2400
27E0
4F80
5580
C580
5FE0
4A80
4A80
5FE0
4080
4180
0000
ENDCHAR
STARTCHAR uni4FAF
ENCODING 20399
SWIDTH 960 0
DWIDTH 12 0
BBX 12 13 0 -2
BITMAP
2780
2080
3FE0
6400
6400
A7C0
2900
3100
3FE0
2280
2C40
3020
0000
ENDCHAR
STARTCHAR uni4FB5
ENCODING 20405
SWIDTH 960 0
DWIDTH 12 0
BBX 12 13 0 -2
BITMAP
1000
17C0
1040
23C0
27C0
6000
AFF0
2820
27C0
2180
22C0
2C30
0000
ENDCHAR
STARTCHAR uni4FB6
ENCODING 20406
SWIDTH 960 0
DWIDTH 12 0
BBX 12 13 0 -2
BITMAP
1000
17C0
1440
2440
27C0
6100
2200
2FE0
2820
2820
2FE0
2820
0000
ENDCHAR
STARTCHAR uni4FBF
ENCODING 20415
SWIDTH 960 0
DWIDTH 12 0
BBX 12 13 0 -2
BITMAP
2000
3FE0
2100
4FC0
4FC0
C940
4FC0
4940
4600
4200
4580
5860
0000
ENDCHAR
STARTCHAR uni4FC2
ENCODING 20418
SWIDTH 960 0
DWIDTH 12 0
BBX 12 13 0 -2
BITMAP
20C0
2700
3A00
6480
6340
A2C0
2720
3D00
2140
2920
3120
2100
0000
ENDCHAR
STARTCHAR uni4FC3
ENCODING 20419
SWIDTH 960 0
DWIDTH 12 0
BBX 12 13 0 -2
BITMAP
2000
2FC0
2840
6FC0
6940
A100
2900
29C0
2900
2D00
3300
21E0
0000
ENDCHAR
STARTCHAR uni4FC4
ENCODING 20420
SWIDTH 960 0
DWIDTH 12 0
BBX 12 13 0 -2
BITMAP
1100
1740
3D20
6500
7FE0
A500
2740
2CC0
3480
24A0
2D60
2420
0000
ENDCHAR
STARTCHAR uni4FCA
ENCODING 20426
SWIDTH 960 0
DWIDTH 12 0
BBX 12 13 0 -2
BITMAP
2200
24C0
3FE0
6F80
65A0
AAE0
3380
2480
2B00
2300
2D80
3060
0000
ENDCHAR
STARTCHAR uni4FCE
ENCODING 20430
SWIDTH 960 0
DWIDTH 12 0
BBX 12 13 0 -2
BITMAP
6000
6780
6480
7480
5780
C480
6480
7780
5480
4480
BFE0
0000
0000
ENDCHAR
STARTCHAR uni4FD0
ENCODING 20432
SWIDTH 960 0
DWIDTH 12 0
BBX 12 13 0 -2
BITMAP
10A0
1BE0
1EE0
32E0
3FE0
72E0
36E0
37E0
3AE0
3AA0
3220
3260
0000
ENDCHAR
STARTCHAR uni4FD1
ENCODING 20433
SWIDTH 960 0
DWIDTH 12 0
BBX 12 13 0 -2
BITMAP
1000
17E0
11C0
37E0
35A0
74A0
37E0
34A0
37E0
37E0
34A0
34E0
0000
ENDCHAR
STARTCHAR uni4FD4
ENCODING 20436
SWIDTH 960 0
DWIDTH 12 0
BBX 12 13 0 -2
BITMAP
2000
2FC0
2FC0
6FC0
6FC0
E840
6FC0
6BC0
6780
65A0
69A0
70E0
0000
ENDCHAR
STARTCHAR uni4FD7
ENCODING 20439
SWIDTH 960 0
DWIDTH 12 0
BBX 12 13 0 -2
BITMAP
2480
2480
3840
6200
6700
A500
2880
3FC0
28A0
2880
2F80
2880
0000
ENDCHAR
STARTCHAR uni4FD8
ENCODING 20440
SWIDTH 960 0
DWIDTH 12 0
BBX 12 13 0 -2
BITMAP
2040
2180
2F40
6920
7020
EFC0
6180
6300
7FE0
6100
6100
6300
0000
ENDCHAR
STARTCHAR uni4FDA
ENCODING 20442
SWIDTH 960 0
DWIDTH 12 0
BBX 12 13 0 -2
BITMAP
2000
2FC0
2940
6FC0
6B40
E940
6FC0
6300
6FC0
6100
7FE0
6000
0000
ENDCHAR
STARTCHAR uni4FDB
ENCODING 20443
SWIDTH 960 0
DWIDTH 12 0
BBX 12 13 0 -2
BITMAP
2200
2380
2500
7FC0
6B40
E940
6FC0
6BC0
6380
65A0
69A0
70E0
0000
ENDCHAR
STARTCHAR uni4FDD
ENCODING 20445
SWIDTH 960 0
DWIDTH 12 0
BBX 12 13 0 -2
BITMAP
2000
2FC0
2840
4FC0
4940
C100
5FE0
4380
4540
5920
4100
4100
0000
ENDCHAR
STARTCHAR uni4FDF
ENCODING 20447
SWIDTH 960 0
DWIDTH 12 0
BBX 12 13 0 -2
BITMAP
2200
2280
26C0
7FC0
6400
E7C0
6900
7300
7FE0
6300
6480
7860
0000
ENDCHAR
STARTCHAR uni4FE1
ENCODING 20449
SWIDTH 960 0
DWIDTH 12 0
BBX 12 13 0 -2
BITMAP
2780
2000
3FE0
6000
6FC0
A000
2FC0
2000
2FC0
2840
2FC0
2840
0000
ENDCHAR
STARTCHAR uni4FE3
ENCODING 20451
SWIDTH 960 0
DWIDTH 12 0
BBX 12 13 0 -2
BITMAP
2000
2FC0
2840
4FC0
4000
CFC0
4100
5FE0
4100
4280
4C40
7020
0000
ENDCHAR
STARTCHAR uni4FE4
ENCODING 20452
SWIDTH 960 0
DWIDTH 12 0
BBX 12 13 0 -2
BITMAP
2480
2280
27C0
67C0
6FC0
E900
6FE0
6B20
6720
6960
7100
6100
0000
ENDCHAR
STARTCHAR uni4FE5
ENCODING 20453
SWIDTH 960 0
DWIDTH 12 0
BBX 12 13 0 -2
BITMAP
2100
3300
3FE0
6FC0
6B40
EFC0
6940
6FC0
6FE0
6FE0
6100
6100
0000
ENDCHAR
STARTCHAR uni4FEE
ENCODING 20462
SWIDTH 960 0
DWIDTH 12 0
BBX 12 13 0 -2
BITMAP
2200
2200
37E0
7E80
7380
BCE0
3100
3680
3100
3640
2180
2E00
0000
ENDCHAR
STARTCHAR uni4FEF
ENCODING 20463
SWIDTH 960 0
DWIDTH 12 0
BBX 12 13 0 -2
BITMAP
2100
3300
3FE0
7240
7240
F7E0
7540
7DC0
7440
7440
6440
64C0
0000
ENDCHAR
STARTCHAR uni4FF3
ENCODING 20467
SWIDTH 960 0
DWIDTH 12 0
BBX 12 13 0 -2
BITMAP
2280
2280
3EE0
4280
4280
DEE0
4280
4280
5EE0
4480
4880
5080
0000
ENDCHAR
STARTCHAR uni4FF5
ENCODING 20469
SWIDTH 960 0
DWIDTH 12 0
BBX 12 13 0 -2
BITMAP
2100
2100
3FE0
4FC0
4300
FFE0
4300
4540
5C80
4580
4640
5820
0000
ENDCHAR
STARTCHAR uni4FF6
ENCODING 20470
SWIDTH 960 0
DWIDTH 12 0
BBX 12 13 0 -2
BITMAP
2800
2800
2FC0
6E40
6940
FF40
69C0
6C80
7A80
79C0
6940
7A20
0000
ENDCHAR
STARTCHAR uni4FF8
ENCODING 20472
SWIDTH 960 0
DWIDTH 12 0
BBX 12 13 0 -2
BITMAP
2100
2100
2FE0
47C0
4300
DFE0
4580
4FC0
5120
47C0
4100
4100
0000
ENDCHAR
STARTCHAR uni4FFA
ENCODING 20474
SWIDTH 960 0
DWIDTH 12 0
BBX 12 13 0 -2
BITMAP
2200
2200
3FC0
6F00
72C0
AFA0
2A80
2F80
2F80
2AA0
2220
21E0
0000
ENDCHAR
STARTCHAR uni4FFE
ENCODING 20478
SWIDTH 960 0
DWIDTH 12 0
BBX 12 13 0 -2
BITMAP
2100
2200
2FC0
6FC0
6B40
EFC0
6100
6380
6FE0
6FE0
6180
6180
0000
ENDCHAR
STARTCHAR uni5005
ENCODING 20485
SWIDTH 960 0
DWIDTH 12 0
BBX 12 13 0 -2
BITMAP
2100
3300
3FE0
6480
6480
EB40
7140
6300
7FE0
6100
6100
6100
0000
ENDCHAR
STARTCHAR uni5006
ENCODING 20486
SWIDTH 960 0
DWIDTH 12 0
BBX 12 13 0 -2
BITMAP
2000
3FE0
2100
7FE0
7320
FDA0
75A0
77E0
7B60
7320
7120
7160
0000
ENDCHAR
STARTCHAR uni5009
ENCODING 20489
SWIDTH 960 0
DWIDTH 12 0
BBX 12 13 0 -2
BITMAP
0400
0A00
3F80
C060
3F80
3F80
3F80
2000
3F80
5080
9F80
1080
0000
ENDCHAR
STARTCHAR uni500B
ENCODING 20491
SWIDTH 960 0
DWIDTH 12 0
BBX 12 13 0 -2
BITMAP
1000
1FE0
1920
2FE0
2920
6BA0
2AA0
2AA0
2BA0
2820
2FE0
2820
0000
ENDCHAR
STARTCHAR uni500D
ENCODING 20493
SWIDTH 960 0
DWIDTH 12 0
BBX 12 13 0 -2
BITMAP
2100
2100
3FE0
4480
4480
DFE0
4000
4FC0
4840
4840
4FC0
4840
0000
ENDCHAR
STARTCHAR uni500F
ENCODING 20495
SWIDTH 960 0
DWIDTH 12 0
BBX 12 13 0 -2
BITMAP
2200
2200
37C0
7F80
7380
FCE0
7180
7340
7FE0
7300
6480
7860
0000
ENDCHAR
STARTCHAR uni5011
ENCODING 20497
SWIDTH 960 0
DWIDTH 12 0
BBX 12 13 0 -2
BITMAP
2000
3FE0
3FE0
7FE0
7FE0
F020
7020
7020
7020
7020
7020
7060
0000
ENDCHAR
STARTCHAR uni5012
ENCODING 20498
SWIDTH 960 0
DWIDTH 12 0
BBX 12 13 0 -2
BITMAP
2020
3FA0
24A0
4AA0
5FA0
C4A0
44A0
5FA0
44A0
4720
5820
4060
0000
ENDCHAR
STARTCHAR uni5014
ENCODING 20500
SWIDTH 960 0
DWIDTH 12 0
BBX 12 13 0 -2
BITMAP
2000
2FE0
2FE0
6FE0
6BC0
EBC0
6BC0
6BC0
6DA0
75A0
77E0
6420
0000
ENDCHAR
STARTCHAR uni5016
ENCODING 20502
SWIDTH 960 0
DWIDTH 12 0
BBX 12 13 0 -2
BITMAP
2100
2100
2FC0
6100
7FE0
A480
2480
3FE0
2100
2FC0
2100
2100
0000
ENDCHAR
STARTCHAR uni5019
ENCODING 20505
SWIDTH 960 0
DWIDTH 12 0
BBX 12 13 0 -2
BITMAP
2780
2080
3FE0
6200
B3C0
3500
3900
3FE0
3100
3280
2440
3820
0000
ENDCHAR
STARTCHAR uni501A
ENCODING 20506
SWIDTH 960 0
DWIDTH 12 0
BBX 12 13 0 -2
BITMAP
2100
3300
3FE0
6480
6880
FFE0
6040
6F40
6940
6F40
6840
60C0
0000
ENDCHAR
STARTCHAR uni501F
ENCODING 20511
SWIDTH 960 0
DWIDTH 12 0
BBX 12 13 0 -2
BITMAP
2500
2500
3FC0
6500
6500
BFE0
2000
2F80
2880
2F80
2F80
2880
0000
ENDCHAR
STARTCHAR uni5021
ENCODING 20513
SWIDTH 960 0
DWIDTH 12 0
BBX 12 13 0 -2
BITMAP
1000
17C0
17C0
37C0
37C0
7440
3000
3FE0
3FE0
3FE0
3FE0
3820
0000
ENDCHAR
STARTCHAR uni5023
ENCODING 20515
SWIDTH 960 0
DWIDTH 12 0
BBX 12 13 0 -2
BITMAP
2900
2900
2900
7FE0
4940
CF40
4B40
4AC0
4A80
5280
5340
4C20
0000
ENDCHAR
STARTCHAR uni5024
ENCODING 20516
SWIDTH 960 0
DWIDTH 12 0
BBX 12 13 0 -2
BITMAP
2100
2100
2FE0
4780
5480
D780
5480
5780
5480
5780
5FE0
5000
0000
ENDCHAR
STARTCHAR uni5025
ENCODING 20517
SWIDTH 960 0
DWIDTH 12 0
BBX 12 13 0 -2
BITMAP
2100
2300
2FE0
6BE0
73A0
E4E0
6800
6FC0
6100
6100
7FE0
6000
0000
ENDCHAR
STARTCHAR uni5026
ENCODING 20518
SWIDTH 960 0
DWIDTH 12 0
BBX 12 13 0 -2
BITMAP
2100
2940
27C0
4540
5FE0
C280
4780
48C0
57A0
4440
4440
43C0
0000
ENDCHAR
STARTCHAR uni5028
ENCODING 20520
SWIDTH 960 0
DWIDTH 12 0
BBX 12 13 0 -2
BITMAP
2000
2FC0
2840
6FC0
6B40
E900
6FE0
6B00
77C0
7440
67C0
6440
0000
ENDCHAR
STARTCHAR uni5029
ENCODING 20521
SWIDTH 960 0
DWIDTH 12 0
BBX 12 13 0 -2
BITMAP
2100
2FC0
27C0
67C0
7FE0
E000
6FC0
6940
6FC0
6FC0
6840
68C0
0000
ENDCHAR
STARTCHAR uni502A
ENCODING 20522
SWIDTH 960 0
DWIDTH 12 0
BBX 12 13 0 -2
BITMAP
2200
2CC0
2840
6EC0
6840
E840
6FC0
6BC0
6780
65A0
69A0
70E0
0000
ENDCHAR
STARTCHAR uni502B
ENCODING 20523
SWIDTH 960 0
DWIDTH 12 0
BBX 12 13 0 -2
BITMAP
2100
2300
2480
4FC0
5020
CFC0
4AC0
4AC0
4FC0
4AC0
4AC0
4840
0000
ENDCHAR
STARTCHAR uni502C
ENCODING 20524
SWIDTH 960 0
DWIDTH 12 0
BBX 12 13 0 -2
BITMAP
2100
2100
21E0
6FC0
6840
EFC0
6840
6FC0
6FE0
6FE0
6100
6100
0000
ENDCHAR
STARTCHAR uni502D
ENCODING 20525
SWIDTH 960 0
DWIDTH 12 0
BBX 12 13 0 -2
BITMAP
20C0
2F00
3FE0
4300
4580
D940
4100
5FE0
4280
4700
4280
5C40
0000
ENDCHAR
STARTCHAR uni5036
ENCODING 20534
SWIDTH 960 0
DWIDTH 12 0
BBX 12 13 0 -2
BITMAP
2000
2F80
2880
6F80
6880
AF80
2880
2F80
2000
3FE0
2880
3040
0000
ENDCHAR
STARTCHAR uni5039
ENCODING 20537
SWIDTH 960 0
DWIDTH 12 0
BBX 12 13 0 -2
BITMAP
1100
1100
1280
3FC0
3120
57C0
1540
17C0
1300
1280
1440
1820
0000
ENDCHAR
STARTCHAR uni5043
ENCODING 20547
SWIDTH 960 0
DWIDTH 12 0
BBX 12 13 0 -2
BITMAP
2000
3FE0
37C0
77C0
7440
F7C0
7100
7FE0
7780
77C0
7FE0
7000
0000
ENDCHAR
STARTCHAR uni5047
ENCODING 20551
SWIDTH 960 0
DWIDTH 12 0
BBX 12 13 0 -2
BITMAP
2000
3EC0
3240
7EC0
7240
F000
7DC0
7140
79C0
7880
70C0
7320
0000
ENDCHAR
STARTCHAR uni5048
ENCODING 20552
SWIDTH 960 0
DWIDTH 12 0
BBX 12 13 0 -2
BITMAP
1000
17C0
17C0
37C0
37C0
7400
37E0
3920
3BA0
3C20
3FA0
38C0
0000
ENDCHAR
STARTCHAR uni5049
ENCODING 20553
SWIDTH 960 0
DWIDTH 12 0
BBX 12 13 0 -2
BITMAP
2100
2F80
3FE0
6000
6F80
AF80
2000
2FC0
2900
3FE0
2100
2100
0000
ENDCHAR
STARTCHAR uni504F
ENCODING 20559
SWIDTH 960 0
DWIDTH 12 0
BBX 12 13 0 -2
BITMAP
1000
1FE0
1000
27C0
27C0
6400
27E0
2D60
2D60
37E0
3560
2460
0000
ENDCHAR
STARTCHAR uni5050
ENCODING 20560
SWIDTH 960 0
DWIDTH 12 0
BBX 12 13 0 -2
BITMAP
2100
3FE0
2380
6780
6FE0
E880
6900
6E40
6B80
7A60
70C0
6700
0000
ENDCHAR
STARTCHAR uni5055
ENCODING 20565
SWIDTH 960 0
DWIDTH 12 0
BBX 12 13 0 -2
BITMAP
2980
29A0
2FC0
6980
6FA0
F9E0
6200
6FC0
6FC0
6FC0
6FC0
6840
0000
ENDCHAR
STARTCHAR uni5056
ENCODING 20566
SWIDTH 960 0
DWIDTH 12 0
BBX 12 13 0 -2
BITMAP
2100
2300
2FC0
6140
7FE0
E180
6280
6FC0
77C0
67C0
67C0
6440
0000
ENDCHAR
STARTCHAR uni505A
ENCODING 20570
SWIDTH 960 0
DWIDTH 12 0
BBX 12 13 0 -2
BITMAP
2180
2980
2980
7FE0
6B40
EB40
7FC0
7280
7280
7FC0
7340
6220
0000
ENDCHAR
STARTCHAR uni505C
ENCODING 20572
SWIDTH 960 0
DWIDTH 12 0
BBX 12 13 0 -2
BITMAP
2100
3FE0
2780
6480
6780
A000
3FE0
3040
2FC0
2100
2100
2300
0000
ENDCHAR
STARTCHAR uni5065
ENCODING 20581
SWIDTH 960 0
DWIDTH 12 0
BBX 12 13 0 -2
BITMAP
2080
23C0
38C0
4FE0
53C0
DC80
47C0
5480
4FE0
4C80
5300
40E0
0000
ENDCHAR
STARTCHAR uni506C
ENCODING 20588
SWIDTH 960 0
DWIDTH 12 0
BBX 12 13 0 -2
BITMAP
2400
2400
2FC0
7FC0
77C0
E9C0
7280
6200
6540
7420
74A0
6380
0000
ENDCHAR
STARTCHAR uni5072
ENCODING 20594
SWIDTH 960 0
DWIDTH 12 0
BBX 12 13 0 -2
BITMAP
2000
2FC0
2940
6FC0
4940
C940
4FC0
4100
4480
5420
54A0
6380
0000
ENDCHAR
STARTCHAR uni5074
ENCODING 20596
SWIDTH 960 0
DWIDTH 12 0
BBX 12 13 0 -2
BITMAP
1020
1EA0
1AA0
2EA0
2AA0
6AA0
2EA0
2AA0
2EA0
2620
2920
3060
0000
ENDCHAR
STARTCHAR uni5075
ENCODING 20597
SWIDTH 960 0
DWIDTH 12 0
BBX 12 13 0 -2
BITMAP
1100
11E0
1100
37C0
3440
57C0
1440
17C0
1440
17C0
1240
1C20
0000
ENDCHAR
STARTCHAR uni5076
ENCODING 20598
SWIDTH 960 0
DWIDTH 12 0
BBX 12 13 0 -2
BITMAP
1000
17C0
1540
37C0
27C0
6100
2FE0
2960
2FE0
2C60
2820
2860
0000
ENDCHAR
STARTCHAR uni5078
ENCODING 20600
SWIDTH 960 0
DWIDTH 12 0
BBX 12 13 0 -2
BITMAP
2700
2300
2680
7FC0
7020
FE40
73C0
7BC0
7F80
7FC0
73C0
77C0
0000
ENDCHAR
STARTCHAR uni507D
ENCODING 20605
SWIDTH 960 0
DWIDTH 12 0
BBX 12 13 0 -2
BITMAP
2900
2500
3F80
6F80
6280
A7C0
2440
2FE0
37E0
3A20
2820
20C0
0000
ENDCHAR
STARTCHAR uni5080
ENCODING 20608
SWIDTH 960 0
DWIDTH 12 0
BBX 12 13 0 -2
BITMAP
2100
2200
2FC0
6FC0
6B40
EFC0
6B40
6380
67C0
65E0
6920
71E0
0000
ENDCHAR
STARTCHAR uni5085
ENCODING 20613
SWIDTH 960 0
DWIDTH 12 0
BBX 12 13 0 -2
BITMAP
2180
3FE0
27C0
6FC0
6FC0
E940
6FC0
69C0
7FE0
7FE0
6280
6080
0000
ENDCHAR
STARTCHAR uni508D
ENCODING 20621
SWIDTH 960 0
DWIDTH 12 0
BBX 12 13 0 -2
BITMAP
2100
2100
3FE0
4480
5FE0
D120
5FE0
4200
43C0
4440
5840
4080
0000
ENDCHAR
STARTCHAR uni5091
ENCODING 20625
SWIDTH 960 0
DWIDTH 12 0
BBX 12 13 0 -2
BITMAP
2440
2440
2FE0
7F40
67E0
A940
3140
3FE0
2780
2940
3120
2100
0000
ENDCHAR
STARTCHAR uni5098
ENCODING 20632
SWIDTH 960 0
DWIDTH 12 0
BBX 12 13 0 -2
BITMAP
0400
0A00
3580
E4E0
2480
3580
6F40
3580
5E40
FFE0
0400
0400
0000
ENDCHAR
STARTCHAR uni5099
ENCODING 20633
SWIDTH 960 0
DWIDTH 12 0
BBX 12 13 0 -2
BITMAP
2480
3FC0
2480
7FE0
4800
CFC0
4940
5FC0
5940
5FC0
6940
68C0
0000
ENDCHAR
STARTCHAR uni509A
ENCODING 20634
SWIDTH 960 0
DWIDTH 12 0
BBX 12 13 0 -2
BITMAP
2580
2580
3FE0
7FE0
7340
F340
6DC0
6480
6480
6AC0
7340
6220
0000
ENDCHAR
STARTCHAR uni50AC
ENCODING 20652
SWIDTH 960 0
DWIDTH 12 0
BBX 12 13 0 -2
BITMAP
2100
2940
2940
6FC0
6480
AFE0
3900
2FC0
2900
2FC0
2FE0
2800
0000
ENDCHAR
STARTCHAR uni50AD
ENCODING 20653
SWIDTH 960 0
DWIDTH 12 0
BBX 12 13 0 -2
BITMAP
2100
3FE0
5FC0
5140
DFE0
5FC0
5100
5FC0
5FC0
6FC0
6940
49C0
0000
ENDCHAR
STARTCHAR uni50B2
ENCODING 20658
SWIDTH 960 0
DWIDTH 12 0
BBX 12 13 0 -2
BITMAP
2980
3980
3FE0
7FE0
6B40
EB40
7FC0
6880
6E80
7AC0
7340
6620
0000
ENDCHAR
STARTCHAR uni50B3
ENCODING 20659
SWIDTH 960 0
DWIDTH 12 0
BBX 12 13 0 -2
BITMAP
2100
3FE0
27C0
6FC0
6FC0
EFC0
6140
7FE0
7FE0
7FE0
6480
6080
0000
ENDCHAR
STARTCHAR uni50B4
ENCODING 20660
SWIDTH 960 0
DWIDTH 12 0
BBX 12 13 0 -2
BITMAP
2000
3FE0
3380
7380
7380
F000
77C0
75C0
77C0
77C0
7FE0
7000
0000
ENDCHAR
STARTCHAR uni50B5
ENCODING 20661
SWIDTH 960 0
DWIDTH 12 0
BBX 12 13 0 -2
BITMAP
2200
3FC0
2F80
6200
7FE0
AF80
2880
2F80
2880
2F80
2C80
3040
0000
ENDCHAR
STARTCHAR uni50B7
ENCODING 20663
SWIDTH 960 0
DWIDTH 12 0
BBX 12 13 0 -2
BITMAP
1200
13F0
17C0
2A40
63C0
A3C0
3FF0
2400
27E0
2AA0
2520
21C0
0000
ENDCHAR
STARTCHAR uni50BE
ENCODING 20670
SWIDTH 960 0
DWIDTH 12 0
BBX 12 13 0 -2
BITMAP
2000
27E0
3080
75C0
7540
B9C0
3140
31C0
3540
2DC0
2140
2620
0000
ENDCHAR
STARTCHAR uni50C2
ENCODING 20674
SWIDTH 960 0
DWIDTH 12 0
BBX 12 13 0 -2
BITMAP
2100
2FC0
3FE0
6FE0
6FC0
EFC0
6940
6FC0
7FE0
7FE0
6380
7E40
0000
ENDCHAR
STARTCHAR uni50C5
ENCODING 20677
SWIDTH 960 0
DWIDTH 12 0
BBX 12 13 0 -2
BITMAP
2480
3FE0
2480
6FC0
6940
AFC0
2100
2FC0
2780
2100
3FE0
2000
0000
ENDCHAR
STARTCHAR uni50C9
ENCODING 20681
SWIDTH 960 0
DWIDTH 12 0
BBX 12 13 0 -2
BITMAP
0400
0A00
3F80
FFE0
7BC0
6A80
6A80
3B80
3180
3980
4A40
8440
0000
ENDCHAR
STARTCHAR uni50CA
ENCODING 20682
SWIDTH 960 0
DWIDTH 12 0
BBX 12 13 0 -2
BITMAP
2000
3FE0
3FC0
7FC0
7FC0
E200
7FE0
6580
7FE0
6F80
6840
67C0
0000
ENDCHAR
STARTCHAR uni50CD
ENCODING 20685
SWIDTH 960 0
DWIDTH 12 0
BBX 12 13 0 -2
BITMAP
2340
3C40
3FE0
3F60
5560
DF60
5560
5F60
4460
4EA0
47A0
5960
0000
ENDCHAR
STARTCHAR uni50CF
ENCODING 20687
SWIDTH 960 0
DWIDTH 12 0
BBX 12 13 0 -2
BITMAP
2200
2780
3FC0
6940
6FC0
A100
2640
3B80
2F80
2540
3920
2200
0000
ENDCHAR
STARTCHAR uni50D1
ENCODING 20689
SWIDTH 960 0
DWIDTH 12 0
BBX 12 13 0 -2
BITMAP
2180
2F00
3FE0
7700
4F80
D540
4720
5FC0
5040
5740
5740
5040
0000
ENDCHAR
STARTCHAR uni50D5
ENCODING 20693
SWIDTH 960 0
DWIDTH 12 0
BBX 12 13 0 -2
BITMAP
2280
2AC0
3FE0
6440
6280
BFE0
2100
2FC0
3FE0
2300
2C80
3060
0000
ENDCHAR
STARTCHAR uni50D6
ENCODING 20694
SWIDTH 960 0
DWIDTH 12 0
BBX 12 13 0 -2
BITMAP
2100
3FE0
27C0
67C0
6FC0
E840
6FC0
64C0
7FE0
6FC0
6840
6FC0
0000
ENDCHAR
STARTCHAR uni50DA
ENCODING 20698
SWIDTH 960 0
DWIDTH 12 0
BBX 12 13 0 -2
BITMAP
2200
3200
3FE0
4CA0
4FC0
D4A0
4780
4480
4780
4940
5120
4300
0000
ENDCHAR
STARTCHAR uni50DE
ENCODING 20702
SWIDTH 960 0
DWIDTH 12 0
BBX 12 13 0 -2
BITMAP
20C0
3FC0
3960
6F80
6880
EFC0
6840
6FE0
69E0
77E0
7A20
68C0
0000
ENDCHAR
STARTCHAR uni50E3
ENCODING 20707
SWIDTH 960 0
DWIDTH 12 0
BBX 12 13 0 -2
BITMAP
2580
3580
3FC0
7FE0
6DC0
EB80
7340
6FA0
6F80
6F80
6F80
6880
0000
ENDCHAR
STARTCHAR uni50E5
ENCODING 20709
SWIDTH 960 0
DWIDTH 12 0
BBX 12 13 0 -2
BITMAP
2100
2FC0
3FE0
6FE0
7EE0
E480
66E0
7800
7FE0
6380
65A0
78E0
0000
ENDCHAR
STARTCHAR uni50E7
ENCODING 20711
SWIDTH 960 0
DWIDTH 12 0
BBX 12 13 0 -2
BITMAP
1240
1180
17E0
37E0
34A0
57E0
1000
13C0
1240
13C0
13C0
1240
0000
ENDCHAR
STARTCHAR uni50ED
ENCODING 20717
SWIDTH 960 0
DWIDTH 12 0
BBX 12 13 0 -2
BITMAP
2480
3FE0
3580
7FE0
6DC0
F7A0
6560
6FC0
6FC0
6FC0
6FC0
6840
0000
ENDCHAR
STARTCHAR uni50EE
ENCODING 20718
SWIDTH 960 0
DWIDTH 12 0
BBX 12 13 0 -2
BITMAP
2100
3FC0
3FE0
7FE0
6FC0
E940
6FC0
6B40
6FC0
6FC0
6300
7FE0
0000
ENDCHAR
STARTCHAR uni50F5
ENCODING 20725
SWIDTH 960 0
DWIDTH 12 0
BBX 12 13 0 -2
BITMAP
2000
3FE0
2FC0
6FC0
6B40
EFC0
7FE0
6FC0
6FC0
6FC0
6FC0
7FE0
0000
ENDCHAR
STARTCHAR uni50F9
ENCODING 20729
SWIDTH 960 0
DWIDTH 12 0
BBX 12 13 0 -2
BITMAP
2000
3FE0
3FC0
7FC0
7FC0
EF80
6880
6F80
6F80
6F80
6580
7840
0000
ENDCHAR
STARTCHAR uni50FB
ENCODING 20731
SWIDTH 960 0
DWIDTH 12 0
BBX 12 13 0 -2
BITMAP
2080
2E80
2BE0
6B40
4F40
C9E0
4880
5E80
5BE0
6A80
4E80
4880
0000
ENDCHAR
STARTCHAR uni5100
ENCODING 20736
SWIDTH 960 0
DWIDTH 12 0
BBX 12 13 0 -2
BITMAP
2480
2300
3FE0
6FC0
6100
BFE0
2FC0
35A0
3FE0
2CC0
34E0
2D20
0000
ENDCHAR
STARTCHAR uni5101
ENCODING 20737
SWIDTH 960 0
DWIDTH 12 0
BBX 12 13 0 -2
BITMAP
2580
2580
2FE0
7FC0
7B00
EFC0
6900
6FE0
6CE0
7FE0
73A0
7060
0000
ENDCHAR
STARTCHAR uni5102
ENCODING 20738
SWIDTH 960 0
DWIDTH 12 0
BBX 12 13 0 -2
BITMAP
2380
2FC0
2FC0
6FC0
6FC0
E000
7FC0
7380
7FE0
75C0
6780
7C60
0000
ENDCHAR
STARTCHAR uni5104
ENCODING 20740
SWIDTH 960 0
DWIDTH 12 0
BBX 12 13 0 -2
BITMAP
2100
2FC0
2480
7FE0
6780
A480
2780
2480
27C0
2D20
34A0
2380
0000
ENDCHAR
STARTCHAR uni5109
ENCODING 20745
SWIDTH 960 0
DWIDTH 12 0
BBX 12 13 0 -2
BITMAP
2100
2300
2680
7FE0
6000
EEC0
6BC0
6BC0
6EC0
66C0
6BA0
7120
0000
ENDCHAR
STARTCHAR uni5112
ENCODING 20754
SWIDTH 960 0
DWIDTH 12 0
BBX 12 13 0 -2
BITMAP
2000
3FE0
2200
7FE0
7DC0
A000
3FE0
2200
2FC0
2AC0
2AC0
2AC0
0000
ENDCHAR
STARTCHAR uni5114
ENCODING 20756
SWIDTH 960 0
DWIDTH 12 0
BBX 12 13 0 -2
BITMAP
2100
3FE0
27C0
7FE0
6FC0
E100
6FC0
7FE0
6FE0
7FE0
7D40
70C0
0000
ENDCHAR
STARTCHAR uni5115
ENCODING 20757
SWIDTH 960 0
DWIDTH 12 0
BBX 12 13 0 -2
BITMAP
6200
7FE0
7FC0
7BC0
EBC0
7BC0
48A0
4F80
4F80
4F80
5080
6080
0000
ENDCHAR
STARTCHAR uni5116
ENCODING 20758
SWIDTH 960 0
DWIDTH 12 0
BBX 12 13 0 -2
BITMAP
2180
3F80
3DE0
7FE0
7E00
F4C0
7F00
6000
6FC0
6BC0
7FE0
6000
0000
ENDCHAR
STARTCHAR uni5118
ENCODING 20760
SWIDTH 960 0
DWIDTH 12 0
BBX 12 13 0 -2
BITMAP
6200
7F80
7FE0
5FE0
C200
7FE0
6940
45A0
5F80
5580
7FE0
4000
0000
ENDCHAR
STARTCHAR uni511A
ENCODING 20762
SWIDTH 960 0
DWIDTH 12 0
BBX 12 13 0 -2
BITMAP
2580
3FE0
27C0
6FC0
6FC0
E000
7FE0
7320
67C0
6780
6300
7C00
0000
ENDCHAR
STARTCHAR uni511F
ENCODING 20767
SWIDTH 960 0
DWIDTH 12 0
BBX 12 13 0 -2
BITMAP
1520
13C0
2FF0
2A50
63C0
A7E0
27E0
27E0
2420
27E0
2240
2420
0000
ENDCHAR
STARTCHAR uni5121
ENCODING 20769
SWIDTH 960 0
DWIDTH 12 0
BBX 12 13 0 -2
BITMAP
2000
2FC0
2FC0
6FC0
6FC0
E840
6000
7FE0
7FE0
7FE0
7FE0
7120
0000
ENDCHAR
STARTCHAR uni512A
ENCODING 20778
SWIDTH 960 0
DWIDTH 12 0
BBX 12 13 0 -2
BITMAP
2000
3FE0
2780
4780
4780
DFE0
6DC0
5BC0
57A0
5D00
4780
5860
0000
ENDCHAR
STARTCHAR uni5132
ENCODING 20786
SWIDTH 960 0
DWIDTH 12 0
BBX 12 13 0 -2
BITMAP
2080
3C80
3FC0
40C0
5FE0
C080
5DC0
4340
5DC0
5540
5DC0
5540
0000
ENDCHAR
STARTCHAR uni5137
ENCODING 20791
SWIDTH 960 0
DWIDTH 12 0
BBX 12 13 0 -2
BITMAP
3EE0
3000
3FE0
6780
7FE0
F380
7FC0
73C0
7FE0
77E0
67A0
7CE0
0000
ENDCHAR
STARTCHAR uni513A
ENCODING 20794
SWIDTH 960 0
DWIDTH 12 0
BBX 12 13 0 -2
BITMAP
75C0
7FC0
7DE0
49E0
7F80
EBE0
7F80
4BC0
5FE0
5F80
57E0
6300
0000
ENDCHAR
STARTCHAR uni513B
ENCODING 20795
SWIDTH 960 0
DWIDTH 12 0
BBX 12 13 0 -2
BITMAP
2580
3FE0
37C0
6FC0
6FC0
EBC0
6FC0
6300
6FC0
7FE0
6BC0
73A0
0000
ENDCHAR
STARTCHAR uni513C
ENCODING 20796
SWIDTH 960 0
DWIDTH 12 0
BBX 12 13 0 -2
BITMAP
6FC0
6BC0
4EC0
5FE0
FF80
6580
7FE0
6BC0
6EC0
6E80
7FC0
4320
0000
ENDCHAR
STARTCHAR uni513F
ENCODING 20799
SWIDTH 960 0
DWIDTH 12 0
BBX 12 13 0 -2
BITMAP
1100
1100
1100
1100
1100
1100
1100
1100
2100
2120
4120
81E0
0000
ENDCHAR
STARTCHAR uni5140
ENCODING 20800
SWIDTH 960 0
DWIDTH 12 0
BBX 12 13 0 -2
BITMAP
0000
FFE0
1100
1100
1100
1100
1100
1100
2100
2120
4120
81E0
0000
ENDCHAR
STARTCHAR uni5141
ENCODING 20801
SWIDTH 960 0
DWIDTH 12 0
BBX 12 13 0 -2
BITMAP
0800
0900
11C0
FF20
1200
1200
1200
2200
2200
2220
4220
81E0
0000
ENDCHAR
STARTCHAR uni5143
ENCODING 20803
SWIDTH 960 0
DWIDTH 12 0
BBX 12 13 0 -2
BITMAP
0000
3F80
0000
0000
FFE0
1200
1200
1200
2200
2220
4220
81E0
0000
ENDCHAR
STARTCHAR uni5144
ENCODING 20804
SWIDTH 960 0
DWIDTH 12 0
BBX 12 13 0 -2
BITMAP
0000
3FC0
2040
2040
3FC0
2A40
0A00
0A00
1200
1220
2220
41E0
0000
ENDCHAR
STARTCHAR uni5145
ENCODING 20805
SWIDTH 960 0
DWIDTH 12 0
BBX 12 13 0 -2
BITMAP
0400
0400
FFE0
0900
1180
7E40
0900
0900
1100
1120
2120
C1E0
0000
ENDCHAR
STARTCHAR uni5146
ENCODING 20806
SWIDTH 960 0
DWIDTH 12 0
BBX 12 13 0 -2
BITMAP
1200
1200
1280
5280
3300
1200
1280
3280
E200
2220
4220
81E0
0000
ENDCHAR
STARTCHAR uni5147
ENCODING 20807
SWIDTH 960 0
DWIDTH 12 0
BBX 12 13 0 -2
BITMAP
0200
4280
5C80
4E80
5280
6080
7F80
5280
1200
2220
2220
C1E0
0000
ENDCHAR
STARTCHAR uni5148
ENCODING 20808
SWIDTH 960 0
DWIDTH 12 0
BBX 12 13 0 -2
BITMAP
0400
2400
3F80
2400
4400
FFE0
0A00
0A00
1200
1220
2220
C1E0
0000
ENDCHAR
STARTCHAR uni5149
ENCODING 20809
SWIDTH 960 0
DWIDTH 12 0
BBX 12 13 0 -2
BITMAP
0400
0400
2480
1500
0400
FFE0
1200
1200
1200
2220
2220
C1E0
0000
ENDCHAR
STARTCHAR uni514B
ENCODING 20811
SWIDTH 960 0
DWIDTH 12 0
BBX 12 13 0 -2
BITMAP
0400
FFE0
0400
3F80
2080
2080
3F80
0A80
0A00
1220
2220
C1E0
0000
ENDCHAR
STARTCHAR uni514C
ENCODING 20812
SWIDTH 960 0
DWIDTH 12 0
BBX 12 13 0 -2
BITMAP
0700
1100
2080
FFE0
3180
2180
2180
3F00
0A00
1A20
3220
61E0
0000
ENDCHAR
STARTCHAR uni514D
ENCODING 20813
SWIDTH 960 0
DWIDTH 12 0
BBX 12 13 0 -2
BITMAP
1000
1F00
2200
FF80
2480
2480
3F80
0A80
0A00
1220
2220
C1E0
0000
ENDCHAR
STARTCHAR uni514E
ENCODING 20814
SWIDTH 960 0
DWIDTH 12 0
BBX 12 13 0 -2
BITMAP
0080
0300
7C00
3F80
2480
2480
3F80
0C80
0D00
14A0
2420
C3E0
0000
ENDCHAR
STARTCHAR uni5150
ENCODING 20816
SWIDTH 960 0
DWIDTH 12 0
BBX 12 13 0 -2
BITMAP
0000
2F80
2880
2F80
2880
2880
2F80
0A80
1200
1220
2220
C1E0
0000
ENDCHAR
STARTCHAR uni5152
ENCODING 20818
SWIDTH 960 0
DWIDTH 12 0
BBX 12 13 0 -2
BITMAP
0800
73C0
4040
7BC0
4040
4040
7FC0
5240
1200
1220
2220
C1E0
0000
ENDCHAR
STARTCHAR uni5154
ENCODING 20820
SWIDTH 960 0
DWIDTH 12 0
BBX 12 13 0 -2
BITMAP
0800
0F00
3200
FF80
6480
6480
7F80
0C80
0D00
15A0
2420
C3E0
0000
ENDCHAR
STARTCHAR uni515A
ENCODING 20826
SWIDTH 960 0
DWIDTH 12 0
BBX 12 13 0 -2
BITMAP
2480
1500
7FE0
4020
9F80
1080
1080
1F80
0A00
1220
2220
C1E0
0000
ENDCHAR
STARTCHAR uni515C
ENCODING 20828
SWIDTH 960 0
DWIDTH 12 0
BBX 12 13 0 -2
BITMAP
0200
3400
5FC0
5240
5E40
7EC0
4040
1200
1200
1220
2220
C1E0
0000
ENDCHAR
STARTCHAR uni5162
ENCODING 20834
SWIDTH 960 0
DWIDTH 12 0
BBX 12 13 0 -2
BITMAP
2180
3180
FFE0
7BC0
4A40
4A40
7BC0
7180
7180
5EA0
72A0
8460
0000
ENDCHAR
STARTCHAR uni5165
ENCODING 20837
SWIDTH 960 0
DWIDTH 12 0
BBX 12 13 0 -2
BITMAP
3C00
0400
0400
0400
0400
0E00
0A00
1100
1100
2080
4040
8020
0000
ENDCHAR
STARTCHAR uni5168
ENCODING 20840
SWIDTH 960 0
DWIDTH 12 0
BBX 12 13 0 -2
BITMAP
0400
0400
0A00
3180
C060
3F80
0400
0400
1F00
0400
0400
FFE0
0000
ENDCHAR
STARTCHAR uni5169
ENCODING 20841
SWIDTH 960 0
DWIDTH 12 0
BBX 12 13 0 -2
BITMAP
0000
FFE0
0400
7FC0
4440
7540
55C0
55C0
6EC0
4440
4440
44C0
0000
ENDCHAR
STARTCHAR uni516A
ENCODING 20842
SWIDTH 960 0
DWIDTH 12 0
BBX 12 13 0 -2
BITMAP
1C00
0A00
3180
FFE0
0000
7940
4940
7A80
7C80
7A80
4B40
5940
0000
ENDCHAR
STARTCHAR uni516B
ENCODING 20843
SWIDTH 960 0
DWIDTH 12 0
BBX 12 13 0 -2
BITMAP
1F00
0100
0100
1100
1100
1100
2100
2080
2080
4080
4040
8020
0000
ENDCHAR
STARTCHAR uni516C
ENCODING 20844
SWIDTH 960 0
DWIDTH 12 0
BBX 12 13 0 -2
BITMAP
0700
1100
1080
2080
2440
4420
8400
0900
0880
1180
7E40
0040
0000
ENDCHAR
STARTCHAR uni516D
ENCODING 20845
SWIDTH 960 0
DWIDTH 12 0
BBX 12 13 0 -2
BITMAP
0400
0400
0400
FFE0
0000
1100
1080
2080
2040
4040
8040
0000
0000
ENDCHAR
STARTCHAR uni516E
ENCODING 20846
SWIDTH 960 0
DWIDTH 12 0
BBX 12 13 0 -2
BITMAP
0700
1100
2080
FFE0
1000
1000
1F80
2180
0180
0100
0100
0600
0000
ENDCHAR
STARTCHAR uni5171
ENCODING 20849
SWIDTH 960 0
DWIDTH 12 0
BBX 12 13 0 -2
BITMAP
1100
1100
1100
7FC0
1100
1100
1100
FFE0
0000
1100
2080
4080
0000
ENDCHAR
STARTCHAR uni5175
ENCODING 20853
SWIDTH 960 0
DWIDTH 12 0
BBX 12 13 0 -2
BITMAP
0300
3C00
2000
3FC0
2100
2100
2100
2100
FFE0
1000
2180
C040
0000
ENDCHAR
STARTCHAR uni5176
ENCODING 20854
SWIDTH 960 0
DWIDTH 12 0
BBX 12 13 0 -2
BITMAP
1100
1100
7FC0
1100
1F00
1100
1F00
1100
FFE0
1100
3180
C040
0000
ENDCHAR
STARTCHAR uni5177
ENCODING 20855
SWIDTH 960 0
DWIDTH 12 0
BBX 12 13 0 -2
BITMAP
0000
3F80
2080
3F80
2080
3F80
2080
3F80
0000
FFE0
3080
C040
0000
ENDCHAR
STARTCHAR uni5178
ENCODING 20856
SWIDTH 960 0
DWIDTH 12 0
BBX 12 13 0 -2
BITMAP
0A00
0A00
3F80
2A80
2A80
3F80
2A80
2A80
FFE0
1000
2180
C040
0000
ENDCHAR
STARTCHAR uni517C
ENCODING 20860
SWIDTH 960 0
DWIDTH 12 0
BBX 12 13 0 -2
BITMAP
2100
1200
FFE0
7F80
1280
FFE0
1280
7F80
3300
D2E0
1200
1200
0000
ENDCHAR
STARTCHAR uni5180
ENCODING 20864
SWIDTH 960 0
DWIDTH 12 0
BBX 12 13 0 -2
BITMAP
1140
7180
3FE0
FFE0
3F80
2580
3F00
1300
7FC0
FFE0
3180
6080
0000
ENDCHAR
STARTCHAR uni5182
ENCODING 20866
SWIDTH 960 0
DWIDTH 12 0
BBX 12 13 0 -2
BITMAP
0000
7FC0
4040
4040
4040
4040
4040
4040
4040
4040
4040
40C0
0000
ENDCHAR
STARTCHAR uni5185
ENCODING 20869
SWIDTH 960 0
DWIDTH 12 0
BBX 12 13 0 -2
BITMAP
0400
0400
7FC0
4440
4440
4A40
4940
50C0
4040
4040
4040
40C0
0000
ENDCHAR
STARTCHAR uni5186
ENCODING 20870
SWIDTH 960 0
DWIDTH 12 0
BBX 12 13 0 -2
BITMAP
0000
7FC0
4440
4440
4440
4440
7FC0
4040
4040
4040
4040
40C0
0000
ENDCHAR
STARTCHAR uni5189
ENCODING 20873
SWIDTH 960 0
DWIDTH 12 0
BBX 12 13 0 -2
BITMAP
0400
0400
3F80
7F80
6480
7F80
6480
64C0
FFE0
6080
6080
6080
0000
ENDCHAR
STARTCHAR uni518A
ENCODING 20874
SWIDTH 960 0
DWIDTH 12 0
BBX 12 13 0 -2
BITMAP
0000
7F80
4A80
4A80
4A80
4A80
FFE0
4A80
4A80
4A80
4A80
4080
0000
ENDCHAR
STARTCHAR uni518C
ENCODING 20876
SWIDTH 960 0
DWIDTH 12 0
BBX 12 13 0 -2
BITMAP
0000
79C0
6940
6940
6940
FFE0
6940
6940
6940
4A40
4A40
9CC0
0000
ENDCHAR
STARTCHAR uni518D
ENCODING 20877
SWIDTH 960 0
DWIDTH 12 0
BBX 12 13 0 -2
BITMAP
0000
7FC0
0400
3F80
2480
3F80
2480
2480
FFE0
2080
2080
2180
0000
ENDCHAR
STARTCHAR uni518F
ENCODING 20879
SWIDTH 960 0
DWIDTH 12 0
BBX 12 13 0 -2
BITMAP
0000
7FC0
5240
5240
63C0
6040
5F40
5140
5140
5F40
5340
40C0
0000
ENDCHAR
STARTCHAR uni5190
ENCODING 20880
SWIDTH 960 0
DWIDTH 12 0
BBX 12 13 0 -2
BITMAP
0000
7FC0
7F40
7F40
7F40
4040
7F80
6080
7F80
7F80
6080
6080
0000
ENDCHAR
STARTCHAR uni5191
ENCODING 20881
SWIDTH 960 0
DWIDTH 12 0
BBX 12 13 0 -2
BITMAP
0400
7FC0
7FC0
7FC0
7FC0
0000
7F80
6080
7E80
7E80
6080
6080
0000
ENDCHAR
STARTCHAR uni5192
ENCODING 20882
SWIDTH 960 0
DWIDTH 12 0
BBX 12 13 0 -2
BITMAP
0000
7FC0
4040
7FC0
4040
7FC0
2080
3F80
2080
3F80
3F80
2080
0000
ENDCHAR
STARTCHAR uni5193
ENCODING 20883
SWIDTH 960 0
DWIDTH 12 0
BBX 12 13 0 -2
BITMAP
1100
7FC0
3F80
3F80
FFE0
0400
7F80
6480
7F80
FFE0
60C0
6080
0000
ENDCHAR
STARTCHAR uni5195
ENCODING 20885
SWIDTH 960 0
DWIDTH 12 0
BBX 12 13 0 -2
BITMAP
0000
7F80
7F80
7F80
7F80
1F00
6200
FF80
7F80
3FA0
3220
E1E0
0000
ENDCHAR
STARTCHAR uni5196
ENCODING 20886
SWIDTH 960 0
DWIDTH 12 0
BBX 12 13 0 -2
BITMAP
0000
0000
0000
3FE0
6020
4040
8000
0000
0000
0000
0000
0000
0000
ENDCHAR
STARTCHAR uni5197
ENCODING 20887
SWIDTH 960 0
DWIDTH 12 0
BBX 12 13 0 -2
BITMAP
0000
3FE0
4020
0F00
0900
0900
0900
0900
1100
1120
2120
40E0
0000
ENDCHAR
STARTCHAR uni5199
ENCODING 20889
SWIDTH 960 0
DWIDTH 12 0
BBX 12 13 0 -2
BITMAP
0000
7FE0
9040
1F80
1000
1F00
1100
0100
FFE0
0100
0200
0C00
0000
ENDCHAR
STARTCHAR uni51A0
ENCODING 20896
SWIDTH 960 0
DWIDTH 12 0
BBX 12 13 0 -2
BITMAP
0000
7FE0
8040
F880
07E0
FC80
5280
5280
5080
50A0
5020
8FE0
0000
ENDCHAR
STARTCHAR uni51A2
ENCODING 20898
SWIDTH 960 0
DWIDTH 12 0
BBX 12 13 0 -2
BITMAP
0000
7FE0
FFC0
3FC0
1940
2540
ED80
3380
5E80
1A40
6220
0C00
0000
ENDCHAR
STARTCHAR uni51A4
ENCODING 20900
SWIDTH 960 0
DWIDTH 12 0
BBX 12 13 0 -2
BITMAP
0000
7FE0
8E40
3E00
FF80
6480
6480
7F80
0C00
1D20
35A0
C3E0
0000
ENDCHAR
STARTCHAR uni51A5
ENCODING 20901
SWIDTH 960 0
DWIDTH 12 0
BBX 12 13 0 -2
BITMAP
0000
7FE0
8040
3F80
3F80
2080
3F80
0400
FFE0
1000
2180
C040
0000
ENDCHAR
STARTCHAR uni51A6
ENCODING 20902
SWIDTH 960 0
DWIDTH 12 0
BBX 12 13 0 -2
BITMAP
0000
7FE0
F940
39E0
0100
FFC0
7240
7180
71C0
5760
5020
8FE0
0000
ENDCHAR
STARTCHAR uni51A8
ENCODING 20904
SWIDTH 960 0
DWIDTH 12 0
BBX 12 13 0 -2
BITMAP
0000
7FE0
BFC0
1F00
1100
1F00
0000
3F80
2480
3F80
3F80
2080
0000
ENDCHAR
STARTCHAR uni51A9
ENCODING 20905
SWIDTH 960 0
DWIDTH 12 0
BBX 12 13 0 -2
BITMAP
0000
7FE0
FBC0
7380
7B80
6080
3F80
1000
FFC0
DD40
55C0
8180
0000
ENDCHAR
STARTCHAR uni51AA
ENCODING 20906
SWIDTH 960 0
DWIDTH 12 0
BBX 12 13 0 -2
BITMAP
0000
7FE0
FFC0
FFC0
3180
3F80
2180
3F80
FFE0
3F80
F5E0
2580
0000
ENDCHAR
STARTCHAR uni51AB
ENCODING 20907
SWIDTH 960 0
DWIDTH 12 0
BBX 12 13 0 -2
BITMAP
0000
0800
0400
0200
0000
0000
0000
0100
0200
0400
0800
0800
0000
ENDCHAR
STARTCHAR uni51AC
ENCODING 20908
SWIDTH 960 0
DWIDTH 12 0
BBX 12 13 0 -2
BITMAP
0400
0400
1F80
6900
0600
0D00
3080
CC60
0200
1C00
0200
0100
0000
ENDCHAR
STARTCHAR uni51B0
ENCODING 20912
SWIDTH 960 0
DWIDTH 12 0
BBX 12 13 0 -2
BITMAP
0100
0100
4100
7F20
03C0
0380
6580
4580
4940
9120
8100
0300
0000
ENDCHAR
STARTCHAR uni51B1
ENCODING 20913
SWIDTH 960 0
DWIDTH 12 0
BBX 12 13 0 -2
BITMAP
0000
3FE0
4800
6F80
0880
0880
6880
4F80
4880
8080
BFE0
0000
0000
ENDCHAR
STARTCHAR uni51B2
ENCODING 20914
SWIDTH 960 0
DWIDTH 12 0
BBX 12 13 0 -2
BITMAP
0080
0080
23E0
37E0
04A0
04A0
34A0
27E0
24A0
4080
4080
0080
0000
ENDCHAR
STARTCHAR uni51B3
ENCODING 20915
SWIDTH 960 0
DWIDTH 12 0
BBX 12 13 0 -2
BITMAP
0200
0200
4F80
6F80
0280
0280
7FE0
4300
4580
8880
9040
2020
0000
ENDCHAR
STARTCHAR uni51B4
ENCODING 20916
SWIDTH 960 0
DWIDTH 12 0
BBX 12 13 0 -2
BITMAP
0000
0FC0
4480
2480
0480
3FE0
2180
4180
4280
8C80
B080
0080
0000
ENDCHAR
STARTCHAR uni51B5
ENCODING 20917
SWIDTH 960 0
DWIDTH 12 0
BBX 12 13 0 -2
BITMAP
0000
0FC0
4840
6840
0FC0
0BC0
6380
4380
4580
89A0
91A0
20E0
0000
ENDCHAR
STARTCHAR uni51B6
ENCODING 20918
SWIDTH 960 0
DWIDTH 12 0
BBX 12 13 0 -2
BITMAP
0200
4200
2200
8480
44C0
1F20
2000
4FC0
4840
8840
8FC0
0840
0000
ENDCHAR
STARTCHAR uni51B7
ENCODING 20919
SWIDTH 960 0
DWIDTH 12 0
BBX 12 13 0 -2
BITMAP
0200
0200
4500
2880
17C0
2020
5FC0
4240
4240
83C0
8200
0200
0000
ENDCHAR
STARTCHAR uni51BD
ENCODING 20925
SWIDTH 960 0
DWIDTH 12 0
BBX 12 13 0 -2
BITMAP
0020
1FA0
24E0
37E0
09E0
09E0
35E0
26E0
22E0
4420
4820
1060
0000
ENDCHAR
STARTCHAR uni51C4
ENCODING 20932
SWIDTH 960 0
DWIDTH 12 0
BBX 12 13 0 -2
BITMAP
0200
3FE0
8F80
4280
3FE0
0280
4F80
4200
5FE0
8F80
8380
3C40
0000
ENDCHAR
STARTCHAR uni51C5
ENCODING 20933
SWIDTH 960 0
DWIDTH 12 0
BBX 12 13 0 -2
BITMAP
0000
0FE0
2920
3FE0
0920
0920
3BE0
2AE0
2BE0
4BA0
4FE0
0820
0000
ENDCHAR
STARTCHAR uni51C6
ENCODING 20934
SWIDTH 960 0
DWIDTH 12 0
BBX 12 13 0 -2
BITMAP
0480
0480
4FE0
2900
1900
2FC0
2900
4900
4FC0
8900
8FE0
0800
0000
ENDCHAR
STARTCHAR uni51C9
ENCODING 20937
SWIDTH 960 0
DWIDTH 12 0
BBX 12 13 0 -2
BITMAP
0100
0300
5FE0
6FC0
0840
0840
6FC0
4100
4940
9920
B120
0300
0000
ENDCHAR
STARTCHAR uni51CB
ENCODING 20939
SWIDTH 960 0
DWIDTH 12 0
BBX 12 13 0 -2
BITMAP
0000
0FE0
4920
2FA0
0920
0FE0
2820
2BA0
4AA0
4BA0
1020
1060
0000
ENDCHAR
STARTCHAR uni51CC
ENCODING 20940
SWIDTH 960 0
DWIDTH 12 0
BBX 12 13 0 -2
BITMAP
0100
0FC0
4100
3FE0
0280
04A0
5AE0
4380
8480
8B00
0280
1C60
0000
ENDCHAR
STARTCHAR uni51CD
ENCODING 20941
SWIDTH 960 0
DWIDTH 12 0
BBX 12 13 0 -2
BITMAP
0100
0100
5FE0
2FC0
0940
2FC0
2940
2FC0
4380
4540
5920
0100
0000
ENDCHAR
STARTCHAR uni51D6
ENCODING 20950
SWIDTH 960 0
DWIDTH 12 0
BBX 12 13 0 -2
BITMAP
0480
4580
6FC0
1F80
3B00
6F80
4900
4FC0
FFE0
FFE0
0400
0400
0000
ENDCHAR
STARTCHAR uni51DB
ENCODING 20955
SWIDTH 960 0
DWIDTH 12 0
BBX 12 13 0 -2
BITMAP
0100
1FE0
47C0
6FC0
0BC0
0BC0
6FC0
4780
4FE0
8FE0
8940
1140
0000
ENDCHAR
STARTCHAR uni51DD
ENCODING 20957
SWIDTH 960 0
DWIDTH 12 0
BBX 12 13 0 -2
BITMAP
1000
15E0
98C0
5E80
13E0
1EC0
2980
2BE0
7F80
8D80
9280
2460
0000
ENDCHAR
STARTCHAR uni51E0
ENCODING 20960
SWIDTH 960 0
DWIDTH 12 0
BBX 12 13 0 -2
BITMAP
0000
1F00
1100
1100
1100
1100
1100
1100
2100
2120
4120
81E0
0000
ENDCHAR
STARTCHAR uni51E1
ENCODING 20961
SWIDTH 960 0
DWIDTH 12 0
BBX 12 13 0 -2
BITMAP
0000
3F00
2100
2100
2900
2500
2500
2500
2100
4120
4120
80E0
0000
ENDCHAR
STARTCHAR uni51E6
ENCODING 20966
SWIDTH 960 0
DWIDTH 12 0
BBX 12 13 0 -2
BITMAP
2000
2380
3A80
2A80
4A80
6A80
AA80
1280
14A0
2860
4600
81E0
0000
ENDCHAR
STARTCHAR uni51E7
ENCODING 20967
SWIDTH 960 0
DWIDTH 12 0
BBX 12 13 0 -2
BITMAP
0000
7F80
4480
5F80
5580
5580
5580
5580
5780
44A0
4460
8420
0000
ENDCHAR
STARTCHAR uni51E9
ENCODING 20969
SWIDTH 960 0
DWIDTH 12 0
BBX 12 13 0 -2
BITMAP
0000
7F80
6480
6480
7F80
6480
6E80
6D80
7580
75E0
6460
8420
0000
ENDCHAR
STARTCHAR uni51EA
ENCODING 20970
SWIDTH 960 0
DWIDTH 12 0
BBX 12 13 0 -2
BITMAP
0000
7F80
4080
4480
5480
5780
5480
5480
5480
7FA0
4060
8020
0000
ENDCHAR
STARTCHAR uni51ED
ENCODING 20973
SWIDTH 960 0
DWIDTH 12 0
BBX 12 13 0 -2
BITMAP
20C0
2F00
6FE0
6FE0
E100
6FC0
0000
1F00
1100
1120
2120
41E0
0000
ENDCHAR
STARTCHAR uni51F0
ENCODING 20976
SWIDTH 960 0
DWIDTH 12 0
BBX 12 13 0 -2
BITMAP
0000
7F80
6E80
7F80
7F80
7180
7F80
6080
7F80
5E60
4460
BF20
0000
ENDCHAR
STARTCHAR uni51F1
ENCODING 20977
SWIDTH 960 0
DWIDTH 12 0
BBX 12 13 0 -2
BITMAP
2000
6B80
7A80
7A80
FA80
0280
7A80
4A80
7A80
52A0
7CA0
C860
0000
ENDCHAR
STARTCHAR uni51F5
ENCODING 20981
SWIDTH 960 0
DWIDTH 12 0
BBX 12 13 0 -2
BITMAP
4040
4040
4040
4040
4040
4040
4040
4040
4040
4040
7FC0
4040
0000
ENDCHAR
STARTCHAR uni51F6
ENCODING 20982
SWIDTH 960 0
DWIDTH 12 0
BBX 12 13 0 -2
BITMAP
0080
0080
5120
4D20
4220
4320
44A0
4860
5020
7FE0
4020
4020
0000
ENDCHAR
STARTCHAR uni51F8
ENCODING 20984
SWIDTH 960 0
DWIDTH 12 0
BBX 12 13 0 -2
BITMAP
0000
1F00
1100
1100
1100
71C0
5140
4040
4040
4040
7FC0
4040
0000
ENDCHAR
STARTCHAR uni51F9
ENCODING 20985
SWIDTH 960 0
DWIDTH 12 0
BBX 12 13 0 -2
BITMAP
0000
71C0
5140
5140
5140
5140
5F40
5140
4040
4040
7FC0
4040
0000
ENDCHAR
STARTCHAR uni51FA
ENCODING 20986
SWIDTH 960 0
DWIDTH 12 0
BBX 12 13 0 -2
BITMAP
0400
2480
2480
2480
3F80
2480
4440
4440
4440
7FC0
4040
4040
0000
ENDCHAR
STARTCHAR uni51FD
ENCODING 20989
SWIDTH 960 0
DWIDTH 12 0
BBX 12 13 0 -2
BITMAP
0000
3FC0
0400
4E20
42E0
53A0
56A0
4AE0
5220
4020
7FE0
4020
0000
ENDCHAR
STARTCHAR uni51FE
ENCODING 20990
SWIDTH 960 0
DWIDTH 12 0
BBX 12 13 0 -2
BITMAP
1F80
0180
4320
5BE0
7B60
7AE0
7AE0
7BE0
4B20
4C20
7FE0
4020
0000
ENDCHAR
STARTCHAR uni5200
ENCODING 20992
SWIDTH 960 0
DWIDTH 12 0
BBX 12 13 0 -2
BITMAP
0000
7FC0
0440
0440
0440
0840
0840
0840
1040
1040
2040
4080
0000
ENDCHAR
STARTCHAR uni5203
ENCODING 20995
SWIDTH 960 0
DWIDTH 12 0
BBX 12 13 0 -2
BITMAP
0000
7FE0
0420
0420
0420
1C20
0E20
0920
1020
1020
2020
40C0
0000
ENDCHAR
STARTCHAR uni5204
ENCODING 20996
SWIDTH 960 0
DWIDTH 12 0
BBX 12 13 0 -2
BITMAP
0000
FF80
0880
0880
4880
2880
1880
1680
11E0
20E0
4080
8700
0000
ENDCHAR
STARTCHAR uni5206
ENCODING 20998
SWIDTH 960 0
DWIDTH 12 0
BBX 12 13 0 -2
BITMAP
1F00
0100
2100
2080
4080
7FC0
88A0
0880
0880
1080
1080
2100
0000
ENDCHAR
STARTCHAR uni5207
ENCODING 20999
SWIDTH 960 0
DWIDTH 12 0
BBX 12 13 0 -2
BITMAP
1000
13E0
10A0
1CA0
70A0
10A0
10A0
1520
1D20
0220
0420
1840
0000
ENDCHAR
STARTCHAR uni5208
ENCODING 21000
SWIDTH 960 0
DWIDTH 12 0
BBX 12 13 0 -2
BITMAP
0420
04A0
04A0
24A0
18A0
08A0
0CA0
14A0
12A0
2020
2020
4060
0000
ENDCHAR
STARTCHAR uni520A
ENCODING 21002
SWIDTH 960 0
DWIDTH 12 0
BBX 12 13 0 -2
BITMAP
0020
7EA0
10A0
10A0
10A0
7EA0
10A0
10A0
10A0
1020
1020
1060
0000
ENDCHAR
STARTCHAR uni520B
ENCODING 21003
SWIDTH 960 0
DWIDTH 12 0
BBX 12 13 0 -2
BITMAP
0220
0CA0
38A0
08A0
08A0
7FA0
08A0
08A0
08A0
1020
1020
2060
0000
ENDCHAR
STARTCHAR uni520E
ENCODING 21006
SWIDTH 960 0
DWIDTH 12 0
BBX 12 13 0 -2
BITMAP
3020
30E0
3EE0
3FE0
35E0
55E0
35E0
29E0
09E0
1220
0220
0C60
0000
ENDCHAR
STARTCHAR uni5211
ENCODING 21009
SWIDTH 960 0
DWIDTH 12 0
BBX 12 13 0 -2
BITMAP
0020
3FA0
14A0
14A0
14A0
7FA0
14A0
14A0
14A0
2420
2420
4460
0000
ENDCHAR
STARTCHAR uni5214
ENCODING 21012
SWIDTH 960 0
DWIDTH 12 0
BBX 12 13 0 -2
BITMAP
1020
10A0
3CA0
3EA0
12A0
12A0
7FA0
18A0
1CA0
3220
2220
4060
0000
ENDCHAR
STARTCHAR uni5217
ENCODING 21015
SWIDTH 960 0
DWIDTH 12 0
BBX 12 13 0 -2
BITMAP
0020
7EA0
10A0
1CA0
14A0
24A0
34A0
4CA0
08A0
0820
1020
2060
0000
ENDCHAR
STARTCHAR uni521D
ENCODING 21021
SWIDTH 960 0
DWIDTH 12 0
BBX 12 13 0 -2
BITMAP
1000
13E0
7CA0
04A0
0AA0
12A0
3CA0
54A0
1320
1120
1220
1440
0000
ENDCHAR
STARTCHAR uni5224
ENCODING 21028
SWIDTH 960 0
DWIDTH 12 0
BBX 12 13 0 -2
BITMAP
1020
52A0
32A0
10A0
7EA0
10A0
10A0
7EA0
10A0
1020
1020
1060
0000
ENDCHAR
STARTCHAR uni5225
ENCODING 21029
SWIDTH 960 0
DWIDTH 12 0
BBX 12 13 0 -2
BITMAP
0020
3EA0
22A0
22A0
3EA0
32A0
10A0
1EA0
12A0
1220
2220
4C60
0000
ENDCHAR
STARTCHAR uni5227
ENCODING 21031
SWIDTH 960 0
DWIDTH 12 0
BBX 12 13 0 -2
BITMAP
0820
08A0
3CA0
3CA0
08A0
7FA0
10A0
14A0
12A0
3F20
7120
0060
0000
ENDCHAR
STARTCHAR uni5229
ENCODING 21033
SWIDTH 960 0
DWIDTH 12 0
BBX 12 13 0 -2
BITMAP
0220
0CA0
38A0
08A0
7EA0
18A0
1CA0
3AA0
2AA0
4820
0820
0860
0000
ENDCHAR
STARTCHAR uni522A
ENCODING 21034
SWIDTH 960 0
DWIDTH 12 0
BBX 12 13 0 -2
BITMAP
0020
3FE0
35E0
35E0
35E0
7FE0
35E0
35E0
35E0
3520
3520
2360
0000
ENDCHAR
STARTCHAR uni522E
ENCODING 21038
SWIDTH 960 0
DWIDTH 12 0
BBX 12 13 0 -2
BITMAP
0220
0CA0
38A0
08A0
7FA0
08A0
08A0
3EA0
22A0
2220
3E20
2060
0000
ENDCHAR
STARTCHAR uni5230
ENCODING 21040
SWIDTH 960 0
DWIDTH 12 0
BBX 12 13 0 -2
BITMAP
0020
7FA0
10A0
24A0
7AA0
12A0
10A0
7EA0
10A0
1E20
7020
0060
0000
ENDCHAR
STARTCHAR uni5233
ENCODING 21043
SWIDTH 960 0
DWIDTH 12 0
BBX 12 13 0 -2
BITMAP
1020
18A0
7EA0
24A0
7AA0
00A0
7EA0
30A0
3CA0
0420
0420
1860
0000
ENDCHAR
STARTCHAR uni5236
ENCODING 21046
SWIDTH 960 0
DWIDTH 12 0
BBX 12 13 0 -2
BITMAP
2820
28A0
3EA0
48A0
7FA0
08A0
3EA0
2AA0
2AA0
2CA0
2820
0860
0000
ENDCHAR
STARTCHAR uni5237
ENCODING 21047
SWIDTH 960 0
DWIDTH 12 0
BBX 12 13 0 -2
BITMAP
0020
3EA0
22A0
3EA0
28A0
28A0
3EA0
6AA0
6AA0
2E20
2820
0860
0000
ENDCHAR
STARTCHAR uni5238
ENCODING 21048
SWIDTH 960 0
DWIDTH 12 0
BBX 12 13 0 -2
BITMAP
0400
2480
7FC0
0A00
FFE0
1100
2080
FFE0
0880
0880
1080
6300
0000
ENDCHAR
STARTCHAR uni5239
ENCODING 21049
SWIDTH 960 0
DWIDTH 12 0
BBX 12 13 0 -2
BITMAP
0420
04A0
3CA0
1EA0
68A0
08A0
7EA0
18A0
1CA0
2A20
4820
0860
0000
ENDCHAR
STARTCHAR uni523A
ENCODING 21050
SWIDTH 960 0
DWIDTH 12 0
BBX 12 13 0 -2
BITMAP
0820
08A0
7FA0
3EA0
2AA0
2AA0
2EA0
18A0
1CA0
2A20
4820
0860
0000
ENDCHAR
STARTCHAR uni523B
ENCODING 21051
SWIDTH 960 0
DWIDTH 12 0
BBX 12 13 0 -2
BITMAP
0820
0820
7FA0
14A0
24A0
18A0
0AA0
12A0
2420
0C20
1220
6060
0000
ENDCHAR
STARTCHAR uni5243
ENCODING 21059
SWIDTH 960 0
DWIDTH 12 0
BBX 12 13 0 -2
BITMAP
2420
14A0
7EA0
12A0
7EA0
50A0
7EA0
12A0
32A0
5C20
1020
1060
0000
ENDCHAR
STARTCHAR uni5244
ENCODING 21060
SWIDTH 960 0
DWIDTH 12 0
BBX 12 13 0 -2
BITMAP
0020
7EA0
34A0
7CA0
78A0
34A0
34A0
00A0
7EA0
1020
1E20
7060
0000
ENDCHAR
STARTCHAR uni5247
ENCODING 21063
SWIDTH 960 0
DWIDTH 12 0
BBX 12 13 0 -2
BITMAP
0020
3CA0
24A0
3CA0
24A0
3CA0
24A0
24A0
3CA0
1820
2420
4060
0000
ENDCHAR
STARTCHAR uni524A
ENCODING 21066
SWIDTH 960 0
DWIDTH 12 0
BBX 12 13 0 -2
BITMAP
1020
52A0
32A0
10A0
3CA0
24A0
3CA0
24A0
3CA0
2420
2420
2C60
0000
ENDCHAR
STARTCHAR uni524B
ENCODING 21067
SWIDTH 960 0
DWIDTH 12 0
BBX 12 13 0 -2
BITMAP
2040
2140
F940
F940
7940
4940
4940
7940
7040
7060
5020
8FE0
0000
ENDCHAR
STARTCHAR uni524C
ENCODING 21068
SWIDTH 960 0
DWIDTH 12 0
BBX 12 13 0 -2
BITMAP
1020
18A0
7EA0
7EA0
5AA0
52A0
7EA0
58A0
34A0
3220
5020
1060
0000
ENDCHAR
STARTCHAR uni524D
ENCODING 21069
SWIDTH 960 0
DWIDTH 12 0
BBX 12 13 0 -2
BITMAP
2080
1100
FFE0
0000
7940
4940
7940
4940
7940
4940
4840
58C0
0000
ENDCHAR
STARTCHAR uni524F
ENCODING 21071
SWIDTH 960 0
DWIDTH 12 0
BBX 12 13 0 -2
BITMAP
4800
6800
FFC0
F940
7540
7340
FD40
71C0
7260
5260
5440
9880
0000
ENDCHAR
STARTCHAR uni5254
ENCODING 21076
SWIDTH 960 0
DWIDTH 12 0
BBX 12 13 0 -2
BITMAP
0020
3EA0
3EA0
3EA0
3EA0
30A0
3EA0
76A0
5EA0
2A20
1A20
1C60
0000
ENDCHAR
STARTCHAR uni5256
ENCODING 21078
SWIDTH 960 0
DWIDTH 12 0
BBX 12 13 0 -2
BITMAP
0820
08A0
3FA0
12A0
14A0
7FA0
00A0
1EA0
12A0
1220
1E20
1260
0000
ENDCHAR
STARTCHAR uni525B
ENCODING 21083
SWIDTH 960 0
DWIDTH 12 0
BBX 12 13 0 -2
BITMAP
0020
7EA0
66A0
6AA0
7EA0
52A0
76A0
76A0
76A0
7E20
4220
4660
0000
ENDCHAR
STARTCHAR uni525E
ENCODING 21086
SWIDTH 960 0
DWIDTH 12 0
BBX 12 13 0 -2
BITMAP
0820
09A0
7FA0
1CA0
24A0
7FA0
02A0
3AA0
2AA0
3A20
2220
0660
0000
ENDCHAR
STARTCHAR uni5263
ENCODING 21091
SWIDTH 960 0
DWIDTH 12 0
BBX 12 13 0 -2
BITMAP
0820
0820
14A0
7FA0
08A0
3EA0
2AA0
3EA0
0CA0
1220
1220
6060
0000
ENDCHAR
STARTCHAR uni5264
ENCODING 21092
SWIDTH 960 0
DWIDTH 12 0
BBX 12 13 0 -2
BITMAP
0820
08A0
7FA0
14A0
1FA0
72A0
1EA0
12A0
1EA0
1220
2220
4260
0000
ENDCHAR
STARTCHAR uni5265
ENCODING 21093
SWIDTH 960 0
DWIDTH 12 0
BBX 12 13 0 -2
BITMAP
0020
3CA0
04A0
3CA0
7FA0
08A0
2AA0
1AA0
2CA0
4B20
0820
1860
0000
ENDCHAR
STARTCHAR uni5269
ENCODING 21097
SWIDTH 960 0
DWIDTH 12 0
BBX 12 13 0 -2
BITMAP
0120
3EE0
7FE0
7FE0
7BE0
3AE0
3AE0
59E0
1CE0
2B20
4920
0860
0000
ENDCHAR
STARTCHAR uni526A
ENCODING 21098
SWIDTH 960 0
DWIDTH 12 0
BBX 12 13 0 -2
BITMAP
2100
1300
FFE0
7940
7940
6940
6940
58C0
FFC0
FFC0
3040
E180
0000
ENDCHAR
STARTCHAR uni526F
ENCODING 21103
SWIDTH 960 0
DWIDTH 12 0
BBX 12 13 0 -2
BITMAP
0020
7EA0
3CA0
24A0
3CA0
00A0
7EA0
52A0
7EA0
5220
7E20
4260
0000
ENDCHAR
STARTCHAR uni5270
ENCODING 21104
SWIDTH 960 0
DWIDTH 12 0
BBX 12 13 0 -2
BITMAP
0220
1CA0
7EA0
2AA0
7FA0
2AA0
2AA0
7FA0
1CA0
2A20
4820
0860
0000
ENDCHAR
STARTCHAR uni5271
ENCODING 21105
SWIDTH 960 0
DWIDTH 12 0
BBX 12 13 0 -2
BITMAP
2000
37C0
7940
7940
B540
7B40
6940
79C0
7A60
6A60
4C40
8880
0000
ENDCHAR
STARTCHAR uni5272
ENCODING 21106
SWIDTH 960 0
DWIDTH 12 0
BBX 12 13 0 -2
BITMAP
1020
7EA0
52A0
7CA0
3CA0
10A0
7EA0
00A0
3CA0
2420
3C20
2460
0000
ENDCHAR
STARTCHAR uni5273
ENCODING 21107
SWIDTH 960 0
DWIDTH 12 0
BBX 12 13 0 -2
BITMAP
3420
35A0
7FA0
3CA0
1CA0
12A0
3FA0
60A0
7EA0
3220
3E20
3060
0000
ENDCHAR
STARTCHAR uni5274
ENCODING 21108
SWIDTH 960 0
DWIDTH 12 0
BBX 12 13 0 -2
BITMAP
1020
34A0
3CA0
3CA0
7EA0
00A0
3CA0
24A0
3CA0
2C20
3C20
7060
0000
ENDCHAR
STARTCHAR uni5275
ENCODING 21109
SWIDTH 960 0
DWIDTH 12 0
BBX 12 13 0 -2
BITMAP
0820
0CA0
1AA0
3FA0
52A0
1EA0
12A0
1EA0
20A0
3E20
5E20
1260
0000
ENDCHAR
STARTCHAR uni527D
ENCODING 21117
SWIDTH 960 0
DWIDTH 12 0
BBX 12 13 0 -2
BITMAP
0020
7EA0
7CA0
7EA0
7EA0
00A0
3CA0
00A0
7EA0
3220
5220
1060
0000
ENDCHAR
STARTCHAR uni527F
ENCODING 21119
SWIDTH 960 0
DWIDTH 12 0
BBX 12 13 0 -2
BITMAP
2920
5AE0
3FE0
3FE0
3FE0
29E0
3FE0
08E0
7FE0
1E20
6920
0860
0000
ENDCHAR
STARTCHAR uni5283
ENCODING 21123
SWIDTH 960 0
DWIDTH 12 0
BBX 12 13 0 -2
BITMAP
0820
3EA0
7FA0
7FA0
3EA0
3EA0
7FA0
3EA0
3EA0
3E20
0E20
7060
0000
ENDCHAR
STARTCHAR uni5287
ENCODING 21127
SWIDTH 960 0
DWIDTH 12 0
BBX 12 13 0 -2
BITMAP
0820
0EA0
3EA0
2EA0
3EA0
2CA0
38A0
2EA0
3E20
3D20
4420
1860
0000
ENDCHAR
STARTCHAR uni5288
ENCODING 21128
SWIDTH 960 0
DWIDTH 12 0
BBX 12 13 0 -2
BITMAP
0180
7980
7BC0
7FE0
7980
6BC0
F980
6180
7FC0
0840
3040
6180
0000
ENDCHAR
STARTCHAR uni5289
ENCODING 21129
SWIDTH 960 0
DWIDTH 12 0
BBX 12 13 0 -2
BITMAP
2020
7EA0
6AA0
7AA0
D6A0
28A0
7CA0
92A0
7FA0
3820
1E20
E060
0000
ENDCHAR
STARTCHAR uni528D
ENCODING 21133
SWIDTH 960 0
DWIDTH 12 0
BBX 12 13 0 -2
BITMAP
0820
08A0
14A0
3EA0
40A0
3EA0
3AA0
3EA0
34A0
3E20
2920
5160
0000
ENDCHAR
STARTCHAR uni5291
ENCODING 21137
SWIDTH 960 0
DWIDTH 12 0
BBX 12 13 0 -2
BITMAP
0820
7FE0
7FE0
7FE0
3DE0
3EE0
72E0
3EE0
3EE0
3E20
2220
4260
0000
ENDCHAR
STARTCHAR uni5292
ENCODING 21138
SWIDTH 960 0
DWIDTH 12 0
BBX 12 13 0 -2
BITMAP
0800
09E0
14E0
3EE0
40E0
3FE0
3BE0
3EE0
34A0
3EA0
2B20
5240
0000
ENDCHAR
STARTCHAR uni5294
ENCODING 21140
SWIDTH 960 0
DWIDTH 12 0
BBX 12 13 0 -2
BITMAP
1000
13C0
2DC0
7FC0
83C0
7DC0
75C0
7DC0
6960
7D60
5640
A480
0000
ENDCHAR
STARTCHAR uni529B
ENCODING 21147
SWIDTH 960 0
DWIDTH 12 0
BBX 12 13 0 -2
BITMAP
0400
0400
0400
7FE0
0420
0420
0420
0820
0820
1020
2020
4040
0000
ENDCHAR
STARTCHAR uni529F
ENCODING 21151
SWIDTH 960 0
DWIDTH 12 0
BBX 12 13 0 -2
BITMAP
0100
0100
7900
1100
17E0
1120
1120
1120
1A20
6220
0420
0840
0000
ENDCHAR
STARTCHAR uni52A0
ENCODING 21152
SWIDTH 960 0
DWIDTH 12 0
BBX 12 13 0 -2
BITMAP
2000
2000
21E0
FD20
2520
2520
2520
2520
2520
45E0
4520
9800
0000
ENDCHAR
STARTCHAR uni52A3
ENCODING 21155
SWIDTH 960 0
DWIDTH 12 0
BBX 12 13 0 -2
BITMAP
0400
2480
24C0
4D20
0620
1A00
E200
3FC0
0440
0840
3040
C080
0000
ENDCHAR
STARTCHAR uni52A9
ENCODING 21161
SWIDTH 960 0
DWIDTH 12 0
BBX 12 13 0 -2
BITMAP
0080
3880
2880
3FE0
28A0
28A0
38A0
28A0
2D20
3120
4220
0440
0000
ENDCHAR
STARTCHAR uni52AA
ENCODING 21162
SWIDTH 960 0
DWIDTH 12 0
BBX 12 13 0 -2
BITMAP
2000
27C0
FA40
2940
7180
1A80
2460
C400
7F80
0880
1080
2380
0000
ENDCHAR
STARTCHAR uni52AB
ENCODING 21163
SWIDTH 960 0
DWIDTH 12 0
BBX 12 13 0 -2
BITMAP
1080
1080
3C80
13E0
10A0
7EA0
10A0
18A0
2520
3F20
6220
0440
0000
ENDCHAR
STARTCHAR uni52AC
ENCODING 21164
SWIDTH 960 0
DWIDTH 12 0
BBX 12 13 0 -2
BITMAP
3080
3080
3C80
3FE0
25A0
74A0
34A0
34A0
3520
3520
0620
1C40
0000
ENDCHAR
STARTCHAR uni52AD
ENCODING 21165
SWIDTH 960 0
DWIDTH 12 0
BBX 12 13 0 -2
BITMAP
0080
7C80
3480
37E0
25A0
58A0
00A0
3CA0
2520
2520
3E20
2440
0000
ENDCHAR
STARTCHAR uni52B1
ENCODING 21169
SWIDTH 960 0
DWIDTH 12 0
BBX 12 13 0 -2
BITMAP
0680
7880
4080
7FE0
50A0
50A0
5CA0
54A0
5520
5520
6620
8CC0
0000
ENDCHAR
STARTCHAR uni52B4
ENCODING 21172
SWIDTH 960 0
DWIDTH 12 0
BBX 12 13 0 -2
BITMAP
2880
1500
7FE0
4440
8400
0400
7F80
0480
0880
0880
1080
6180
0000
ENDCHAR
STARTCHAR uni52B5
ENCODING 21173
SWIDTH 960 0
DWIDTH 12 0
BBX 12 13 0 -2
BITMAP
0400
2480
3FC0
7FC0
0A00
FFE0
1900
3980
FFE0
99A0
3180
2300
0000
ENDCHAR
STARTCHAR uni52B9
ENCODING 21177
SWIDTH 960 0
DWIDTH 12 0
BBX 12 13 0 -2
BITMAP
1080
1080
7C80
0BE0
24A0
26A0
54A0
18A0
0920
1520
2220
4440
0000
ENDCHAR
STARTCHAR uni52BC
ENCODING 21180
SWIDTH 960 0
DWIDTH 12 0
BBX 12 13 0 -2
BITMAP
1080
1080
7C80
7FE0
11A0
3CA0
00A0
3CA0
2520
2520
3E20
2440
0000
ENDCHAR
STARTCHAR uni52BE
ENCODING 21182
SWIDTH 960 0
DWIDTH 12 0
BBX 12 13 0 -2
BITMAP
1080
1080
7E80
13E0
68A0
28A0
14A0
24A0
0920
1520
2220
4440
0000
ENDCHAR
STARTCHAR uni52C1
ENCODING 21185
SWIDTH 960 0
DWIDTH 12 0
BBX 12 13 0 -2
BITMAP
0080
7E80
3480
7FE0
79A0
34A0
34A0
00A0
7EA0
1120
1D20
7240
0000
ENDCHAR
STARTCHAR uni52C3
ENCODING 21187
SWIDTH 960 0
DWIDTH 12 0
BBX 12 13 0 -2
BITMAP
1080
7C80
1080
3FE0
44A0
7CA0
08A0
10A0
1D20
7120
1220
1440
0000
ENDCHAR
STARTCHAR uni52C5
ENCODING 21189
SWIDTH 960 0
DWIDTH 12 0
BBX 12 13 0 -2
BITMAP
1080
1080
7E80
11E0
3CA0
34A0
3CA0
18A0
3520
5120
1220
1440
0000
ENDCHAR
STARTCHAR uni52C7
ENCODING 21191
SWIDTH 960 0
DWIDTH 12 0
BBX 12 13 0 -2
BITMAP
3F00
1E00
3F80
2480
3F80
2480
3F80
0400
7FC0
0840
1040
6180
0000
ENDCHAR
STARTCHAR uni52C9
ENCODING 21193
SWIDTH 960 0
DWIDTH 12 0
BBX 12 13 0 -2
BITMAP
2100
3100
5900
B7C0
7940
6940
7940
7240
3440
38C0
5020
8FE0
0000
ENDCHAR
STARTCHAR uni52CD
ENCODING 21197
SWIDTH 960 0
DWIDTH 12 0
BBX 12 13 0 -2
BITMAP
1080
1880
7E80
3FE0
25A0
24A0
3CA0
18A0
3D20
3520
5220
1440
0000
ENDCHAR
STARTCHAR uni52D2
ENCODING 21202
SWIDTH 960 0
DWIDTH 12 0
BBX 12 13 0 -2
BITMAP
3880
3880
7E80
3BE0
19A0
3CA0
34A0
3CA0
7F20
7F20
1220
1440
0000
ENDCHAR
STARTCHAR uni52D5
ENCODING 21205
SWIDTH 960 0
DWIDTH 12 0
BBX 12 13 0 -2
BITMAP
0C80
3080
7C80
3FE0
34A0
3CA0
34A0
3CA0
1120
3D20
1E20
7440
0000
ENDCHAR
STARTCHAR uni52D7
ENCODING 21207
SWIDTH 960 0
DWIDTH 12 0
BBX 12 13 0 -2
BITMAP
0000
3FC0
3FC0
3FC0
3FC0
3C80
2480
3FE0
3CA0
3D20
3F20
6240
0000
ENDCHAR
STARTCHAR uni52D8
ENCODING 21208
SWIDTH 960 0
DWIDTH 12 0
BBX 12 13 0 -2
BITMAP
2480
2480
7FE0
3CA0
24A0
3CA0
24A0
7FA0
38A0
3D20
3F20
2240
0000
ENDCHAR
STARTCHAR uni52D9
ENCODING 21209
SWIDTH 960 0
DWIDTH 12 0
BBX 12 13 0 -2
BITMAP
0200
7A00
33E0
2E80
F900
3280
6C60
6100
AFC0
2240
2440
2880
0000
ENDCHAR
STARTCHAR uni52DD
ENCODING 21213
SWIDTH 960 0
DWIDTH 12 0
BBX 12 13 0 -2
BITMAP
0100
7540
5FE0
5280
7FE0
5280
5540
7920
5FE0
5240
5440
B8C0
0000
ENDCHAR
STARTCHAR uni52DE
ENCODING 21214
SWIDTH 960 0
DWIDTH 12 0
BBX 12 13 0 -2
BITMAP
2180
31C0
6BC0
E780
7180
4A40
7FE0
C840
BF80
1880
3080
6180
0000
ENDCHAR
STARTCHAR uni52DF
ENCODING 21215
SWIDTH 960 0
DWIDTH 12 0
BBX 12 13 0 -2
BITMAP
1100
FFE0
1100
3F80
3F80
2080
3F80
FFE0
2880
DF60
0900
3300
0000
ENDCHAR
STARTCHAR uni52E0
ENCODING 21216
SWIDTH 960 0
DWIDTH 12 0
BBX 12 13 0 -2
BITMAP
0080
7E80
7E80
7FE0
5BA0
14A0
62A0
1AA0
3D20
3D20
1A20
3440
0000
ENDCHAR
STARTCHAR uni52E2
ENCODING 21218
SWIDTH 960 0
DWIDTH 12 0
BBX 12 13 0 -2
BITMAP
2100
7900
2780
F980
7780
F980
22A0
FC60
0800
7F80
1080
6380
0000
ENDCHAR
STARTCHAR uni52E3
ENCODING 21219
SWIDTH 960 0
DWIDTH 12 0
BBX 12 13 0 -2
BITMAP
1080
7E80
3C80
3DE0
7FA0
3CA0
24A0
3CA0
3CA0
3D20
3520
6240
0000
ENDCHAR
STARTCHAR uni52E4
ENCODING 21220
SWIDTH 960 0
DWIDTH 12 0
BBX 12 13 0 -2
BITMAP
2880
7E80
2880
3FE0
34A0
3CA0
10A0
3CA0
10A0
3D20
1D20
6240
0000
ENDCHAR
STARTCHAR uni52E6
ENCODING 21222
SWIDTH 960 0
DWIDTH 12 0
BBX 12 13 0 -2
BITMAP
3480
7880
3C80
3FE0
3DA0
34A0
3CA0
18A0
7D20
3D20
5220
1440
0000
ENDCHAR
STARTCHAR uni52E7
ENCODING 21223
SWIDTH 960 0
DWIDTH 12 0
BBX 12 13 0 -2
BITMAP
2080
2080
3FE0
7EA0
38A0
3EA0
68A0
3EA0
3CA0
3F20
3F20
2240
0000
ENDCHAR
STARTCHAR uni52F2
ENCODING 21234
SWIDTH 960 0
DWIDTH 12 0
BBX 12 13 0 -2
BITMAP
0900
F100
F900
7FC0
7940
6940
7940
FA40
3EC0
E080
5240
8920
0000
ENDCHAR
STARTCHAR uni52F3
ENCODING 21235
SWIDTH 960 0
DWIDTH 12 0
BBX 12 13 0 -2
BITMAP
0C80
7880
7E80
7FE0
7FA0
7AA0
7EA0
18A0
7EA0
7D20
7D20
7A40
0000
ENDCHAR
STARTCHAR uni52F5
ENCODING 21237
SWIDTH 960 0
DWIDTH 12 0
BBX 12 13 0 -2
BITMAP
00C0
3FC0
3EC0
3FE0
3FE0
35E0
3FE0
3DE0
3FE0
3FE0
3FA0
71E0
0000
ENDCHAR
STARTCHAR uni52F8
ENCODING 21240
SWIDTH 960 0
DWIDTH 12 0
BBX 12 13 0 -2
BITMAP
3880
7E80
7C80
7FE0
7FA0
28A0
3EA0
68A0
7CA0
3D20
2920
3E40
0000
ENDCHAR
STARTCHAR uni52F9
ENCODING 21241
SWIDTH 960 0
DWIDTH 12 0
BBX 12 13 0 -2
BITMAP
1000
1000
1FE0
1FE0
3020
2020
4020
0020
0020
0020
0060
00C0
0000
ENDCHAR
STARTCHAR uni52FA
ENCODING 21242
SWIDTH 960 0
DWIDTH 12 0
BBX 12 13 0 -2
BITMAP
1000
1000
1FE0
1020
2020
2820
4420
0220
0220
0020
0020
0040
0000
ENDCHAR
STARTCHAR uni52FE
ENCODING 21246
SWIDTH 960 0
DWIDTH 12 0
BBX 12 13 0 -2
BITMAP
1000
1000
1FE0
2020
2420
4420
0A20
0920
13A0
3C20
0020
0040
0000
ENDCHAR
STARTCHAR uni52FF
ENCODING 21247
SWIDTH 960 0
DWIDTH 12 0
BBX 12 13 0 -2
BITMAP
1000
1000
1FE0
14A0
14A0
24A0
48A0
0920
1120
0220
0420
0040
0000
ENDCHAR
STARTCHAR uni5301
ENCODING 21249
SWIDTH 960 0
DWIDTH 12 0
BBX 12 13 0 -2
BITMAP
1000
1000
1FC0
1240
1A40
2640
2240
45C0
0460
0840
1040
0180
0000
ENDCHAR
STARTCHAR uni5302
ENCODING 21250
SWIDTH 960 0
DWIDTH 12 0
BBX 12 13 0 -2
BITMAP
1000
1000
1FE0
2020
3020
5320
1C20
1020
10A0
0FA0
0020
0040
0000
ENDCHAR
STARTCHAR uni5305
ENCODING 21253
SWIDTH 960 0
DWIDTH 12 0
BBX 12 13 0 -2
BITMAP
2000
2000
3FC0
4040
7E40
8240
0240
7E40
4280
4020
4020
3FE0
0000
ENDCHAR
STARTCHAR uni5306
ENCODING 21254
SWIDTH 960 0
DWIDTH 12 0
BBX 12 13 0 -2
BITMAP
1000
1000
1FE0
1FE0
34A0
3CA0
4BA0
09A0
1120
0220
0460
00C0
0000
ENDCHAR
STARTCHAR uni5308
ENCODING 21256
SWIDTH 960 0
DWIDTH 12 0
BBX 12 13 0 -2
BITMAP
1000
1000
1FE0
1FE0
3220
32A0
7EA0
37A0
39A0
3FA0
31A0
00C0
0000
ENDCHAR
STARTCHAR uni530D
ENCODING 21261
SWIDTH 960 0
DWIDTH 12 0
BBX 12 13 0 -2
BITMAP
1000
1800
3FE0
3FA0
4420
1FA0
34A0
3FA0
3FA0
3FA0
35A0
00C0
0000
ENDCHAR
STARTCHAR uni530F
ENCODING 21263
SWIDTH 960 0
DWIDTH 12 0
BBX 12 13 0 -2
BITMAP
2100
3100
FFC0
6BC0
7F40
83C0
FBC0
63C0
7A80
0A20
0A20
31E0
0000
ENDCHAR
STARTCHAR uni5310
ENCODING 21264
SWIDTH 960 0
DWIDTH 12 0
BBX 12 13 0 -2
BITMAP
1000
1800
3FE0
3F20
5F20
1120
1F20
3FA0
3FA0
3FA0
3FA0
30C0
0000
ENDCHAR
STARTCHAR uni5315
ENCODING 21269
SWIDTH 960 0
DWIDTH 12 0
BBX 12 13 0 -2
BITMAP
6000
6000
6040
6080
6300
6C00
7000
E000
6000
6020
2020
1FE0
0000
ENDCHAR
STARTCHAR uni5316
ENCODING 21270
SWIDTH 960 0
DWIDTH 12 0
BBX 12 13 0 -2
BITMAP
1200
1200
1240
2240
2280
6300
A200
2200
2200
2220
2220
21E0
0000
ENDCHAR
STARTCHAR uni5317
ENCODING 21271
SWIDTH 960 0
DWIDTH 12 0
BBX 12 13 0 -2
BITMAP
1200
1200
1240
F240
1280
1300
1200
1200
3200
D220
1220
11E0
0000
ENDCHAR
STARTCHAR uni5319
ENCODING 21273
SWIDTH 960 0
DWIDTH 12 0
BBX 12 13 0 -2
BITMAP
0100
7D00
4500
7D40
7D40
0180
FF00
1100
5D20
71E0
5800
87E0
0000
ENDCHAR
STARTCHAR uni531A
ENCODING 21274
SWIDTH 960 0
DWIDTH 12 0
BBX 12 13 0 -2
BITMAP
0000
7FC0
4000
4000
4000
4000
4000
4000
4000
4000
7FE0
4000
0000
ENDCHAR
STARTCHAR uni531D
ENCODING 21277
SWIDTH 960 0
DWIDTH 12 0
BBX 12 13 0 -2
BITMAP
0000
7FE0
4200
5F80
5280
5280
5280
5280
5380
4200
7FE0
4000
0000
ENDCHAR
STARTCHAR uni5320
ENCODING 21280
SWIDTH 960 0
DWIDTH 12 0
BBX 12 13 0 -2
BITMAP
0000
7FC0
4300
5C00
5000
5FC0
5100
5100
6100
6100
7FE0
4000
0000
ENDCHAR
STARTCHAR uni5321
ENCODING 21281
SWIDTH 960 0
DWIDTH 12 0
BBX 12 13 0 -2
BITMAP
0000
7FE0
4000
5FC0
4200
5F80
4200
4200
5FC0
4000
7FE0
4000
0000
ENDCHAR
STARTCHAR uni5323
ENCODING 21283
SWIDTH 960 0
DWIDTH 12 0
BBX 12 13 0 -2
BITMAP
0000
7FC0
4F80
5F80
5F80
5280
5F80
5280
4200
4200
7FE0
4000
0000
ENDCHAR
STARTCHAR uni532A
ENCODING 21290
SWIDTH 960 0
DWIDTH 12 0
BBX 12 13 0 -2
BITMAP
0000
7FE0
4500
5DC0
4500
7DC0
4500
7DC0
4900
5100
7FE0
4000
0000
ENDCHAR
STARTCHAR uni532F
ENCODING 21295
SWIDTH 960 0
DWIDTH 12 0
BBX 12 13 0 -2
BITMAP
0000
7FC0
5280
57C0
7D80
67C0
4580
57C0
57C0
67C0
7FE0
4000
0000
ENDCHAR
STARTCHAR uni5331
ENCODING 21297
SWIDTH 960 0
DWIDTH 12 0
BBX 12 13 0 -2
BITMAP
0000
7FE0
4F80
5F80
7FE0
5F80
5080
5F80
5F80
5FC0
7FE0
4000
0000
ENDCHAR
STARTCHAR uni5333
ENCODING 21299
SWIDTH 960 0
DWIDTH 12 0
BBX 12 13 0 -2
BITMAP
0000
7FC0
4600
5F80
7040
5D80
5580
5D80
4980
5640
7FE0
4000
0000
ENDCHAR
STARTCHAR uni5338
ENCODING 21304
SWIDTH 960 0
DWIDTH 12 0
BBX 12 13 0 -2
BITMAP
0000
FFE0
6000
6000
6000
6000
6000
6000
6000
2000
1FC0
0000
0000
ENDCHAR
STARTCHAR uni5339
ENCODING 21305
SWIDTH 960 0
DWIDTH 12 0
BBX 12 13 0 -2
BITMAP
0000
7FC0
4900
4900
4900
4900
5140
5140
60C0
4000
7FE0
4000
0000
ENDCHAR
STARTCHAR uni533A
ENCODING 21306
SWIDTH 960 0
DWIDTH 12 0
BBX 12 13 0 -2
BITMAP
0000
7FC0
4080
4100
7100
4E00
4200
4500
4880
5000
7FE0
4000
0000
ENDCHAR
STARTCHAR uni533B
ENCODING 21307
SWIDTH 960 0
DWIDTH 12 0
BBX 12 13 0 -2
BITMAP
0000
7FC0
4800
4F80
5200
6200
7FC0
4500
4480
5880
7FE0
4000
0000
ENDCHAR
STARTCHAR uni533F
ENCODING 21311
SWIDTH 960 0
DWIDTH 12 0
BBX 12 13 0 -2
BITMAP
0000
7FC0
4900
5F80
4400
7FC0
4800
5F80
6880
4F80
7FE0
4000
0000
ENDCHAR
STARTCHAR uni5340
ENCODING 21312
SWIDTH 960 0
DWIDTH 12 0
BBX 12 13 0 -2
BITMAP
0000
FFC0
4700
4F80
4F80
4000
7DC0
7540
7DC0
4000
7FE0
4000
0000
ENDCHAR
STARTCHAR uni5341
ENCODING 21313
SWIDTH 960 0
DWIDTH 12 0
BBX 12 13 0 -2
BITMAP
0400
0400
0400
0400
0400
FFE0
0400
0400
0400
0400
0400
0400
0000
ENDCHAR
STARTCHAR uni5343
ENCODING 21315
SWIDTH 960 0
DWIDTH 12 0
BBX 12 13 0 -2
BITMAP
0100
0200
3C00
0400
0400
FFE0
0400
0400
0400
0400
0400
0400
0000
ENDCHAR
STARTCHAR uni5345
ENCODING 21317
SWIDTH 960 0
DWIDTH 12 0
BBX 12 13 0 -2
BITMAP
6480
6480
6480
6480
6480
FFE0
6480
6480
6480
4480
4480
8080
0000
ENDCHAR
STARTCHAR uni5346
ENCODING 21318
SWIDTH 960 0
DWIDTH 12 0
BBX 12 13 0 -2
BITMAP
0800
0800
7F00
1120
3120
25E0
4400
0400
FFE0
0400
0400
0400
0000
ENDCHAR
STARTCHAR uni5347
ENCODING 21319
SWIDTH 960 0
DWIDTH 12 0
BBX 12 13 0 -2
BITMAP
0500
1900
7100
1100
1100
FFE0
1100
1100
2100
2100
4100
8100
0000
ENDCHAR
STARTCHAR uni5348
ENCODING 21320
SWIDTH 960 0
DWIDTH 12 0
BBX 12 13 0 -2
BITMAP
2000
2000
3F80
4400
4400
0400
FFE0
0400
0400
0400
0400
0400
0000
ENDCHAR
STARTCHAR uni5349
ENCODING 21321
SWIDTH 960 0
DWIDTH 12 0
BBX 12 13 0 -2
BITMAP
0400
0400
7FC0
7FC0
2400
2580
2180
FFE0
2180
2180
6180
4180
0000
ENDCHAR
STARTCHAR uni534A
ENCODING 21322
SWIDTH 960 0
DWIDTH 12 0
BBX 12 13 0 -2
BITMAP
0400
0400
2480
1500
7FC0
0400
0400
FFE0
0400
0400
0400
0400
0000
ENDCHAR
STARTCHAR uni534D
ENCODING 21325
SWIDTH 960 0
DWIDTH 12 0
BBX 12 13 0 -2
BITMAP
0000
7C40
0440
0440
0440
7FC0
4400
4400
4400
4400
47C0
0000
0000
ENDCHAR
STARTCHAR uni5351
ENCODING 21329
SWIDTH 960 0
DWIDTH 12 0
BBX 12 13 0 -2
BITMAP
0800
1000
3F80
2480
3F80
2480
3F80
1100
2100
FFE0
0100
0100
0000
ENDCHAR
STARTCHAR uni5352
ENCODING 21330
SWIDTH 960 0
DWIDTH 12 0
BBX 12 13 0 -2
BITMAP
0400
0400
FFE0
2100
3100
2A80
4C80
0400
FFE0
0400
0400
0400
0000
ENDCHAR
STARTCHAR uni5353
ENCODING 21331
SWIDTH 960 0
DWIDTH 12 0
BBX 12 13 0 -2
BITMAP
0400
0400
07C0
3F80
2080
3F80
2080
3F80
0400
FFE0
0400
0400
0000
ENDCHAR
STARTCHAR uni5354
ENCODING 21332
SWIDTH 960 0
DWIDTH 12 0
BBX 12 13 0 -2
BITMAP
2100
2100
2FC0
F240
2440
2880
2880
3FE0
2AA0
3AA0
33A0
2760
0000
ENDCHAR
STARTCHAR uni5357
ENCODING 21335
SWIDTH 960 0
DWIDTH 12 0
BBX 12 13 0 -2
BITMAP
0400
0400
FFE0
0400
7FC0
5140
4A40
7F40
4440
5F40
4440
44C0
0000
ENDCHAR
STARTCHAR uni5358
ENCODING 21336
SWIDTH 960 0
DWIDTH 12 0
BBX 12 13 0 -2
BITMAP
2880
1500
3F80
2480
3F80
2480
2480
3F80
0400
FFE0
0400
0400
0000
ENDCHAR
STARTCHAR uni535A
ENCODING 21338
SWIDTH 960 0
DWIDTH 12 0
BBX 12 13 0 -2
BITMAP
4140
5FE0
4FC0
F940
4FC0
4940
4FC0
4080
5FE0
4480
4280
4080
0000
ENDCHAR
STARTCHAR uni535C
ENCODING 21340
SWIDTH 960 0
DWIDTH 12 0
BBX 12 13 0 -2
BITMAP
0800
0800
0800
0C00
0A00
0900
0900
0800
0800
0800
0800
0800
0000
ENDCHAR
STARTCHAR uni535E
ENCODING 21342
SWIDTH 960 0
DWIDTH 12 0
BBX 12 13 0 -2
BITMAP
0400
0400
FFE0
0400
0600
0500
0480
0480
0400
0400
0400
0400
0000
ENDCHAR
STARTCHAR uni5360
ENCODING 21344
SWIDTH 960 0
DWIDTH 12 0
BBX 12 13 0 -2
BITMAP
0800
0800
0FC0
0800
0800
0800
7F80
4080
4080
4080
7F80
4080
0000
ENDCHAR
STARTCHAR uni5366
ENCODING 21350
SWIDTH 960 0
DWIDTH 12 0
BBX 12 13 0 -2
BITMAP
1080
1080
7C80
1080
1080
FEC0
10A0
10A0
7E80
1080
1E80
F080
0000
ENDCHAR
STARTCHAR uni5369
ENCODING 21353
SWIDTH 960 0
DWIDTH 12 0
BBX 12 13 0 -2
BITMAP
0000
3F80
2180
2180
2180
2180
2180
2180
2700
2600
2000
2000
0000
ENDCHAR
STARTCHAR uni536E
ENCODING 21358
SWIDTH 960 0
DWIDTH 12 0
BBX 12 13 0 -2
BITMAP
00C0
0300
7C00
7FE0
6000
6F80
6880
6880
6980
4920
4820
87E0
0000
ENDCHAR
STARTCHAR uni536F
ENCODING 21359
SWIDTH 960 0
DWIDTH 12 0
BBX 12 13 0 -2
BITMAP
0400
0800
31E0
2520
2520
2520
2520
2520
3D20
69C0
0900
1100
0000
ENDCHAR
STARTCHAR uni5370
ENCODING 21360
SWIDTH 960 0
DWIDTH 12 0
BBX 12 13 0 -2
BITMAP
0400
1800
63C0
4240
7A40
4240
4240
4240
7A40
4380
0200
0200
0000
ENDCHAR
STARTCHAR uni5371
ENCODING 21361
SWIDTH 960 0
DWIDTH 12 0
BBX 12 13 0 -2
BITMAP
0800
1F00
E200
3FE0
2000
2F80
2880
2880
2980
4920
4820
87E0
0000
ENDCHAR
STARTCHAR uni5373
ENCODING 21363
SWIDTH 960 0
DWIDTH 12 0
BBX 12 13 0 -2
BITMAP
0000
3DE0
2520
3D20
2520
2520
3D20
2920
2D20
35E0
6500
0100
0000
ENDCHAR
STARTCHAR uni5374
ENCODING 21364
SWIDTH 960 0
DWIDTH 12 0
BBX 12 13 0 -2
BITMAP
1000
10E0
3CA0
10A0
10A0
7FA0
10A0
10A0
24A0
2EC0
7280
0080
0000
ENDCHAR
STARTCHAR uni5375
ENCODING 21365
SWIDTH 960 0
DWIDTH 12 0
BBX 12 13 0 -2
BITMAP
0400
0800
35E0
2520
35A0
3560
2520
2520
3D20
69C0
0900
1100
0000
ENDCHAR
STARTCHAR uni5377
ENCODING 21367
SWIDTH 960 0
DWIDTH 12 0
BBX 12 13 0 -2
BITMAP
0400
2480
3F80
3F80
FFE0
1100
2180
5FC0
9160
1600
1080
0F80
0000
ENDCHAR
STARTCHAR uni5378
ENCODING 21368
SWIDTH 960 0
DWIDTH 12 0
BBX 12 13 0 -2
BITMAP
1000
10E0
3EA0
48A0
7FA0
08A0
2EA0
28A0
2EA0
38C0
6080
0080
0000
ENDCHAR
STARTCHAR uni537B
ENCODING 21371
SWIDTH 960 0
DWIDTH 12 0
BBX 12 13 0 -2
BITMAP
1000
18E0
24A0
42A0
18A0
14A0
32A0
7EA0
74E0
34C0
3C80
3080
0000
ENDCHAR
STARTCHAR uni537F
ENCODING 21375
SWIDTH 960 0
DWIDTH 12 0
BBX 12 13 0 -2
BITMAP
1000
2770
4550
5750
5550
5550
5750
5450
7750
9470
2740
2440
0000
ENDCHAR
STARTCHAR uni5382
ENCODING 21378
SWIDTH 960 0
DWIDTH 12 0
BBX 12 13 0 -2
BITMAP
0000
7FE0
6000
6000
6000
6000
6000
6000
6000
4000
4000
8000
0000
ENDCHAR
STARTCHAR uni5384
ENCODING 21380
SWIDTH 960 0
DWIDTH 12 0
BBX 12 13 0 -2
BITMAP
0000
3FE0
2000
2F80
2880
2880
2880
2880
2900
4820
4820
87E0
0000
ENDCHAR
STARTCHAR uni5396
ENCODING 21398
SWIDTH 960 0
DWIDTH 12 0
BBX 12 13 0 -2
BITMAP
0000
7FE0
6C80
6AC0
69C0
7F80
68A0
6C20
4C40
54A0
B420
23E0
0000
ENDCHAR
STARTCHAR uni5398
ENCODING 21400
SWIDTH 960 0
DWIDTH 12 0
BBX 12 13 0 -2
BITMAP
0000
7FE0
5F80
5280
5F80
5280
5F80
4200
5F80
4200
7FE0
8000
0000
ENDCHAR
STARTCHAR uni539A
ENCODING 21402
SWIDTH 960 0
DWIDTH 12 0
BBX 12 13 0 -2
BITMAP
0000
7FE0
5F80
5F80
5080
5F80
4000
4F80
4100
5FC0
8200
0600
0000
ENDCHAR
STARTCHAR uni539F
ENCODING 21407
SWIDTH 960 0
DWIDTH 12 0
BBX 12 13 0 -2
BITMAP
0000
7FE0
4400
4F80
4F80
4880
4F80
4200
4A80
4A40
9240
0600
0000
ENDCHAR
STARTCHAR uni53A0
ENCODING 21408
SWIDTH 960 0
DWIDTH 12 0
BBX 12 13 0 -2
BITMAP
0000
7FE0
6C00
7E40
7FC0
73C0
7FC0
73C0
7FC0
4DC0
5240
A2C0
0000
ENDCHAR
STARTCHAR uni53A5
ENCODING 21413
SWIDTH 960 0
DWIDTH 12 0
BBX 12 13 0 -2
BITMAP
0000
7FE0
7380
7580
7FE0
69A0
6AC0
7A80
7E80
69C0
5140
A220
0000
ENDCHAR
STARTCHAR uni53A6
ENCODING 21414
SWIDTH 960 0
DWIDTH 12 0
BBX 12 13 0 -2
BITMAP
0000
7FE0
7FC0
6F80
6880
6F80
6F80
6880
6F80
5F80
4380
BDC0
0000
ENDCHAR
STARTCHAR uni53A8
ENCODING 21416
SWIDTH 960 0
DWIDTH 12 0
BBX 12 13 0 -2
BITMAP
0000
7FE0
7E40
4040
5E40
53E0
5340
5EC0
5A40
4C40
4E40
B0C0
0000
ENDCHAR
STARTCHAR uni53A9
ENCODING 21417
SWIDTH 960 0
DWIDTH 12 0
BBX 12 13 0 -2
BITMAP
0000
7FE0
4000
7DC0
6680
7D80
7FE0
6180
6980
6DA0
B2A0
2460
0000
ENDCHAR
STARTCHAR uni53AD
ENCODING 21421
SWIDTH 960 0
DWIDTH 12 0
BBX 12 13 0 -2
BITMAP
0000
7FE0
7C00
7CA0
6480
7FE0
4080
7C80
7C80
7D80
6640
AC20
0000
ENDCHAR
STARTCHAR uni53AE
ENCODING 21422
SWIDTH 960 0
DWIDTH 12 0
BBX 12 13 0 -2
BITMAP
0000
7FE0
7440
7F80
7700
7DE0
7580
7D80
7F80
7F80
5280
A280
0000
ENDCHAR
STARTCHAR uni53B0
ENCODING 21424
SWIDTH 960 0
DWIDTH 12 0
BBX 12 13 0 -2
BITMAP
0000
7FE0
6980
7F80
7BE0
7F40
63C0
7EC0
7680
7EC0
7340
A620
0000
ENDCHAR
STARTCHAR uni53B3
ENCODING 21427
SWIDTH 960 0
DWIDTH 12 0
BBX 12 13 0 -2
BITMAP
2440
1280
7FE0
7E80
4900
7FE0
7540
7FC0
5C80
7C80
8540
0620
0000
ENDCHAR
STARTCHAR uni53B6
ENCODING 21430
SWIDTH 960 0
DWIDTH 12 0
BBX 12 13 0 -2
BITMAP
0400
0400
0400
0400
0800
0800
0800
1080
1040
23C0
FC20
0020
0000
ENDCHAR
STARTCHAR uni53BB
ENCODING 21435
SWIDTH 960 0
DWIDTH 12 0
BBX 12 13 0 -2
BITMAP
0400
0400
3F80
0400
0400
0400
FFE0
0800
0900
1380
7C40
0040
0000
ENDCHAR
STARTCHAR uni53C2
ENCODING 21442
SWIDTH 960 0
DWIDTH 12 0
BBX 12 13 0 -2
BITMAP
0800
1200
7F80
0C00
FFE0
1300
2480
5B40
8620
1900
0600
3800
0000
ENDCHAR
STARTCHAR uni53C3
ENCODING 21443
SWIDTH 960 0
DWIDTH 12 0
BBX 12 13 0 -2
BITMAP
0400
0B00
3F80
34C0
FBE0
1100
6280
CC60
1600
1C80
0300
3C00
0000
ENDCHAR
STARTCHAR uni53C8
ENCODING 21448
SWIDTH 960 0
DWIDTH 12 0
BBX 12 13 0 -2
BITMAP
0000
7F80
2080
2080
1080
1100
0900
0A00
0400
0A00
3180
C060
0000
ENDCHAR
STARTCHAR uni53C9
ENCODING 21449
SWIDTH 960 0
DWIDTH 12 0
BBX 12 13 0 -2
BITMAP
0000
7F80
0880
2480
1080
1100
0900
0600
0400
0A00
3180
C060
0000
ENDCHAR
STARTCHAR uni53CA
ENCODING 21450
SWIDTH 960 0
DWIDTH 12 0
BBX 12 13 0 -2
BITMAP
0000
7F80
1100
1100
1B80
2880
2480
2500
2300
4300
4C80
B060
0000
ENDCHAR
STARTCHAR uni53CB
ENCODING 21451
SWIDTH 960 0
DWIDTH 12 0
BBX 12 13 0 -2
BITMAP
0800
0800
FFE0
0800
0800
1F80
1880
1500
2200
2600
5980
E060
0000
ENDCHAR
STARTCHAR uni53CC
ENCODING 21452
SWIDTH 960 0
DWIDTH 12 0
BBX 12 13 0 -2
BITMAP
0000
FFC0
0A40
0A40
4A40
3180
1180
1100
2900
2280
4440
8820
0000
ENDCHAR
STARTCHAR uni53CD
ENCODING 21453
SWIDTH 960 0
DWIDTH 12 0
BBX 12 13 0 -2
BITMAP
0000
7FC0
4000
7F80
4880
4880
4880
4500
4200
4600
4980
B060
0000
ENDCHAR
STARTCHAR uni53CE
ENCODING 21454
SWIDTH 960 0
DWIDTH 12 0
BBX 12 13 0 -2
BITMAP
1000
17C0
5240
5240
5240
5280
5180
5900
7100
9280
1C40
1020
0000
ENDCHAR
STARTCHAR uni53D4
ENCODING 21460
SWIDTH 960 0
DWIDTH 12 0
BBX 12 13 0 -2
BITMAP
2000
23C0
3840
2240
2240
FA40
2180
2980
6580
6280
A440
2820
0000
ENDCHAR
STARTCHAR uni53D6
ENCODING 21462
SWIDTH 960 0
DWIDTH 12 0
BBX 12 13 0 -2
BITMAP
0000
FC00
4FC0
7A40
4A40
4A40
7980
4980
7980
CA80
0C40
0820
0000
ENDCHAR
STARTCHAR uni53D7
ENCODING 21463
SWIDTH 960 0
DWIDTH 12 0
BBX 12 13 0 -2
BITMAP
0180
0680
7880
2500
7FE0
4040
BF80
1100
0A00
0400
1B00
60C0
0000
ENDCHAR
STARTCHAR uni53D9
ENCODING 21465
SWIDTH 960 0
DWIDTH 12 0
BBX 12 13 0 -2
BITMAP
2000
27C0
5240
4A40
FA40
2140
FD80
2180
7180
6A80
A440
6820
0000
ENDCHAR
STARTCHAR uni53DB
ENCODING 21467
SWIDTH 960 0
DWIDTH 12 0
BBX 12 13 0 -2
BITMAP
2000
2BE0
BA00
73C0
FA40
2240
2340
3D80
E580
2980
4A40
9020
0000
ENDCHAR
STARTCHAR uni53DF
ENCODING 21471
SWIDTH 960 0
DWIDTH 12 0
BBX 12 13 0 -2
BITMAP
1400
65C0
75C0
75C0
4440
7FC0
0400
7F80
1900
0600
1B00
E0E0
0000
ENDCHAR
STARTCHAR uni53E1
ENCODING 21473
SWIDTH 960 0
DWIDTH 12 0
BBX 12 13 0 -2
BITMAP
2000
3BC0
FC40
F940
7540
E940
7C80
C880
7880
7940
4A40
7C20
0000
ENDCHAR
STARTCHAR uni53E2
ENCODING 21474
SWIDTH 960 0
DWIDTH 12 0
BBX 12 13 0 -2
BITMAP
2A80
1B00
FFE0
7FC0
7FC0
0400
FFE0
7800
7FC0
7B80
CB80
0C60
0000
ENDCHAR
STARTCHAR uni53E3
ENCODING 21475
SWIDTH 960 0
DWIDTH 12 0
BBX 12 13 0 -2
BITMAP
0000
0000
3FC0
2040
2040
2040
2040
2040
2040
3FC0
2040
0000
0000
ENDCHAR
STARTCHAR uni53E4
ENCODING 21476
SWIDTH 960 0
DWIDTH 12 0
BBX 12 13 0 -2
BITMAP
0400
0400
FFE0
0400
0400
0400
3F80
2080
2080
2080
3F80
2080
0000
ENDCHAR
STARTCHAR uni53E5
ENCODING 21477
SWIDTH 960 0
DWIDTH 12 0
BBX 12 13 0 -2
BITMAP
1000
1000
1FE0
3020
3F20
5120
1120
1120
1F20
0020
0020
0040
0000
ENDCHAR
STARTCHAR uni53E8
ENCODING 21480
SWIDTH 960 0
DWIDTH 12 0
BBX 12 13 0 -2
BITMAP
0000
0FE0
7120
5120
5120
5120
5120
5120
7320
7220
4420
0840
0000
ENDCHAR
STARTCHAR uni53E9
ENCODING 21481
SWIDTH 960 0
DWIDTH 12 0
BBX 12 13 0 -2
BITMAP
0000
01E0
7920
4920
4920
4920
4920
7920
4920
01C0
0100
0100
0000
ENDCHAR
STARTCHAR uni53EA
ENCODING 21482
SWIDTH 960 0
DWIDTH 12 0
BBX 12 13 0 -2
BITMAP
0000
1FC0
1040
1040
1040
1040
1FC0
0040
0880
0840
1020
6020
0000
ENDCHAR
STARTCHAR uni53EB
ENCODING 21483
SWIDTH 960 0
DWIDTH 12 0
BBX 12 13 0 -2
BITMAP
0080
0080
E480
A480
A480
A480
A480
A4E0
E780
9880
0080
0080
0000
ENDCHAR
STARTCHAR uni53EC
ENCODING 21484
SWIDTH 960 0
DWIDTH 12 0
BBX 12 13 0 -2
BITMAP
0000
7FE0
0420
0C20
1820
60C0
0000
1FC0
1040
1040
1FC0
1040
0000
ENDCHAR
STARTCHAR uni53ED
ENCODING 21485
SWIDTH 960 0
DWIDTH 12 0
BBX 12 13 0 -2
BITMAP
0780
0180
E180
A580
A580
A580
A480
A480
E480
8840
1040
2020
0000
ENDCHAR
STARTCHAR uni53EE
ENCODING 21486
SWIDTH 960 0
DWIDTH 12 0
BBX 12 13 0 -2
BITMAP
0000
1FE0
E180
A180
A180
A180
A180
A180
E180
E180
8180
0180
0000
ENDCHAR
STARTCHAR uni53EF
ENCODING 21487
SWIDTH 960 0
DWIDTH 12 0
BBX 12 13 0 -2
BITMAP
0000
FFE0
0080
3C80
2480
2480
2480
3C80
2480
0080
0080
0180
0000
ENDCHAR
STARTCHAR uni53F0
ENCODING 21488
SWIDTH 960 0
DWIDTH 12 0
BBX 12 13 0 -2
BITMAP
0400
0400
0800
1180
FF40
0020
0000
3F80
2080
2080
3F80
2080
0000
ENDCHAR
STARTCHAR uni53F1
ENCODING 21489
SWIDTH 960 0
DWIDTH 12 0
BBX 12 13 0 -2
BITMAP
0200
0200
F200
9240
9240
9280
9300
9E00
F200
8220
0220
01E0
0000
ENDCHAR
STARTCHAR uni53F2
ENCODING 21490
SWIDTH 960 0
DWIDTH 12 0
BBX 12 13 0 -2
BITMAP
0400
0400
7F80
4480
4480
4480
7F80
4480
1800
0C00
3300
C0E0
0000
ENDCHAR
STARTCHAR uni53F3
ENCODING 21491
SWIDTH 960 0
DWIDTH 12 0
BBX 12 13 0 -2
BITMAP
0800
0800
FFE0
1000
1000
2000
3F80
6080
6080
A080
3F80
2080
0000
ENDCHAR
STARTCHAR uni53F6
ENCODING 21494
SWIDTH 960 0
DWIDTH 12 0
BBX 12 13 0 -2
BITMAP
0100
0100
E100
A100
BFE0
A100
A100
A100
E100
8100
0100
0100
0000
ENDCHAR
STARTCHAR uni53F7
ENCODING 21495
SWIDTH 960 0
DWIDTH 12 0
BBX 12 13 0 -2
BITMAP
0000
3F80
2080
3F80
0000
FFE0
1000
1F80
2080
0080
0100
0600
0000
ENDCHAR
STARTCHAR uni53F8
ENCODING 21496
SWIDTH 960 0
DWIDTH 12 0
BBX 12 13 0 -2
BITMAP
0000
7FE0
0020
3F20
0020
3F20
2120
2120
3F20
0020
0020
0040
0000
ENDCHAR
STARTCHAR uni53FA
ENCODING 21498
SWIDTH 960 0
DWIDTH 12 0
BBX 12 13 0 -2
BITMAP
0700
0100
E100
A100
A100
A300
A380
A380
E480
8880
1040
2020
0000
ENDCHAR
STARTCHAR uni5401
ENCODING 21505
SWIDTH 960 0
DWIDTH 12 0
BBX 12 13 0 -2
BITMAP
0000
0FC0
E100
A100
A100
BFE0
A100
A100
E100
E100
8100
0300
0000
ENDCHAR
STARTCHAR uni5403
ENCODING 21507
SWIDTH 960 0
DWIDTH 12 0
BBX 12 13 0 -2
BITMAP
0400
0400
E7E0
A800
A800
B780
A100
A200
E400
8820
0820
07E0
0000
ENDCHAR
STARTCHAR uni5404
ENCODING 21508
SWIDTH 960 0
DWIDTH 12 0
BBX 12 13 0 -2
BITMAP
0800
0800
1F80
2900
4600
0900
3080
DF60
1100
1100
1F00
1100
0000
ENDCHAR
STARTCHAR uni5408
ENCODING 21512
SWIDTH 960 0
DWIDTH 12 0
BBX 12 13 0 -2
BITMAP
0400
0400
0A00
3180
DF60
0000
0000
3F80
2080
2080
3F80
2080
0000
ENDCHAR
STARTCHAR uni5409
ENCODING 21513
SWIDTH 960 0
DWIDTH 12 0
BBX 12 13 0 -2
BITMAP
0400
0400
FFE0
0400
0400
7FC0
0000
3F80
2080
2080
3F80
2080
0000
ENDCHAR
STARTCHAR uni540A
ENCODING 21514
SWIDTH 960 0
DWIDTH 12 0
BBX 12 13 0 -2
BITMAP
0000
3F80
2080
3F80
2480
0400
7FC0
4440
4440
4440
44C0
0400
0000
ENDCHAR
STARTCHAR uni540B
ENCODING 21515
SWIDTH 960 0
DWIDTH 12 0
BBX 12 13 0 -2
BITMAP
0080
0080
E080
BFE0
A080
A480
A280
A280
E080
8080
0180
0080
0000
ENDCHAR
STARTCHAR uni540C
ENCODING 21516
SWIDTH 960 0
DWIDTH 12 0
BBX 12 13 0 -2
BITMAP
0000
7FE0
4020
5FA0
4020
5FA0
50A0
50A0
5FA0
50A0
4020
4060
0000
ENDCHAR
STARTCHAR uni540D
ENCODING 21517
SWIDTH 960 0
DWIDTH 12 0
BBX 12 13 0 -2
BITMAP
0400
0400
0FC0
0880
1500
2200
0400
0FE0
1820
6820
0FE0
0820
0000
ENDCHAR
STARTCHAR uni540E
ENCODING 21518
SWIDTH 960 0
DWIDTH 12 0
BBX 12 13 0 -2
BITMAP
01C0
7F00
4000
7FE0
4000
4000
4F80
4880
4880
4880
8F80
0880
0000
ENDCHAR
STARTCHAR uni540F
ENCODING 21519
SWIDTH 960 0
DWIDTH 12 0
BBX 12 13 0 -2
BITMAP
0400
0400
FFE0
3F80
2480
2480
3F80
3480
0C00
0A00
3100
C0E0
0000
ENDCHAR
STARTCHAR uni5410
ENCODING 21520
SWIDTH 960 0
DWIDTH 12 0
BBX 12 13 0 -2
BITMAP
0100
0100
E100
AFC0
A100
A100
A100
A100
E100
8100
3FE0
0000
0000
ENDCHAR
STARTCHAR uni5411
ENCODING 21521
SWIDTH 960 0
DWIDTH 12 0
BBX 12 13 0 -2
BITMAP
0800
1000
7FC0
4040
4040
5F40
5140
5140
5140
5F40
4040
40C0
0000
ENDCHAR
STARTCHAR uni541B
ENCODING 21531
SWIDTH 960 0
DWIDTH 12 0
BBX 12 13 0 -2
BITMAP
0000
3F00
0900
FFE0
0900
0900
3F00
1000
3F80
5080
9F80
1080
0000
ENDCHAR
STARTCHAR uni541D
ENCODING 21533
SWIDTH 960 0
DWIDTH 12 0
BBX 12 13 0 -2
BITMAP
0400
0400
FFE0
0900
0600
1900
E0E0
3F80
2180
2180
3F80
2180
0000
ENDCHAR
STARTCHAR uni541F
ENCODING 21535
SWIDTH 960 0
DWIDTH 12 0
BBX 12 13 0 -2
BITMAP
0100
0100
E280
A440
AFC0
B020
A000
AFC0
E040
8080
0080
0100
0000
ENDCHAR
STARTCHAR uni5420
ENCODING 21536
SWIDTH 960 0
DWIDTH 12 0
BBX 12 13 0 -2
BITMAP
0100
0180
E140
A100
BFE0
A100
A100
A300
E280
8480
1840
2020
0000
ENDCHAR
STARTCHAR uni5426
ENCODING 21542
SWIDTH 960 0
DWIDTH 12 0
BBX 12 13 0 -2
BITMAP
0000
FFE0
0600
0D80
3440
C420
0400
3F80
2080
2080
3F80
2080
0000
ENDCHAR
STARTCHAR uni5429
ENCODING 21545
SWIDTH 960 0
DWIDTH 12 0
BBX 12 13 0 -2
BITMAP
0180
0580
E580
A880
A880
BFC0
A2A0
A280
E680
E480
8880
1180
0000
ENDCHAR
STARTCHAR uni542B
ENCODING 21547
SWIDTH 960 0
DWIDTH 12 0
BBX 12 13 0 -2
BITMAP
0400
0400
0A00
3F80
C060
3F00
0100
0200
3F80
2080
3F80
2080
0000
ENDCHAR
STARTCHAR uni542C
ENCODING 21548
SWIDTH 960 0
DWIDTH 12 0
BBX 12 13 0 -2
BITMAP
0040
0180
E600
A400
A7E0
A580
A580
A580
E580
E980
9180
0180
0000
ENDCHAR
STARTCHAR uni542D
ENCODING 21549
SWIDTH 960 0
DWIDTH 12 0
BBX 12 13 0 -2
BITMAP
0100
0100
FFE0
BFE0
A700
A580
A580
A580
E580
89A0
09A0
10E0
0000
ENDCHAR
STARTCHAR uni542E
ENCODING 21550
SWIDTH 960 0
DWIDTH 12 0
BBX 12 13 0 -2
BITMAP
0100
0300
E240
A4E0
BFA0
A380
A380
A380
E780
E5A0
89A0
10E0
0000
ENDCHAR
STARTCHAR uni5436
ENCODING 21558
SWIDTH 960 0
DWIDTH 12 0
BBX 12 13 0 -2
BITMAP
0380
0080
73E0
57E0
54A0
54A0
5560
5560
7620
7420
4420
0460
0000
ENDCHAR
STARTCHAR uni5438
ENCODING 21560
SWIDTH 960 0
DWIDTH 12 0
BBX 12 13 0 -2
BITMAP
0000
1F80
E480
A580
A7C0
A640
A640
E980
8980
1180
2640
3820
0000
ENDCHAR
STARTCHAR uni5439
ENCODING 21561
SWIDTH 960 0
DWIDTH 12 0
BBX 12 13 0 -2
BITMAP
0400
0400
E400
A7E0
A940
A980
B100
A300
E280
8480
0840
3020
0000
ENDCHAR
STARTCHAR uni543B
ENCODING 21563
SWIDTH 960 0
DWIDTH 12 0
BBX 12 13 0 -2
BITMAP
0200
0200
73E0
5560
5560
5960
52A0
52A0
74A0
4920
0220
0040
0000
ENDCHAR
STARTCHAR uni543C
ENCODING 21564
SWIDTH 960 0
DWIDTH 12 0
BBX 12 13 0 -2
BITMAP
0180
1F80
E380
A380
A580
A580
A780
BD80
E580
85A0
05A0
0CE0
0000
ENDCHAR
STARTCHAR uni543D
ENCODING 21565
SWIDTH 960 0
DWIDTH 12 0
BBX 12 13 0 -2
BITMAP
0100
0500
E500
A7C0
AB00
A900
B100
BFE0
E100
E100
8100
0100
0000
ENDCHAR
STARTCHAR uni543E
ENCODING 21566
SWIDTH 960 0
DWIDTH 12 0
BBX 12 13 0 -2
BITMAP
0000
7FC0
0800
3F00
1100
1100
FFE0
0000
3F80
2080
3F80
2080
0000
ENDCHAR
STARTCHAR uni5440
ENCODING 21568
SWIDTH 960 0
DWIDTH 12 0
BBX 12 13 0 -2
BITMAP
0000
0FC0
E180
A980
A980
AFE0
A180
A380
E780
E980
9180
0180
0000
ENDCHAR
STARTCHAR uni5442
ENCODING 21570
SWIDTH 960 0
DWIDTH 12 0
BBX 12 13 0 -2
BITMAP
0000
1F80
1080
1080
1F80
1280
0400
3FC0
2040
2040
3FC0
2040
0000
ENDCHAR
STARTCHAR uni5446
ENCODING 21574
SWIDTH 960 0
DWIDTH 12 0
BBX 12 13 0 -2
BITMAP
0000
3F80
2080
3F80
2480
0400
FFE0
0E00
3580
C460
0400
0400
0000
ENDCHAR
STARTCHAR uni5448
ENCODING 21576
SWIDTH 960 0
DWIDTH 12 0
BBX 12 13 0 -2
BITMAP
0000
3F80
2080
3F80
0000
7FC0
0400
0400
3F80
0400
FFE0
0000
0000
ENDCHAR
STARTCHAR uni5449
ENCODING 21577
SWIDTH 960 0
DWIDTH 12 0
BBX 12 13 0 -2
BITMAP
0000
0F80
2880
2880
2F80
2000
3F80
0080
FFE0
1100
2080
C040
0000
ENDCHAR
STARTCHAR uni544A
ENCODING 21578
SWIDTH 960 0
DWIDTH 12 0
BBX 12 13 0 -2
BITMAP
0400
2400
3F80
4400
4400
FFE0
0000
3F80
2080
2080
3F80
2080
0000
ENDCHAR
STARTCHAR uni544E
ENCODING 21582
SWIDTH 960 0
DWIDTH 12 0
BBX 12 13 0 -2
BITMAP
0000
07C0
E440
A440
A440
A7C0
A640
E500
8900
1880
3040
2020
0000
ENDCHAR
STARTCHAR uni5451
ENCODING 21585
SWIDTH 960 0
DWIDTH 12 0
BBX 12 13 0 -2
BITMAP
0180
3E00
0400
FFE0
0A00
1100
6080
BFE0
2080
2080
3F80
2080
0000
ENDCHAR
STARTCHAR uni545F
ENCODING 21599
SWIDTH 960 0
DWIDTH 12 0
BBX 12 13 0 -2
BITMAP
0100
0100
FFE0
BFE0
A180
AA80
A680
A380
E180
E240
84E0
1F20
0000
ENDCHAR
STARTCHAR uni5468
ENCODING 21608
SWIDTH 960 0
DWIDTH 12 0
BBX 12 13 0 -2
BITMAP
0000
3FE0
2220
2FA0
2220
3FA0
2020
2FA0
28A0
2FA0
28A0
4060
0000
ENDCHAR
STARTCHAR uni546A
ENCODING 21610
SWIDTH 960 0
DWIDTH 12 0
BBX 12 13 0 -2
BITMAP
0000
0FC0
E840
A840
AFC0
AB40
A300
A300
E500
8920
1120
20E0
0000
ENDCHAR
STARTCHAR uni5470
ENCODING 21616
SWIDTH 960 0
DWIDTH 12 0
BBX 12 13 0 -2
BITMAP
2200
2240
7F80
7F00
6220
7A20
61E0
C000
3F80
2180
3F80
2180
0000
ENDCHAR
STARTCHAR uni5471
ENCODING 21617
SWIDTH 960 0
DWIDTH 12 0
BBX 12 13 0 -2
BITMAP
0040
0180
EF80
AB80
AB80
AB80
AB80
AA80
EA80
FBC0
9FC0
20A0
0000
ENDCHAR
STARTCHAR uni5473
ENCODING 21619
SWIDTH 960 0
DWIDTH 12 0
BBX 12 13 0 -2
BITMAP
0100
0100
EFC0
A100
BFE0
A100
A300
A580
E940
B120
0100
0100
0000
ENDCHAR
STARTCHAR uni5475
ENCODING 21621
SWIDTH 960 0
DWIDTH 12 0
BBX 12 13 0 -2
BITMAP
0000
1FE0
E040
AE40
AB40
A940
A940
AB40
EF40
E040
8040
00C0
0000
ENDCHAR
STARTCHAR uni5476
ENCODING 21622
SWIDTH 960 0
DWIDTH 12 0
BBX 12 13 0 -2
BITMAP
0800
0800
EBC0
FF40
F740
F540
F580
F480
EC80
EBC0
9340
2220
0000
ENDCHAR
STARTCHAR uni5477
ENCODING 21623
SWIDTH 960 0
DWIDTH 12 0
BBX 12 13 0 -2
BITMAP
0000
07E0
74A0
54A0
57E0
54A0
54A0
55A0
77E0
4080
0080
0080
0000
ENDCHAR
STARTCHAR uni547B
ENCODING 21627
SWIDTH 960 0
DWIDTH 12 0
BBX 12 13 0 -2
BITMAP
0080
0180
77E0
54A0
57E0
54A0
54A0
57E0
74A0
4080
0080
0080
0000
ENDCHAR
STARTCHAR uni547C
ENCODING 21628
SWIDTH 960 0
DWIDTH 12 0
BBX 12 13 0 -2
BITMAP
00C0
0F00
E140
A540
A580
A100
BFE0
A100
E100
8100
0100
0300
0000
ENDCHAR
STARTCHAR uni547D
ENCODING 21629
SWIDTH 960 0
DWIDTH 12 0
BBX 12 13 0 -2
BITMAP
0400
0A00
3180
FFE0
0000
73C0
5240
5240
7240
53C0
4200
0200
0000
ENDCHAR
STARTCHAR uni5480
ENCODING 21632
SWIDTH 960 0
DWIDTH 12 0
BBX 12 13 0 -2
BITMAP
0000
0780
E480
A480
A780
A480
A480
A780
E480
E480
9FE0
0000
0000
ENDCHAR
STARTCHAR uni5484
ENCODING 21636
SWIDTH 960 0
DWIDTH 12 0
BBX 12 13 0 -2
BITMAP
0080
04A0
74A0
54A0
57E0
54A0
5080
54A0
74A0
74A0
47E0
0420
0000
ENDCHAR
STARTCHAR uni5486
ENCODING 21638
SWIDTH 960 0
DWIDTH 12 0
BBX 12 13 0 -2
BITMAP
0400
0400
E7C0
A840
B740
A5C0
A5C0
A7C0
E480
8420
0420
03E0
0000
ENDCHAR
STARTCHAR uni548B
ENCODING 21643
SWIDTH 960 0
DWIDTH 12 0
BBX 12 13 0 -2
BITMAP
0400
0400
E7E0
AA00
B200
A3C0
A200
A200
E3C0
8200
0200
0200
0000
ENDCHAR
STARTCHAR uni548C
ENCODING 21644
SWIDTH 960 0
DWIDTH 12 0
BBX 12 13 0 -2
BITMAP
0400
0800
31E0
1120
7F20
1120
3920
3520
5520
11E0
1120
1000
0000
ENDCHAR
STARTCHAR uni548E
ENCODING 21646
SWIDTH 960 0
DWIDTH 12 0
BBX 12 13 0 -2
BITMAP
2180
3180
7980
7980
B240
3440
4FE0
C000
3F80
2180
3F80
2180
0000
ENDCHAR
STARTCHAR uni548F
ENCODING 21647
SWIDTH 960 0
DWIDTH 12 0
BBX 12 13 0 -2
BITMAP
0100
0180
E700
A720
A120
BFC0
A380
A380
E580
E940
9120
0300
0000
ENDCHAR
STARTCHAR uni5490
ENCODING 21648
SWIDTH 960 0
DWIDTH 12 0
BBX 12 13 0 -2
BITMAP
0240
0240
E640
A7E0
AC40
B540
A5C0
A440
E440
E440
8440
04C0
0000
ENDCHAR
STARTCHAR uni5492
ENCODING 21650
SWIDTH 960 0
DWIDTH 12 0
BBX 12 13 0 -2
BITMAP
0000
7BC0
4A40
7BC0
4A40
0000
1F00
1100
1100
1120
2120
41E0
0000
ENDCHAR
STARTCHAR uni54A2
ENCODING 21666
SWIDTH 960 0
DWIDTH 12 0
BBX 12 13 0 -2
BITMAP
0000
7BC0
7BC0
7BC0
3F80
0000
FFE0
1000
1F80
0180
0100
0E00
0000
ENDCHAR
STARTCHAR uni54A4
ENCODING 21668
SWIDTH 960 0
DWIDTH 12 0
BBX 12 13 0 -2
BITMAP
0100
0300
EFE0
B8C0
BF00
A100
A1E0
BF00
E100
E120
8120
01E0
0000
ENDCHAR
STARTCHAR uni54A5
ENCODING 21669
SWIDTH 960 0
DWIDTH 12 0
BBX 12 13 0 -2
BITMAP
0000
1FE0
E240
A4E0
BF20
A100
A100
AFC0
E100
8100
3FE0
0000
0000
ENDCHAR
STARTCHAR uni54A8
ENCODING 21672
SWIDTH 960 0
DWIDTH 12 0
BBX 12 13 0 -2
BITMAP
0400
0400
E7E0
1960
03C0
2480
C840
3FA0
2180
2180
3F80
2180
0000
ENDCHAR
STARTCHAR uni54AB
ENCODING 21675
SWIDTH 960 0
DWIDTH 12 0
BBX 12 13 0 -2
BITMAP
0000
7BC0
6A40
6A40
6A40
7BC0
6980
73C0
7640
4800
4600
81E0
0000
ENDCHAR
STARTCHAR uni54AC
ENCODING 21676
SWIDTH 960 0
DWIDTH 12 0
BBX 12 13 0 -2
BITMAP
0100
0300
FFE0
A440
ACE0
B2A0
A280
A180
E180
8380
0C40
3020
0000
ENDCHAR
STARTCHAR uni54AF
ENCODING 21679
SWIDTH 960 0
DWIDTH 12 0
BBX 12 13 0 -2
BITMAP
0200
0200
E780
AC80
B380
A180
A6C0
BFA0
E480
8480
0780
0480
0000
ENDCHAR
STARTCHAR uni54B2
ENCODING 21682
SWIDTH 960 0
DWIDTH 12 0
BBX 12 13 0 -2
BITMAP
0880
0480
E500
AFC0
A100
A100
BFE0
A100
E280
8480
1840
2020
0000
ENDCHAR
STARTCHAR uni54B3
ENCODING 21683
SWIDTH 960 0
DWIDTH 12 0
BBX 12 13 0 -2
BITMAP
0100
0100
FFE0
A940
A640
A280
A140
A280
ED00
8280
0C40
3020
0000
ENDCHAR
STARTCHAR uni54B8
ENCODING 21688
SWIDTH 960 0
DWIDTH 12 0
BBX 12 13 0 -2
BITMAP
0180
0140
3FE0
7FE0
7F40
6140
7FC0
7280
7280
5FE0
5360
8220
0000
ENDCHAR
STARTCHAR uni54BC
ENCODING 21692
SWIDTH 960 0
DWIDTH 12 0
BBX 12 13 0 -2
BITMAP
0000
3F80
2780
2780
2580
7FC0
4040
5F40
5140
5F40
5340
40C0
0000
ENDCHAR
STARTCHAR uni54BD
ENCODING 21693
SWIDTH 960 0
DWIDTH 12 0
BBX 12 13 0 -2
BITMAP
0000
07E0
74A0
54A0
57E0
54A0
54A0
5560
7660
4420
07E0
0420
0000
ENDCHAR
STARTCHAR uni54BE
ENCODING 21694
SWIDTH 960 0
DWIDTH 12 0
BBX 12 13 0 -2
BITMAP
0100
0300
EFC0
A140
BFE0
A100
A240
B680
FB00
E240
8240
01C0
0000
ENDCHAR
STARTCHAR uni54C0
ENCODING 21696
SWIDTH 960 0
DWIDTH 12 0
BBX 12 13 0 -2
BITMAP
0400
0400
FFE0
0000
3F00
2100
3F40
0C40
3280
D300
1D80
6060
0000
ENDCHAR
STARTCHAR uni54C1
ENCODING 21697
SWIDTH 960 0
DWIDTH 12 0
BBX 12 13 0 -2
BITMAP
0000
1F80
1080
1080
1F80
1080
0000
79E0
4920
4920
79E0
4920
0000
ENDCHAR
STARTCHAR uni54C2
ENCODING 21698
SWIDTH 960 0
DWIDTH 12 0
BBX 12 13 0 -2
BITMAP
0000
1FE0
E380
AFC0
ABC0
ABC0
ABC0
ADC0
ECC0
8840
0FC0
0840
0000
ENDCHAR
STARTCHAR uni54C4
ENCODING 21700
SWIDTH 960 0
DWIDTH 12 0
BBX 12 13 0 -2
BITMAP
0580
0580
E580
BFC0
B580
A580
A580
B580
FFE0
8480
0840
1040
0000
ENDCHAR
STARTCHAR uni54C7
ENCODING 21703
SWIDTH 960 0
DWIDTH 12 0
BBX 12 13 0 -2
BITMAP
0100
0300
EFC0
A100
BFE0
A100
A100
AFC0
E100
8100
3FE0
0000
0000
ENDCHAR
STARTCHAR uni54C8
ENCODING 21704
SWIDTH 960 0
DWIDTH 12 0
BBX 12 13 0 -2
BITMAP
0100
0300
E380
A480
AFC0
B020
A000
A780
E480
8480
0780
0480
0000
ENDCHAR
STARTCHAR uni54C9
ENCODING 21705
SWIDTH 960 0
DWIDTH 12 0
BBX 12 13 0 -2
BITMAP
2200
2280
7E40
2200
FFE0
0140
7940
4880
4880
79A0
4A60
4020
0000
ENDCHAR
STARTCHAR uni54D8
ENCODING 21720
SWIDTH 960 0
DWIDTH 12 0
BBX 12 13 0 -2
BITMAP
0400
05C0
F800
B200
A3E0
A480
AC80
B480
E480
8480
0480
0480
0000
ENDCHAR
STARTCHAR uni54E1
ENCODING 21729
SWIDTH 960 0
DWIDTH 12 0
BBX 12 13 0 -2
BITMAP
0000
3F80
2080
1F00
3F80
2080
3F80
2080
3F80
3F80
1B00
60C0
0000
ENDCHAR
STARTCHAR uni54E2
ENCODING 21730
SWIDTH 960 0
DWIDTH 12 0
BBX 12 13 0 -2
BITMAP
0000
0FC0
E780
A780
A100
BFE0
A480
B4C0
FFE0
8480
0880
1080
0000
ENDCHAR
STARTCHAR uni54E5
ENCODING 21733
SWIDTH 960 0
DWIDTH 12 0
BBX 12 13 0 -2
BITMAP
0000
7FC0
3980
7D80
7D80
0180
FFE0
0180
7D80
7D80
6580
0180
0000
ENDCHAR
STARTCHAR uni54E6
ENCODING 21734
SWIDTH 960 0
DWIDTH 12 0
BBX 12 13 0 -2
BITMAP
0380
05C0
FDA0
A580
BFE0
A5C0
A4C0
B680
FC80
85E0
0660
0C20
0000
ENDCHAR
STARTCHAR uni54E8
ENCODING 21736
SWIDTH 960 0
DWIDTH 12 0
BBX 12 13 0 -2
BITMAP
0100
0580
E540
B920
BFC0
A840
AFC0
A840
EFC0
8840
0840
08C0
0000
ENDCHAR
STARTCHAR uni54E9
ENCODING 21737
SWIDTH 960 0
DWIDTH 12 0
BBX 12 13 0 -2
BITMAP
0000
0FC0
E940
AFC0
A940
A940
AFC0
A100
EFC0
8100
3FE0
0000
0000
ENDCHAR
STARTCHAR uni54ED
ENCODING 21741
SWIDTH 960 0
DWIDTH 12 0
BBX 12 13 0 -2
BITMAP
0000
7BC0
4A40
7BC0
4A40
0400
0480
FFE0
0400
1A00
3180
C060
0000
ENDCHAR
STARTCHAR uni54EE
ENCODING 21742
SWIDTH 960 0
DWIDTH 12 0
BBX 12 13 0 -2
BITMAP
0200
0240
EFC0
A280
BFE0
A100
A7C0
BD80
FFE0
9FE0
0100
0300
0000
ENDCHAR
STARTCHAR uni54F2
ENCODING 21746
SWIDTH 960 0
DWIDTH 12 0
BBX 12 13 0 -2
BITMAP
20C0
2300
FFE0
3A80
E280
2480
2880
0000
3F80
2080
3F80
2080
0000
ENDCHAR
STARTCHAR uni54FA
ENCODING 21754
SWIDTH 960 0
DWIDTH 12 0
BBX 12 13 0 -2
BITMAP
0180
0340
FFE0
AFC0
AB40
A940
AFC0
A940
EFC0
8FC0
0940
09C0
0000
ENDCHAR
STARTCHAR uni54FD
ENCODING 21757
SWIDTH 960 0
DWIDTH 12 0
BBX 12 13 0 -2
BITMAP
0000
1FE0
E7C0
AFC0
AFC0
A940
AFC0
AB00
E600
8600
0980
3060
0000
ENDCHAR
STARTCHAR uni5504
ENCODING 21764
SWIDTH 960 0
DWIDTH 12 0
BBX 12 13 0 -2
BITMAP
0000
07C0
7440
57C0
5440
5440
57C0
5440
77C0
4280
0C40
3020
0000
ENDCHAR
STARTCHAR uni5506
ENCODING 21766
SWIDTH 960 0
DWIDTH 12 0
BBX 12 13 0 -2
BITMAP
0200
0240
E4E0
BF00
A520
AAE0
B380
A480
ED00
9200
0580
3860
0000
ENDCHAR
STARTCHAR uni5507
ENCODING 21767
SWIDTH 960 0
DWIDTH 12 0
BBX 12 13 0 -2
BITMAP
0000
7FC0
5F80
4000
7FE0
5280
5D80
B0E0
3F80
2080
3F80
2080
0000
ENDCHAR
STARTCHAR uni550F
ENCODING 21775
SWIDTH 960 0
DWIDTH 12 0
BBX 12 13 0 -2
BITMAP
0080
0780
E780
A600
BFE0
A500
A900
BFC0
F940
8940
09C0
0100
0000
ENDCHAR
STARTCHAR uni5510
ENCODING 21776
SWIDTH 960 0
DWIDTH 12 0
BBX 12 13 0 -2
BITMAP
0200
7FE0
5F80
4280
7FE0
4280
5F80
4000
5F80
5080
9F80
1080
0000
ENDCHAR
STARTCHAR uni5514
ENCODING 21780
SWIDTH 960 0
DWIDTH 12 0
BBX 12 13 0 -2
BITMAP
0000
1FE0
E200
AF80
A480
A480
BFE0
A000
EFC0
8840
0FC0
0840
0000
ENDCHAR
STARTCHAR uni5516
ENCODING 21782
SWIDTH 960 0
DWIDTH 12 0
BBX 12 13 0 -2
BITMAP
0000
1FE0
E280
AFC0
AAC0
AAC0
AAC0
EFC0
AAC0
8280
3FE0
0000
0000
ENDCHAR
STARTCHAR uni552E
ENCODING 21806
SWIDTH 960 0
DWIDTH 12 0
BBX 12 13 0 -2
BITMAP
2180
3FE0
7FC0
7FC0
BFC0
2100
3FE0
0000
3F80
2080
3F80
2080
0000
ENDCHAR
STARTCHAR uni552F
ENCODING 21807
SWIDTH 960 0
DWIDTH 12 0
BBX 12 13 0 -2
BITMAP
0280
0280
E500
AFE0
AD00
B7C0
A500
A500
E7C0
8500
07E0
0400
0000
ENDCHAR
STARTCHAR uni5531
ENCODING 21809
SWIDTH 960 0
DWIDTH 12 0
BBX 12 13 0 -2
BITMAP
0000
03C0
7240
53C0
5240
53C0
5000
77E0
4420
07E0
0420
07E0
0000
ENDCHAR
STARTCHAR uni5533
ENCODING 21811
SWIDTH 960 0
DWIDTH 12 0
BBX 12 13 0 -2
BITMAP
0000
1FE0
E7C0
AFC0
A840
AFC0
A980
AB40
FFE0
9300
3480
1860
0000
ENDCHAR
STARTCHAR uni5538
ENCODING 21816
SWIDTH 960 0
DWIDTH 12 0
BBX 12 13 0 -2
BITMAP
0100
0300
E680
BFE0
B000
AFC0
A080
A380
F140
9420
34A0
0380
0000
ENDCHAR
STARTCHAR uni5539
ENCODING 21817
SWIDTH 960 0
DWIDTH 12 0
BBX 12 13 0 -2
BITMAP
0480
0480
FFC0
BFC0
A920
AB20
AE80
AA80
FA00
9280
3240
2C40
0000
ENDCHAR
STARTCHAR uni553E
ENCODING 21822
SWIDTH 960 0
DWIDTH 12 0
BBX 12 13 0 -2
BITMAP
00C0
0F00
E100
AFC0
A580
BFE0
A580
A580
EFC0
8100
3FE0
0000
0000
ENDCHAR
STARTCHAR uni5540
ENCODING 21824
SWIDTH 960 0
DWIDTH 12 0
BBX 12 13 0 -2
BITMAP
0000
0FE0
EBC0
ABC0
A980
AFE0
A980
A980
FBC0
9180
3FE0
2000
0000
ENDCHAR
STARTCHAR uni5544
ENCODING 21828
SWIDTH 960 0
DWIDTH 12 0
BBX 12 13 0 -2
BITMAP
0000
1FE0
E200
A640
BBC0
A380
A580
FBC0
86A0
1880
0080
0300
0000
ENDCHAR
STARTCHAR uni5545
ENCODING 21829
SWIDTH 960 0
DWIDTH 12 0
BBX 12 13 0 -2
BITMAP
0100
0100
E1E0
AFC0
A840
AFC0
A840
AFC0
FFE0
9FE0
0100
0100
0000
ENDCHAR
STARTCHAR uni5546
ENCODING 21830
SWIDTH 960 0
DWIDTH 12 0
BBX 12 13 0 -2
BITMAP
0400
0400
FFE0
1100
7FC0
5240
52C0
7FC0
5140
5F40
5140
40C0
0000
ENDCHAR
STARTCHAR uni554C
ENCODING 21836
SWIDTH 960 0
DWIDTH 12 0
BBX 12 13 0 -2
BITMAP
0100
0300
EFE0
BB80
B5A0
A8E0
A000
AFC0
E100
8100
3FE0
0000
0000
ENDCHAR
STARTCHAR uni554F
ENCODING 21839
SWIDTH 960 0
DWIDTH 12 0
BBX 12 13 0 -2
BITMAP
0000
7BC0
4A40
7BC0
7BC0
4040
5F40
5140
5F40
5F40
4040
40C0
0000
ENDCHAR
STARTCHAR uni5553
ENCODING 21843
SWIDTH 960 0
DWIDTH 12 0
BBX 12 13 0 -2
BITMAP
0200
FE00
03E0
7E80
4B80
7900
4E80
C060
BF80
2080
3F80
2080
0000
ENDCHAR
STARTCHAR uni5556
ENCODING 21846
SWIDTH 960 0
DWIDTH 12 0
BBX 12 13 0 -2
BITMAP
0100
0140
EB40
BB80
B480
A980
A100
AB40
FBC0
9580
0880
3060
0000
ENDCHAR
STARTCHAR uni5557
ENCODING 21847
SWIDTH 960 0
DWIDTH 12 0
BBX 12 13 0 -2
BITMAP
0100
0100
73E0
5420
59C0
56E0
5420
5420
7760
4420
07E0
0420
0000
ENDCHAR
STARTCHAR uni555C
ENCODING 21852
SWIDTH 960 0
DWIDTH 12 0
BBX 12 13 0 -2
BITMAP
0000
1FC0
FB40
A4C0
AAC0
B340
BFC0
B340
EFC0
8680
0AC0
3120
0000
ENDCHAR
STARTCHAR uni555D
ENCODING 21853
SWIDTH 960 0
DWIDTH 12 0
BBX 12 13 0 -2
BITMAP
0080
0300
7EE0
52E0
5FE0
52E0
57E0
5FE0
7AE0
0A80
0240
0200
0000
ENDCHAR
STARTCHAR uni5563
ENCODING 21859
SWIDTH 960 0
DWIDTH 12 0
BBX 12 13 0 -2
BITMAP
0400
0400
77E0
7FE0
7AE0
7FE0
72E0
7BE0
7AE0
4BE0
0EC0
18C0
0000
ENDCHAR
STARTCHAR uni557B
ENCODING 21883
SWIDTH 960 0
DWIDTH 12 0
BBX 12 13 0 -2
BITMAP
0400
7FC0
1A00
7FE0
4440
FF80
6480
0480
3F80
7F80
7F80
6080
0000
ENDCHAR
STARTCHAR uni557C
ENCODING 21884
SWIDTH 960 0
DWIDTH 12 0
BBX 12 13 0 -2
BITMAP
0100
0300
EFC0
A680
AFE0
A940
B100
AFC0
E940
8940
09C0
0100
0000
ENDCHAR
STARTCHAR uni557E
ENCODING 21886
SWIDTH 960 0
DWIDTH 12 0
BBX 12 13 0 -2
BITMAP
0180
0680
FC80
A4A0
BFC0
A580
A680
AD80
FDC0
B5C0
0520
0620
0000
ENDCHAR
STARTCHAR uni5580
ENCODING 21888
SWIDTH 960 0
DWIDTH 12 0
BBX 12 13 0 -2
BITMAP
0100
0300
EFE0
BBC0
B280
A680
A980
A2C0
FFE0
9480
0780
0480
0000
ENDCHAR
STARTCHAR uni5583
ENCODING 21891
SWIDTH 960 0
DWIDTH 12 0
BBX 12 13 0 -2
BITMAP
0100
0300
FFE0
AFC0
ADC0
ABC0
AFC0
AB40
EFC0
8940
0940
08C0
0000
ENDCHAR
STARTCHAR uni5584
ENCODING 21892
SWIDTH 960 0
DWIDTH 12 0
BBX 12 13 0 -2
BITMAP
2100
1200
7FC0
3F80
0400
7FC0
2480
FFE0
3F80
2080
3F80
2080
0000
ENDCHAR
STARTCHAR uni5587
ENCODING 21895
SWIDTH 960 0
DWIDTH 12 0
BBX 12 13 0 -2
BITMAP
0220
0220
7FE0
7FE0
7BE0
7AE0
7FE0
72E0
77A0
4EA0
1A20
0260
0000
ENDCHAR
STARTCHAR uni5589
ENCODING 21897
SWIDTH 960 0
DWIDTH 12 0
BBX 12 13 0 -2
BITMAP
0400
07C0
E440
AFE0
B900
ABE0
AA80
AC80
EFE0
8980
0A40
0C20
0000
ENDCHAR
STARTCHAR uni558A
ENCODING 21898
SWIDTH 960 0
DWIDTH 12 0
BBX 12 13 0 -2
BITMAP
0180
0140
EFE0
FFE0
FF40
F140
FFC0
FA80
FE80
BFE0
2260
2020
0000
ENDCHAR
STARTCHAR uni558B
ENCODING 21899
SWIDTH 960 0
DWIDTH 12 0
BBX 12 13 0 -2
BITMAP
0580
0580
FFE0
A580
A400
A7C0
A100
BFE0
E780
8940
3120
0100
0000
ENDCHAR
STARTCHAR uni5598
ENCODING 21912
SWIDTH 960 0
DWIDTH 12 0
BBX 12 13 0 -2
BITMAP
0100
0940
EFC0
A7C0
BFE0
A100
AFC0
ABC0
EBC0
8BC0
0BC0
08C0
0000
ENDCHAR
STARTCHAR uni5599
ENCODING 21913
SWIDTH 960 0
DWIDTH 12 0
BBX 12 13 0 -2
BITMAP
0400
0780
E780
A780
BFE0
A240
A740
BB80
FF80
9F40
1920
0600
0000
ENDCHAR
STARTCHAR uni559A
ENCODING 21914
SWIDTH 960 0
DWIDTH 12 0
BBX 12 13 0 -2
BITMAP
0200
0380
E500
BFC0
BB40
AB40
ABC0
AD40
FFE0
8300
0CC0
3020
0000
ENDCHAR
STARTCHAR uni559C
ENCODING 21916
SWIDTH 960 0
DWIDTH 12 0
BBX 12 13 0 -2
BITMAP
0400
FFE0
3F80
0000
3F80
2080
3F80
1100
FFE0
3F80
2080
3F80
0000
ENDCHAR
STARTCHAR uni559D
ENCODING 21917
SWIDTH 960 0
DWIDTH 12 0
BBX 12 13 0 -2
BITMAP
0000
07C0
7440
57C0
57C0
5100
53E0
5CA0
7720
4420
03A0
00C0
0000
ENDCHAR
STARTCHAR uni559E
ENCODING 21918
SWIDTH 960 0
DWIDTH 12 0
BBX 12 13 0 -2
BITMAP
0400
04E0
7FE0
7FE0
79E0
7FE0
79E0
78E0
7FE0
4FC0
08C0
08C0
0000
ENDCHAR
STARTCHAR uni559F
ENCODING 21919
SWIDTH 960 0
DWIDTH 12 0
BBX 12 13 0 -2
BITMAP
0000
07E0
77E0
57E0
57E0
5000
53C0
5240
73C0
43C0
0240
0240
0000
ENDCHAR
STARTCHAR uni55A7
ENCODING 21927
SWIDTH 960 0
DWIDTH 12 0
BBX 12 13 0 -2
BITMAP
0100
0100
EFC0
A840
A780
A780
A480
A780
E780
8000
3FE0
0000
0000
ENDCHAR
STARTCHAR uni55A8
ENCODING 21928
SWIDTH 960 0
DWIDTH 12 0
BBX 12 13 0 -2
BITMAP
0100
1FE0
E780
A780
A780
A000
AFE0
B840
F380
83A0
05A0
18E0
0000
ENDCHAR
STARTCHAR uni55A9
ENCODING 21929
SWIDTH 960 0
DWIDTH 12 0
BBX 12 13 0 -2
BITMAP
0200
0200
E500
FF80
F040
FE60
F3C0
FBC0
FF80
9FC0
13C0
17C0
0000
ENDCHAR
STARTCHAR uni55AA
ENCODING 21930
SWIDTH 960 0
DWIDTH 12 0
BBX 12 13 0 -2
BITMAP
0400
FFE0
75C0
5540
75C0
5540
0400
FFE0
2280
2300
3980
E060
0000
ENDCHAR
STARTCHAR uni55AB
ENCODING 21931
SWIDTH 960 0
DWIDTH 12 0
BBX 12 13 0 -2
BITMAP
0800
0BC0
FD40
AD40
B940
AE40
B9C0
A200
FFE0
8600
1980
2060
0000
ENDCHAR
STARTCHAR uni55AC
ENCODING 21932
SWIDTH 960 0
DWIDTH 12 0
BBX 12 13 0 -2
BITMAP
0100
3E00
FFE0
1F00
3F80
D160
1F00
7FC0
4040
5F40
5F40
40C0
0000
ENDCHAR
STARTCHAR uni55AE
ENCODING 21934
SWIDTH 960 0
DWIDTH 12 0
BBX 12 13 0 -2
BITMAP
0000
7BC0
7BC0
7BC0
3F80
6480
7F80
6480
3F80
FFE0
0400
0400
0000
ENDCHAR
STARTCHAR uni55B0
ENCODING 21936
SWIDTH 960 0
DWIDTH 12 0
BBX 12 13 0 -2
BITMAP
0100
0300
E680
A960
B7C0
A480
A780
A4C0
E7C0
8580
0640
1C20
0000
ENDCHAR
STARTCHAR uni55B6
ENCODING 21942
SWIDTH 960 0
DWIDTH 12 0
BBX 12 13 0 -2
BITMAP
2880
1500
7FE0
4040
9F00
1100
1F00
0800
3F80
2080
3F80
2080
0000
ENDCHAR
STARTCHAR uni55C4
ENCODING 21956
SWIDTH 960 0
DWIDTH 12 0
BBX 12 13 0 -2
BITMAP
0000
1FE0
E780
AF80
AF80
AF80
A880
AF80
E780
9F00
0780
3860
0000
ENDCHAR
STARTCHAR uni55C5
ENCODING 21957
SWIDTH 960 0
DWIDTH 12 0
BBX 12 13 0 -2
BITMAP
0100
0200
EF80
AF80
A880
AF80
A880
AFC0
FFE0
9FE0
0D80
3060
0000
ENDCHAR
STARTCHAR uni55C7
ENCODING 21959
SWIDTH 960 0
DWIDTH 12 0
BBX 12 13 0 -2
BITMAP
0400
0400
7FC0
3580
5680
FFE0
0000
7F80
7F80
7F80
7F80
6080
0000
ENDCHAR
STARTCHAR uni55D4
ENCODING 21972
SWIDTH 960 0
DWIDTH 12 0
BBX 12 13 0 -2
BITMAP
04C0
0700
E7E0
ABE0
AA40
ABC0
AA40
ABC0
EBC0
8FE0
06C0
3820
0000
ENDCHAR
STARTCHAR uni55DA
ENCODING 21978
SWIDTH 960 0
DWIDTH 12 0
BBX 12 13 0 -2
BITMAP
0100
0200
EF80
A880
AF80
A800
AFC0
A800
EFE0
9FA0
15A0
20C0
0000
ENDCHAR
STARTCHAR uni55DC
ENCODING 21980
SWIDTH 960 0
DWIDTH 12 0
BBX 12 13 0 -2
BITMAP
0200
0FC0
FFE0
BFE0
A780
BA40
A3C0
AF80
EF80
8F80
0F80
0880
0000
ENDCHAR
STARTCHAR uni55DF
ENCODING 21983
SWIDTH 960 0
DWIDTH 12 0
BBX 12 13 0 -2
BITMAP
0480
0380
EFC0
A780
A300
BFE0
A400
A7C0
E980
9980
3FE0
0000
0000
ENDCHAR
STARTCHAR uni55E3
ENCODING 21987
SWIDTH 960 0
DWIDTH 12 0
BBX 12 13 0 -2
BITMAP
0000
7BE0
4820
79A0
0020
FDA0
D5A0
D5A0
FDA0
D420
D420
8C60
0000
ENDCHAR
STARTCHAR uni55E4
ENCODING 21988
SWIDTH 960 0
DWIDTH 12 0
BBX 12 13 0 -2
BITMAP
0100
0940
EFC0
A7C0
BFE0
A100
AFC0
AB40
EFC0
8140
01E0
3E20
0000
ENDCHAR
STARTCHAR uni55F7
ENCODING 22007
SWIDTH 960 0
DWIDTH 12 0
BBX 12 13 0 -2
BITMAP
0980
0980
FF80
E9E0
FF40
E940
FFC0
E8C0
EE80
92C0
3340
2C20
0000
ENDCHAR
STARTCHAR uni55F9
ENCODING 22009
SWIDTH 960 0
DWIDTH 12 0
BBX 12 13 0 -2
BITMAP
0180
1180
EFE0
E3C0
F3C0
F3C0
E3C0
FBC0
EFE0
8FE0
1580
23E0
0000
ENDCHAR
STARTCHAR uni55FD
ENCODING 22013
SWIDTH 960 0
DWIDTH 12 0
BBX 12 13 0 -2
BITMAP
0980
0980
FF80
FFE0
FBE0
EAC0
EA80
FE80
9DC0
1BC0
2B20
0A20
0000
ENDCHAR
STARTCHAR uni55FE
ENCODING 22014
SWIDTH 960 0
DWIDTH 12 0
BBX 12 13 0 -2
BITMAP
0980
0980
FDE0
BFE0
A900
AFE0
AB80
AAC0
FBE0
93C0
3340
2C20
0000
ENDCHAR
STARTCHAR uni5606
ENCODING 22022
SWIDTH 960 0
DWIDTH 12 0
BBX 12 13 0 -2
BITMAP
0480
0480
FFE0
AFC0
AB40
AFC0
A100
AFC0
E100
9FE0
0CC0
3020
0000
ENDCHAR
STARTCHAR uni5609
ENCODING 22025
SWIDTH 960 0
DWIDTH 12 0
BBX 12 13 0 -2
BITMAP
0400
7FC0
0400
3F80
3F80
2080
3F80
1100
FFE0
7DC0
1540
6DC0
0000
ENDCHAR
STARTCHAR uni5614
ENCODING 22036
SWIDTH 960 0
DWIDTH 12 0
BBX 12 13 0 -2
BITMAP
0000
1FC0
F380
F380
F380
F000
F7C0
F7C0
F7C0
9100
1FE0
1000
0000
ENDCHAR
STARTCHAR uni5616
ENCODING 22038
SWIDTH 960 0
DWIDTH 12 0
BBX 12 13 0 -2
BITMAP
0100
0FC0
E780
A780
BFE0
A780
A480
A780
E780
8780
0680
1840
0000
ENDCHAR
STARTCHAR uni5617
ENCODING 22039
SWIDTH 960 0
DWIDTH 12 0
BBX 12 13 0 -2
BITMAP
2880
1500
7FE0
9120
3F80
3F00
2040
3FC0
1F00
1F00
1100
1F00
0000
ENDCHAR
STARTCHAR uni5618
ENCODING 22040
SWIDTH 960 0
DWIDTH 12 0
BBX 12 13 0 -2
BITMAP
0200
03C0
EFE0
A9C0
AE40
A9C0
AA80
AAC0
F6C0
A680
2FE0
0000
0000
ENDCHAR
STARTCHAR uni561B
ENCODING 22043
SWIDTH 960 0
DWIDTH 12 0
BBX 12 13 0 -2
BITMAP
0100
0300
FFE0
F280
FFE0
F280
F7C0
F7C0
F7E0
BFE0
23E0
2280
0000
ENDCHAR
STARTCHAR uni5629
ENCODING 22057
SWIDTH 960 0
DWIDTH 12 0
BBX 12 13 0 -2
BITMAP
0480
0480
FFE0
AFC0
A580
BFE0
A580
AFC0
E100
9FE0
0100
0100
0000
ENDCHAR
STARTCHAR uni562F
ENCODING 22063
SWIDTH 960 0
DWIDTH 12 0
BBX 12 13 0 -2
BITMAP
0200
1FC0
FFE0
FFE0
FFC0
F7C0
FEC0
F240
FFC0
9EC0
17C0
27C0
0000
ENDCHAR
STARTCHAR uni5631
ENCODING 22065
SWIDTH 960 0
DWIDTH 12 0
BBX 12 13 0 -2
BITMAP
0FE0
0820
EFE0
AFE0
AF80
ABC0
EAC0
ABE0
8FE0
17E0
1420
2460
0000
ENDCHAR
STARTCHAR uni5632
ENCODING 22066
SWIDTH 960 0
DWIDTH 12 0
BBX 12 13 0 -2
BITMAP
0400
04E0
7FE0
7FE0
79E0
7FE0
79E0
7FE0
7FA0
5FA0
0520
0660
0000
ENDCHAR
STARTCHAR uni5634
ENCODING 22068
SWIDTH 960 0
DWIDTH 12 0
BBX 12 13 0 -2
BITMAP
0580
15A0
F7C0
FFA0
F3E0
E580
FFC0
EB40
EFC0
8FC0
1040
20C0
0000
ENDCHAR
STARTCHAR uni5636
ENCODING 22070
SWIDTH 960 0
DWIDTH 12 0
BBX 12 13 0 -2
BITMAP
1440
1480
FF00
FF00
FDE0
F580
FD80
F780
FF80
9680
3280
2480
0000
ENDCHAR
STARTCHAR uni5638
ENCODING 22072
SWIDTH 960 0
DWIDTH 12 0
BBX 12 13 0 -2
BITMAP
0800
0800
EFE0
FBC0
FFE0
EBC0
EBC0
EBC0
FFE0
9440
1320
23A0
0000
ENDCHAR
STARTCHAR uni5642
ENCODING 22082
SWIDTH 960 0
DWIDTH 12 0
BBX 12 13 0 -2
BITMAP
0480
0280
FFE0
A280
AFC0
AB40
AFC0
AFC0
E080
9FE0
0480
0180
0000
ENDCHAR
STARTCHAR uni564C
ENCODING 22092
SWIDTH 960 0
DWIDTH 12 0
BBX 12 13 0 -2
BITMAP
0240
0180
77E0
57E0
54A0
57E0
5000
53C0
7240
43C0
03C0
0240
0000
ENDCHAR
STARTCHAR uni564E
ENCODING 22094
SWIDTH 960 0
DWIDTH 12 0
BBX 12 13 0 -2
BITMAP
0100
1FE0
E780
AFE0
A840
BFE0
A780
A480
E780
8680
3FE0
0000
0000
ENDCHAR
STARTCHAR uni5650
ENCODING 22096
SWIDTH 960 0
DWIDTH 12 0
BBX 12 13 0 -2
BITMAP
0000
7B80
6A80
7B80
0000
7FC0
0400
FFE0
3B80
7B80
7B80
6A80
0000
ENDCHAR
STARTCHAR uni565B
ENCODING 22107
SWIDTH 960 0
DWIDTH 12 0
BBX 12 13 0 -2
BITMAP
0100
05C0
E500
BFE0
BFC0
AD40
ABC0
AFC0
EBC0
8D40
0FC0
0840
0000
ENDCHAR
STARTCHAR uni5664
ENCODING 22116
SWIDTH 960 0
DWIDTH 12 0
BBX 12 13 0 -2
BITMAP
0480
04C0
FFE0
AFC0
B5E0
A480
AFC0
B000
FFE0
8940
1140
0300
0000
ENDCHAR
STARTCHAR uni5668
ENCODING 22120
SWIDTH 960 0
DWIDTH 12 0
BBX 12 13 0 -2
BITMAP
0000
3B80
2A80
3B80
0400
FFE0
1100
60C0
BBA0
2A80
3B80
2A80
0000
ENDCHAR
STARTCHAR uni566A
ENCODING 22122
SWIDTH 960 0
DWIDTH 12 0
BBX 12 13 0 -2
BITMAP
0000
0780
E780
A780
AEC0
ABC0
AFC0
B300
FFE0
8780
1960
0100
0000
ENDCHAR
STARTCHAR uni566B
ENCODING 22123
SWIDTH 960 0
DWIDTH 12 0
BBX 12 13 0 -2
BITMAP
0100
0300
EFC0
BFE0
B7C0
A480
A780
A480
E780
9740
14E0
23A0
0000
ENDCHAR
STARTCHAR uni566C
ENCODING 22124
SWIDTH 960 0
DWIDTH 12 0
BBX 12 13 0 -2
BITMAP
0980
0980
FFE0
B640
A000
BFE0
A580
A5C0
E7E0
9B20
3FE0
0000
0000
ENDCHAR
STARTCHAR uni5674
ENCODING 22132
SWIDTH 960 0
DWIDTH 12 0
BBX 12 13 0 -2
BITMAP
0100
0FC0
FFE0
A480
AFC0
A840
AFC0
A840
EFC0
8FC0
0480
1860
0000
ENDCHAR
STARTCHAR uni5678
ENCODING 22136
SWIDTH 960 0
DWIDTH 12 0
BBX 12 13 0 -2
BITMAP
0800
0BE0
EE80
BBC0
AB40
ABC0
AB40
FFC0
A940
09C0
08C0
0720
0000
ENDCHAR
STARTCHAR uni567A
ENCODING 22138
SWIDTH 960 0
DWIDTH 12 0
BBX 12 13 0 -2
BITMAP
0420
0440
FF80
AB00
ADE0
BF40
A940
BF40
FD40
BA40
2A40
0840
0000
ENDCHAR
STARTCHAR uni5680
ENCODING 22144
SWIDTH 960 0
DWIDTH 12 0
BBX 12 13 0 -2
BITMAP
0100
0FE0
FB40
BBA0
AAA0
B180
AFC0
BBC0
FFE0
9FE0
0300
0300
0000
ENDCHAR
STARTCHAR uni5686
ENCODING 22150
SWIDTH 960 0
DWIDTH 12 0
BBX 12 13 0 -2
BITMAP
0480
1FE0
E500
BFE0
B7C0
A480
A780
AFC0
EB40
8BC0
0BC0
08C0
0000
ENDCHAR
STARTCHAR uni5687
ENCODING 22151
SWIDTH 960 0
DWIDTH 12 0
BBX 12 13 0 -2
BITMAP
0880
0880
FFE0
C880
FFE0
D540
D740
F760
F760
9540
1540
2EC0
0000
ENDCHAR
STARTCHAR uni568A
ENCODING 22154
SWIDTH 960 0
DWIDTH 12 0
BBX 12 13 0 -2
BITMAP
0100
0780
E780
A780
A480
A780
AFC0
AFC0
EFC0
9FE0
04C0
1880
0000
ENDCHAR
STARTCHAR uni568F
ENCODING 22159
SWIDTH 960 0
DWIDTH 12 0
BBX 12 13 0 -2
BITMAP
0100
0FC0
E7E0
AFE0
B7C0
A780
A580
B7C0
FFE0
89C0
1700
21E0
0000
ENDCHAR
STARTCHAR uni5694
ENCODING 22164
SWIDTH 960 0
DWIDTH 12 0
BBX 12 13 0 -2
BITMAP
0100
0FC0
E7E0
AFE0
B7C0
A780
A580
A780
E780
8FC0
1700
21E0
0000
ENDCHAR
STARTCHAR uni56A0
ENCODING 22176
SWIDTH 960 0
DWIDTH 12 0
BBX 12 13 0 -2
BITMAP
0420
1BA0
FFA0
FFA0
E6A0
EAA0
FFA0
F5A0
FFA0
8E20
0F20
3060
0000
ENDCHAR
STARTCHAR uni56A2
ENCODING 22178
SWIDTH 960 0
DWIDTH 12 0
BBX 12 13 0 -2
BITMAP
0400
FFE0
3F80
3F80
7FE0
6BC0
FFC0
3F80
FFE0
FB80
1D80
6060
0000
ENDCHAR
STARTCHAR uni56A5
ENCODING 22181
SWIDTH 960 0
DWIDTH 12 0
BBX 12 13 0 -2
BITMAP
0500
3FE0
E700
F6A0
F7C0
F580
F5A0
F7E0
F460
9440
1320
23A0
0000
ENDCHAR
STARTCHAR uni56AE
ENCODING 22190
SWIDTH 960 0
DWIDTH 12 0
BBX 12 13 0 -2
BITMAP
3FE0
37E0
77C0
37E0
34E0
77E0
2700
2200
3FE0
2FA0
2FA0
2060
0000
ENDCHAR
STARTCHAR uni56B4
ENCODING 22196
SWIDTH 960 0
DWIDTH 12 0
BBX 12 13 0 -2
BITMAP
79C0
6940
7FE0
7FE0
7F80
4980
7FE0
7740
7FC0
7F80
7F40
8620
0000
ENDCHAR
STARTCHAR uni56B6
ENCODING 22198
SWIDTH 960 0
DWIDTH 12 0
BBX 12 13 0 -2
BITMAP
0000
0FC0
EFC0
AFC0
AFC0
ABC0
AFC0
BB40
FFE0
9FE0
0380
1CC0
0000
ENDCHAR
STARTCHAR uni56BC
ENCODING 22204
SWIDTH 960 0
DWIDTH 12 0
BBX 12 13 0 -2
BITMAP
00C0
1FC0
FFE0
FFE0
FFC0
FE40
F240
FFE0
FF40
9FC0
1E40
10C0
0000
ENDCHAR
STARTCHAR uni56C0
ENCODING 22208
SWIDTH 960 0
DWIDTH 12 0
BBX 12 13 0 -2
BITMAP
0880
08C0
FFE0
FFE0
FBE0
FFA0
EBE0
FFC0
FFE0
BFE0
09C0
08C0
0000
ENDCHAR
STARTCHAR uni56C1
ENCODING 22209
SWIDTH 960 0
DWIDTH 12 0
BBX 12 13 0 -2
BITMAP
0000
0FC0
E780
A780
AFC0
A080
BFE0
ABC0
EFC0
8FE0
3FC0
0240
0000
ENDCHAR
STARTCHAR uni56C2
ENCODING 22210
SWIDTH 960 0
DWIDTH 12 0
BBX 12 13 0 -2
BITMAP
7B80
6A80
FFE0
FFE0
3F80
7E80
6F80
3F80
FBE0
FBE0
7B80
6A80
0000
ENDCHAR
STARTCHAR uni56C3
ENCODING 22211
SWIDTH 960 0
DWIDTH 12 0
BBX 12 13 0 -2
BITMAP
09C0
09C0
FFE0
F5E0
FFC0
EBE0
E9C0
FFC0
FDE0
BBC0
29E0
0980
0000
ENDCHAR
STARTCHAR uni56C8
ENCODING 22216
SWIDTH 960 0
DWIDTH 12 0
BBX 12 13 0 -2
BITMAP
0580
3FE0
ED80
EFC0
FFC0
FFC0
FFE0
EF60
FFA0
BFE0
04C0
1FC0
0000
ENDCHAR
STARTCHAR uni56CE
ENCODING 22222
SWIDTH 960 0
DWIDTH 12 0
BBX 12 13 0 -2
BITMAP
0180
1DC0
F7E0
FFE0
F7E0
F7E0
FC00
F5C0
FDC0
99C0
15C0
2540
0000
ENDCHAR
STARTCHAR uni56D1
ENCODING 22225
SWIDTH 960 0
DWIDTH 12 0
BBX 12 13 0 -2
BITMAP
1FE0
1820
7FE0
76E0
7FE0
7AE0
7FE0
77E0
7FE0
1FE0
11E0
2FC0
0000
ENDCHAR
STARTCHAR uni56D3
ENCODING 22227
SWIDTH 960 0
DWIDTH 12 0
BBX 12 13 0 -2
BITMAP
0E00
3BC0
FFC0
FF40
F2C0
EB80
FFE0
F5C0
FFC0
9FC0
1BC0
1FC0
0000
ENDCHAR
STARTCHAR uni56D7
ENCODING 22231
SWIDTH 960 0
DWIDTH 12 0
BBX 12 13 0 -2
BITMAP
0000
7FC0
4040
4040
4040
4040
4040
4040
4040
4040
7FC0
4040
0000
ENDCHAR
STARTCHAR uni56D8
ENCODING 22232
SWIDTH 960 0
DWIDTH 12 0
BBX 12 13 0 -2
BITMAP
0000
7FC0
4040
5E40
5340
5140
5F40
5040
51C0
4FC0
4040
40C0
0000
ENDCHAR
STARTCHAR uni56DA
ENCODING 22234
SWIDTH 960 0
DWIDTH 12 0
BBX 12 13 0 -2
BITMAP
0000
7FC0
4440
4440
4440
4440
4A40
4A40
5140
4040
7FC0
4040
0000
ENDCHAR
STARTCHAR uni56DB
ENCODING 22235
SWIDTH 960 0
DWIDTH 12 0
BBX 12 13 0 -2
BITMAP
0000
7FE0
4920
4920
4920
5120
5120
60E0
4020
7FE0
4020
4020
0000
ENDCHAR
STARTCHAR uni56DE
ENCODING 22238
SWIDTH 960 0
DWIDTH 12 0
BBX 12 13 0 -2
BITMAP
0000
7FC0
4040
5F40
5140
5140
5140
5140
5F40
4040
7FC0
4040
0000
ENDCHAR
STARTCHAR uni56E0
ENCODING 22240
SWIDTH 960 0
DWIDTH 12 0
BBX 12 13 0 -2
BITMAP
0000
7FC0
4440
4440
7FC0
4440
4C40
4A40
5140
4040
7FC0
4040
0000
ENDCHAR
STARTCHAR uni56E3
ENCODING 22243
SWIDTH 960 0
DWIDTH 12 0
BBX 12 13 0 -2
BITMAP
0000
7FC0
4240
7FC0
4240
5240
4A40
4A40
4240
4640
7FC0
4040
0000
ENDCHAR
STARTCHAR uni56EE
ENCODING 22254
SWIDTH 960 0
DWIDTH 12 0
BBX 12 13 0 -2
BITMAP
0000
7FC0
4040
4A40
52C0
7340
5240
52C0
53C0
41C0
7FC0
4040
0000
ENDCHAR
STARTCHAR uni56F0
ENCODING 22256
SWIDTH 960 0
DWIDTH 12 0
BBX 12 13 0 -2
BITMAP
0000
7FC0
4440
4440
7FC0
4E40
4E40
5540
64C0
4440
7FC0
4040
0000
ENDCHAR
STARTCHAR uni56F2
ENCODING 22258
SWIDTH 960 0
DWIDTH 12 0
BBX 12 13 0 -2
BITMAP
0000
7FC0
4040
4940
5FC0
4940
4940
7FC0
4940
5140
7FC0
4040
0000
ENDCHAR
STARTCHAR uni56F3
ENCODING 22259
SWIDTH 960 0
DWIDTH 12 0
BBX 12 13 0 -2
BITMAP
0000
7FC0
4040
44C0
54C0
5140
4140
5E40
4540
5840
7FC0
4040
0000
ENDCHAR
STARTCHAR uni56F9
ENCODING 22265
SWIDTH 960 0
DWIDTH 12 0
BBX 12 13 0 -2
BITMAP
0000
7FC0
4440
5B40
7FC0
4040
7FC0
45C0
4740
4640
7FC0
4040
0000
ENDCHAR
STARTCHAR uni56FA
ENCODING 22266
SWIDTH 960 0
DWIDTH 12 0
BBX 12 13 0 -2
BITMAP
0000
7FC0
4440
7FC0
4440
5F40
5140
5140
5F40
4040
7FC0
4040
0000
ENDCHAR
STARTCHAR uni56FD
ENCODING 22269
SWIDTH 960 0
DWIDTH 12 0
BBX 12 13 0 -2
BITMAP
0000
7FC0
4040
5F40
4440
5F40
4440
4540
5FC0
4040
7FC0
4040
0000
ENDCHAR
STARTCHAR uni56FF
ENCODING 22271
SWIDTH 960 0
DWIDTH 12 0
BBX 12 13 0 -2
BITMAP
0000
7FC0
7FC0
7FC0
5F40
59C0
6FC0
49C0
4FC0
49C0
7FC0
4040
0000
ENDCHAR
STARTCHAR uni5700
ENCODING 22272
SWIDTH 960 0
DWIDTH 12 0
BBX 12 13 0 -2
BITMAP
0000
7FC0
5240
57C0
4440
7F40
4440
47C0
49C0
5340
7FC0
4040
0000
ENDCHAR
STARTCHAR uni5703
ENCODING 22275
SWIDTH 960 0
DWIDTH 12 0
BBX 12 13 0 -2
BITMAP
0000
7FC0
4540
7FC0
5F40
5540
5F40
5540
5F40
5540
7FC0
4040
0000
ENDCHAR
STARTCHAR uni5704
ENCODING 22276
SWIDTH 960 0
DWIDTH 12 0
BBX 12 13 0 -2
BITMAP
0000
7FC0
5F40
5F40
7F40
4940
7FC0
5F40
5F40
4E40
7FC0
4040
0000
ENDCHAR
STARTCHAR uni5708
ENCODING 22280
SWIDTH 960 0
DWIDTH 12 0
BBX 12 13 0 -2
BITMAP
0000
7FC0
7FC0
4E40
7FC0
5140
7FC0
53C0
5640
4FC0
7FC0
4040
0000
ENDCHAR
STARTCHAR uni5709
ENCODING 22281
SWIDTH 960 0
DWIDTH 12 0
BBX 12 13 0 -2
BITMAP
0000
7FC0
4E40
4E40
7F40
5140
4A40
7F40
4E40
4E40
7FC0
4040
0000
ENDCHAR
STARTCHAR uni570B
ENCODING 22283
SWIDTH 960 0
DWIDTH 12 0
BBX 12 13 0 -2
BITMAP
0000
7FC0
4340
7FC0
4240
7A40
6BC0
79C0
7FC0
74C0
7FC0
4040
0000
ENDCHAR
STARTCHAR uni570D
ENCODING 22285
SWIDTH 960 0
DWIDTH 12 0
BBX 12 13 0 -2
BITMAP
0000
7FC0
4E40
4F40
7F40
5F40
5F40
5F40
5F40
5F40
7FC0
4040
0000
ENDCHAR
STARTCHAR uni570F
ENCODING 22287
SWIDTH 960 0
DWIDTH 12 0
BBX 12 13 0 -2
BITMAP
0000
7FC0
5540
4E40
7FC0
5140
7FC0
4F40
50C0
4FC0
7FC0
4040
0000
ENDCHAR
STARTCHAR uni5712
ENCODING 22290
SWIDTH 960 0
DWIDTH 12 0
BBX 12 13 0 -2
BITMAP
0000
7FC0
4440
5F40
7FC0
5F40
5140
5FC0
4E40
5540
7FC0
4040
0000
ENDCHAR
STARTCHAR uni5713
ENCODING 22291
SWIDTH 960 0
DWIDTH 12 0
BBX 12 13 0 -2
BITMAP
0000
7FC0
5F40
5F40
71C0
7FC0
7FC0
71C0
5FC0
79C0
7FC0
4040
0000
ENDCHAR
STARTCHAR uni5716
ENCODING 22294
SWIDTH 960 0
DWIDTH 12 0
BBX 12 13 0 -2
BITMAP
0000
7FC0
5F40
5F40
4440
7FC0
7FC0
6FC0
6FC0
7FC0
7FC0
4040
0000
ENDCHAR
STARTCHAR uni5718
ENCODING 22296
SWIDTH 960 0
DWIDTH 12 0
BBX 12 13 0 -2
BITMAP
0000
7FC0
5F40
5F40
5740
5F40
5540
5FC0
5F40
5F40
4B40
7FC0
0000
ENDCHAR
STARTCHAR uni571C
ENCODING 22300
SWIDTH 960 0
DWIDTH 12 0
BBX 12 13 0 -2
BITMAP
0000
7FC0
7FC0
7FC0
7FC0
5F40
5140
5FC0
7F40
59C0
7FC0
4040
0000
ENDCHAR
STARTCHAR uni571F
ENCODING 22303
SWIDTH 960 0
DWIDTH 12 0
BBX 12 13 0 -2
BITMAP
0400
0400
0400
0400
7FC0
0400
0400
0400
0400
0400
FFE0
0000
0000
ENDCHAR
STARTCHAR uni5726
ENCODING 22310
SWIDTH 960 0
DWIDTH 12 0
BBX 12 13 0 -2
BITMAP
0700
6100
6100
F100
6100
6300
6380
7380
E480
8880
1040
2020
0000
ENDCHAR
STARTCHAR uni5727
ENCODING 22311
SWIDTH 960 0
DWIDTH 12 0
BBX 12 13 0 -2
BITMAP
0000
3FE0
2200
2200
2200
2FC0
2200
2200
4200
4200
9FE0
0000
0000
ENDCHAR
STARTCHAR uni5728
ENCODING 22312
SWIDTH 960 0
DWIDTH 12 0
BBX 12 13 0 -2
BITMAP
0800
0800
FFE0
1000
1100
2100
2FC0
6100
A100
2100
3FE0
2000
0000
ENDCHAR
STARTCHAR uni572D
ENCODING 22317
SWIDTH 960 0
DWIDTH 12 0
BBX 12 13 0 -2
BITMAP
0400
0400
3F80
0400
FFE0
0400
0400
7FC0
0400
0400
FFE0
0000
0000
ENDCHAR
STARTCHAR uni5730
ENCODING 22320
SWIDTH 960 0
DWIDTH 12 0
BBX 12 13 0 -2
BITMAP
0100
2900
2900
F9C0
2F40
3940
2940
2940
3980
C820
0820
07E0
0000
ENDCHAR
STARTCHAR uni5737
ENCODING 22327
SWIDTH 960 0
DWIDTH 12 0
BBX 12 13 0 -2
BITMAP
0000
6FE0
6100
F100
6100
6180
6140
7140
E100
8100
0100
0100
0000
ENDCHAR
STARTCHAR uni5738
ENCODING 22328
SWIDTH 960 0
DWIDTH 12 0
BBX 12 13 0 -2
BITMAP
0080
3080
3080
7CA0
34A0
34A0
34A0
3CA0
74A0
47E0
0420
0420
0000
ENDCHAR
STARTCHAR uni573B
ENCODING 22331
SWIDTH 960 0
DWIDTH 12 0
BBX 12 13 0 -2
BITMAP
0040
6180
6600
F400
67E0
6580
6580
7580
E980
9980
3180
0180
0000
ENDCHAR
STARTCHAR uni5740
ENCODING 22336
SWIDTH 960 0
DWIDTH 12 0
BBX 12 13 0 -2
BITMAP
0100
6100
6100
F900
69C0
6900
6900
7900
E900
8900
3FE0
0000
0000
ENDCHAR
STARTCHAR uni5742
ENCODING 22338
SWIDTH 960 0
DWIDTH 12 0
BBX 12 13 0 -2
BITMAP
2000
27E0
2400
F400
27C0
2440
2680
3580
6900
8A80
1440
2020
0000
ENDCHAR
STARTCHAR uni5747
ENCODING 22343
SWIDTH 960 0
DWIDTH 12 0
BBX 12 13 0 -2
BITMAP
0200
1200
13E0
7E20
1420
1120
1120
18A0
1320
6020
0020
0040
0000
ENDCHAR
STARTCHAR uni574A
ENCODING 22346
SWIDTH 960 0
DWIDTH 12 0
BBX 12 13 0 -2
BITMAP
0100
2100
2FE0
F100
2100
2100
23C0
2240
3440
C840
1040
2080
0000
ENDCHAR
STARTCHAR uni574E
ENCODING 22350
SWIDTH 960 0
DWIDTH 12 0
BBX 12 13 0 -2
BITMAP
0400
6400
67E0
FFE0
6940
7180
6300
7380
E680
8480
0840
1020
0000
ENDCHAR
STARTCHAR uni574F
ENCODING 22351
SWIDTH 960 0
DWIDTH 12 0
BBX 12 13 0 -2
BITMAP
0000
6FE0
6180
F100
6100
6380
6540
7920
E120
8100
0100
0100
0000
ENDCHAR
STARTCHAR uni5750
ENCODING 22352
SWIDTH 960 0
DWIDTH 12 0
BBX 12 13 0 -2
BITMAP
0400
2480
2480
2480
7580
4E40
8420
7FC0
0400
0400
FFE0
0000
0000
ENDCHAR
STARTCHAR uni5751
ENCODING 22353
SWIDTH 960 0
DWIDTH 12 0
BBX 12 13 0 -2
BITMAP
0100
2100
2FE0
F000
2780
2480
2480
2C80
7480
88A0
10A0
20E0
0000
ENDCHAR
STARTCHAR uni5761
ENCODING 22369
SWIDTH 960 0
DWIDTH 12 0
BBX 12 13 0 -2
BITMAP
0100
6300
6FE0
F940
6900
6FC0
6C40
7A80
FB80
9180
3680
3860
0000
ENDCHAR
STARTCHAR uni5764
ENCODING 22372
SWIDTH 960 0
DWIDTH 12 0
BBX 12 13 0 -2
BITMAP
0080
1080
17E0
7CA0
14A0
17E0
14A0
1CA0
37E0
4080
0080
0080
0000
ENDCHAR
STARTCHAR uni5766
ENCODING 22374
SWIDTH 960 0
DWIDTH 12 0
BBX 12 13 0 -2
BITMAP
0000
2780
2480
F480
2780
2480
2480
3480
6780
8000
3FE0
0000
0000
ENDCHAR
STARTCHAR uni5769
ENCODING 22377
SWIDTH 960 0
DWIDTH 12 0
BBX 12 13 0 -2
BITMAP
0480
6480
6FE0
FFE0
6480
6480
6780
7480
E480
8480
0780
0480
0000
ENDCHAR
STARTCHAR uni576A
ENCODING 22378
SWIDTH 960 0
DWIDTH 12 0
BBX 12 13 0 -2
BITMAP
0000
3FE0
2100
F940
2580
2100
3FE0
2100
3100
C100
0100
0100
0000
ENDCHAR
STARTCHAR uni577F
ENCODING 22399
SWIDTH 960 0
DWIDTH 12 0
BBX 12 13 0 -2
BITMAP
0280
6280
6680
F7E0
6CC0
7680
6580
7580
E480
8480
0480
0480
0000
ENDCHAR
STARTCHAR uni5782
ENCODING 22402
SWIDTH 960 0
DWIDTH 12 0
BBX 12 13 0 -2
BITMAP
0180
3E00
0400
7FC0
2500
2500
FFE0
2500
2500
7FC0
0400
7FC0
0000
ENDCHAR
STARTCHAR uni5788
ENCODING 22408
SWIDTH 960 0
DWIDTH 12 0
BBX 12 13 0 -2
BITMAP
1180
1140
27E0
2780
6080
A4A0
2460
0420
3F80
0400
FFE0
0000
0000
ENDCHAR
STARTCHAR uni5789
ENCODING 22409
SWIDTH 960 0
DWIDTH 12 0
BBX 12 13 0 -2
BITMAP
0400
6400
67C0
FFC0
7F40
6940
6940
7F40
E980
8820
0820
07E0
0000
ENDCHAR
STARTCHAR uni578B
ENCODING 22411
SWIDTH 960 0
DWIDTH 12 0
BBX 12 13 0 -2
BITMAP
0040
7F40
2940
FF40
2940
2940
48C0
8400
3F80
0400
FFE0
0000
0000
ENDCHAR
STARTCHAR uni5793
ENCODING 22419
SWIDTH 960 0
DWIDTH 12 0
BBX 12 13 0 -2
BITMAP
0100
6300
6FE0
F100
6680
6280
6140
7340
E680
81C0
0620
1820
0000
ENDCHAR
STARTCHAR uni57A0
ENCODING 22432
SWIDTH 960 0
DWIDTH 12 0
BBX 12 13 0 -2
BITMAP
0000
6F80
6880
FF80
6880
6880
6FA0
7920
E9C0
8A80
0C40
3020
0000
ENDCHAR
STARTCHAR uni57A2
ENCODING 22434
SWIDTH 960 0
DWIDTH 12 0
BBX 12 13 0 -2
BITMAP
00C0
2F00
2800
FFE0
2800
2800
2BC0
3A40
6A40
9240
33C0
0240
0000
ENDCHAR
STARTCHAR uni57A3
ENCODING 22435
SWIDTH 960 0
DWIDTH 12 0
BBX 12 13 0 -2
BITMAP
0000
2FE0
2000
F780
2480
2780
2480
3480
6780
8000
3FE0
0000
0000
ENDCHAR
STARTCHAR uni57A4
ENCODING 22436
SWIDTH 960 0
DWIDTH 12 0
BBX 12 13 0 -2
BITMAP
0000
6FE0
6100
F240
6FE0
6120
6100
7FC0
E100
8100
1FE0
0000
0000
ENDCHAR
STARTCHAR uni57AA
ENCODING 22442
SWIDTH 960 0
DWIDTH 12 0
BBX 12 13 0 -2
BITMAP
0440
6240
67E0
FFE0
6280
6280
6280
7FE0
E680
8480
0880
1080
0000
ENDCHAR
STARTCHAR uni57B0
ENCODING 22448
SWIDTH 960 0
DWIDTH 12 0
BBX 12 13 0 -2
BITMAP
0100
6100
61C0
F100
6FE0
6000
6FE0
7100
E1C0
8100
0100
0100
0000
ENDCHAR
STARTCHAR uni57B3
ENCODING 22451
SWIDTH 960 0
DWIDTH 12 0
BBX 12 13 0 -2
BITMAP
0200
63C0
6400
FA00
63E0
6480
6C80
7480
E480
8480
0480
0480
0000
ENDCHAR
STARTCHAR uni57C0
ENCODING 22464
SWIDTH 960 0
DWIDTH 12 0
BBX 12 13 0 -2
BITMAP
0180
3F00
FFE0
FFE0
75C0
1580
3540
54C0
3F80
3F80
FFE0
0000
0000
ENDCHAR
STARTCHAR uni57C3
ENCODING 22467
SWIDTH 960 0
DWIDTH 12 0
BBX 12 13 0 -2
BITMAP
0100
63C0
67E0
FFE0
6200
67C0
6900
6300
FFE0
8300
0C80
3060
0000
ENDCHAR
STARTCHAR uni57C6
ENCODING 22470
SWIDTH 960 0
DWIDTH 12 0
BBX 12 13 0 -2
BITMAP
0100
31C0
3680
7FE0
35A0
34A0
37E0
3CA0
77E0
47E0
0820
1060
0000
ENDCHAR
STARTCHAR uni57CB
ENCODING 22475
SWIDTH 960 0
DWIDTH 12 0
BBX 12 13 0 -2
BITMAP
2000
2FC0
2940
FFC0
2940
2940
2FC0
3100
CFC0
0100
3FE0
0000
0000
ENDCHAR
STARTCHAR uni57CE
ENCODING 22478
SWIDTH 960 0
DWIDTH 12 0
BBX 12 13 0 -2
BITMAP
0180
2140
2FE0
F900
2940
2F40
2BC0
3A80
6A80
8AA0
1760
2020
0000
ENDCHAR
STARTCHAR uni57D2
ENCODING 22482
SWIDTH 960 0
DWIDTH 12 0
BBX 12 13 0 -2
BITMAP
0040
6180
6F40
F520
6920
6080
6080
7FE0
E480
8280
0080
0080
0000
ENDCHAR
STARTCHAR uni57D3
ENCODING 22483
SWIDTH 960 0
DWIDTH 12 0
BBX 12 13 0 -2
BITMAP
0100
6320
6EE0
F6C0
6380
6E80
6080
7FE0
E480
8280
0080
0080
0000
ENDCHAR
STARTCHAR uni57D4
ENCODING 22484
SWIDTH 960 0
DWIDTH 12 0
BBX 12 13 0 -2
BITMAP
0180
6340
7FE0
FFC0
6B40
6940
6FC0
7940
EFC0
8FC0
0940
09C0
0000
ENDCHAR
STARTCHAR uni57D6
ENCODING 22486
SWIDTH 960 0
DWIDTH 12 0
BBX 12 13 0 -2
BITMAP
0480
64C0
7FE0
F680
6380
63A0
65C0
7580
FD80
85A0
05A0
04E0
0000
ENDCHAR
STARTCHAR uni57DC
ENCODING 22492
SWIDTH 960 0
DWIDTH 12 0
BBX 12 13 0 -2
BITMAP
2080
2080
FFE0
7180
6AC0
A4A0
2400
0400
3F80
0400
FFE0
0000
0000
ENDCHAR
STARTCHAR uni57DF
ENCODING 22495
SWIDTH 960 0
DWIDTH 12 0
BBX 12 13 0 -2
BITMAP
0100
2140
2FE0
2100
FF40
2B40
2AC0
2EC0
3980
C6A0
0960
0220
0000
ENDCHAR
STARTCHAR uni57E0
ENCODING 22496
SWIDTH 960 0
DWIDTH 12 0
BBX 12 13 0 -2
BITMAP
0100
2200
2F80
FF80
2800
2FC0
2840
2FC0
3100
CFE0
0100
0100
0000
ENDCHAR
STARTCHAR uni57E3
ENCODING 22499
SWIDTH 960 0
DWIDTH 12 0
BBX 12 13 0 -2
BITMAP
0100
6300
7FE0
F480
66C0
69A0
7120
6300
FFE0
8100
0100
0100
0000
ENDCHAR
STARTCHAR uni57F4
ENCODING 22516
SWIDTH 960 0
DWIDTH 12 0
BBX 12 13 0 -2
BITMAP
0100
2100
2FE0
F3C0
2A40
2BC0
2A40
3BC0
6A40
8BC0
0800
0FE0
0000
ENDCHAR
STARTCHAR uni57F7
ENCODING 22519
SWIDTH 960 0
DWIDTH 12 0
BBX 12 13 0 -2
BITMAP
2100
7100
2780
F980
8980
4B80
5180
F980
2280
7AA0
24A0
2860
0000
ENDCHAR
STARTCHAR uni57F9
ENCODING 22521
SWIDTH 960 0
DWIDTH 12 0
BBX 12 13 0 -2
BITMAP
0100
2100
2FE0
F280
2280
3FE0
2000
27C0
3440
C440
07C0
0440
0000
ENDCHAR
STARTCHAR uni57FA
ENCODING 22522
SWIDTH 960 0
DWIDTH 12 0
BBX 12 13 0 -2
BITMAP
1100
FFE0
1100
1F00
1F00
1100
FFE0
2480
7FC0
8420
7FC0
0000
0000
ENDCHAR
STARTCHAR uni57FC
ENCODING 22524
SWIDTH 960 0
DWIDTH 12 0
BBX 12 13 0 -2
BITMAP
0100
2100
2FC0
F280
2440
3FE0
2040
3740
6540
8740
0440
00C0
0000
ENDCHAR
STARTCHAR uni5800
ENCODING 22528
SWIDTH 960 0
DWIDTH 12 0
BBX 12 13 0 -2
BITMAP
0000
2FE0
2820
FFE0
2880
2AC0
2AC0
3BC0
D4A0
14A0
27E0
2420
0000
ENDCHAR
STARTCHAR uni5802
ENCODING 22530
SWIDTH 960 0
DWIDTH 12 0
BBX 12 13 0 -2
BITMAP
2480
1500
7FE0
8000
3F80
2080
3F80
0400
3F80
0400
FFE0
0000
0000
ENDCHAR
STARTCHAR uni5805
ENCODING 22533
SWIDTH 960 0
DWIDTH 12 0
BBX 12 13 0 -2
BITMAP
0000
7FC0
7A40
7980
7980
5280
7C60
4400
3F80
0400
FFE0
0000
0000
ENDCHAR
STARTCHAR uni5806
ENCODING 22534
SWIDTH 960 0
DWIDTH 12 0
BBX 12 13 0 -2
BITMAP
0480
2480
2500
FFE0
2D00
27C0
2500
3500
67C0
8500
07E0
0400
0000
ENDCHAR
STARTCHAR uni580A
ENCODING 22538
SWIDTH 960 0
DWIDTH 12 0
BBX 12 13 0 -2
BITMAP
0000
FFE0
3B80
7B80
7B80
6A80
0A00
FFE0
3F80
3F80
FFE0
0000
0000
ENDCHAR
STARTCHAR uni580B
ENCODING 22539
SWIDTH 960 0
DWIDTH 12 0
BBX 12 13 0 -2
BITMAP
0000
37E0
35E0
7DE0
37E0
35E0
35E0
37E0
7DE0
49A0
19A0
1360
0000
ENDCHAR
STARTCHAR uni5815
ENCODING 22549
SWIDTH 960 0
DWIDTH 12 0
BBX 12 13 0 -2
BITMAP
0200
FFE0
A7C0
CC40
B7C0
A440
C7C0
8440
BFC0
0400
FFE0
0000
0000
ENDCHAR
STARTCHAR uni5819
ENCODING 22553
SWIDTH 960 0
DWIDTH 12 0
BBX 12 13 0 -2
BITMAP
0000
7FE0
67C0
FFC0
6BC0
6FC0
6940
7300
EFC0
8100
3FE0
0000
0000
ENDCHAR
STARTCHAR uni581D
ENCODING 22557
SWIDTH 960 0
DWIDTH 12 0
BBX 12 13 0 -2
BITMAP
0000
33C0
32C0
7AC0
32C0
37E0
3420
3DE0
75E0
45E0
0520
0460
0000
ENDCHAR
STARTCHAR uni5821
ENCODING 22561
SWIDTH 960 0
DWIDTH 12 0
BBX 12 13 0 -2
BITMAP
2000
2780
6780
6780
FFE0
6380
6DC0
1120
3F80
3F80
FFE0
0000
0000
ENDCHAR
STARTCHAR uni5824
ENCODING 22564
SWIDTH 960 0
DWIDTH 12 0
BBX 12 13 0 -2
BITMAP
0000
2780
2480
F780
2780
2000
3FE0
2100
39C0
CD00
1300
21E0
0000
ENDCHAR
STARTCHAR uni582A
ENCODING 22570
SWIDTH 960 0
DWIDTH 12 0
BBX 12 13 0 -2
BITMAP
0480
2FE0
2480
F780
2780
2480
3FE0
2B80
6EC0
8840
0FE0
0800
0000
ENDCHAR
STARTCHAR uni582F
ENCODING 22575
SWIDTH 960 0
DWIDTH 12 0
BBX 12 13 0 -2
BITMAP
0400
3F80
7FC0
7FC0
7BC0
2180
3FE0
E000
7FC0
1920
3120
C1E0
0000
ENDCHAR
STARTCHAR uni5830
ENCODING 22576
SWIDTH 960 0
DWIDTH 12 0
BBX 12 13 0 -2
BITMAP
0000
4FE0
4BC0
FA40
4BC0
4A40
4BC0
5900
6FE0
8B80
0B40
0FE0
0000
ENDCHAR
STARTCHAR uni5831
ENCODING 22577
SWIDTH 960 0
DWIDTH 12 0
BBX 12 13 0 -2
BITMAP
2000
7BC0
2240
FEC0
4A00
4BC0
5240
FF40
2280
7A80
2340
2220
0000
ENDCHAR
STARTCHAR uni5834
ENCODING 22580
SWIDTH 960 0
DWIDTH 12 0
BBX 12 13 0 -2
BITMAP
0000
2780
2480
F780
2780
2000
2FE0
3400
67C0
8AC0
1540
0380
0000
ENDCHAR
STARTCHAR uni5835
ENCODING 22581
SWIDTH 960 0
DWIDTH 12 0
BBX 12 13 0 -2
BITMAP
0100
2140
2FC0
F180
3FE0
2100
27C0
3C40
F7C0
0440
07C0
0440
0000
ENDCHAR
STARTCHAR uni583A
ENCODING 22586
SWIDTH 960 0
DWIDTH 12 0
BBX 12 13 0 -2
BITMAP
0000
2FC0
2940
FFC0
2FC0
2B40
2280
34C0
CCA0
1480
0880
1080
0000
ENDCHAR
STARTCHAR uni583D
ENCODING 22589
SWIDTH 960 0
DWIDTH 12 0
BBX 12 13 0 -2
BITMAP
0000
6FC0
6BC0
FFC0
6000
7FE0
6100
7100
F1C0
9100
1FE0
1000
0000
ENDCHAR
STARTCHAR uni5840
ENCODING 22592
SWIDTH 960 0
DWIDTH 12 0
BBX 12 13 0 -2
BITMAP
0000
2FE0
2820
FFE0
2A40
2FE0
2A80
3A80
DFE0
1280
1480
2880
0000
ENDCHAR
STARTCHAR uni5841
ENCODING 22593
SWIDTH 960 0
DWIDTH 12 0
BBX 12 13 0 -2
BITMAP
0000
7F80
4480
7F80
7F80
4040
2180
1480
E460
3F80
FFE0
0000
0000
ENDCHAR
STARTCHAR uni584A
ENCODING 22602
SWIDTH 960 0
DWIDTH 12 0
BBX 12 13 0 -2
BITMAP
0100
2200
2FC0
F940
2FC0
2FC0
2B40
3280
66C0
8BE0
1220
21E0
0000
ENDCHAR
STARTCHAR uni584B
ENCODING 22603
SWIDTH 960 0
DWIDTH 12 0
BBX 12 13 0 -2
BITMAP
2180
31C0
6BC0
E780
7180
4A40
7FE0
C440
BF80
0400
FFE0
0000
0000
ENDCHAR
STARTCHAR uni5851
ENCODING 22609
SWIDTH 960 0
DWIDTH 12 0
BBX 12 13 0 -2
BITMAP
2400
19E0
7F20
35E0
3DE0
3520
1220
2260
0F80
0200
7FE0
0000
0000
ENDCHAR
STARTCHAR uni5852
ENCODING 22610
SWIDTH 960 0
DWIDTH 12 0
BBX 12 13 0 -2
BITMAP
0180
6180
7FC0
F580
77E0
7C80
7480
77E0
FE80
9980
0080
0080
0000
ENDCHAR
STARTCHAR uni5854
ENCODING 22612
SWIDTH 960 0
DWIDTH 12 0
BBX 12 13 0 -2
BITMAP
0480
4480
5FE0
F480
4300
4480
5FE0
7000
CFC0
0840
0FC0
0840
0000
ENDCHAR
STARTCHAR uni5857
ENCODING 22615
SWIDTH 960 0
DWIDTH 12 0
BBX 12 13 0 -2
BITMAP
2100
1280
87C0
4920
3FE0
2580
5940
4700
3F80
0400
FFE0
0000
0000
ENDCHAR
STARTCHAR uni5858
ENCODING 22616
SWIDTH 960 0
DWIDTH 12 0
BBX 12 13 0 -2
BITMAP
0100
2FE0
2900
FFC0
2FE0
2940
2FC0
3800
6FC0
9440
17C0
2440
0000
ENDCHAR
STARTCHAR uni5859
ENCODING 22617
SWIDTH 960 0
DWIDTH 12 0
BBX 12 13 0 -2
BITMAP
0100
2100
3FE0
F780
2480
2780
2000
3FC0
F040
17C0
17C0
1040
0000
ENDCHAR
STARTCHAR uni585A
ENCODING 22618
SWIDTH 960 0
DWIDTH 12 0
BBX 12 13 0 -2
BITMAP
0000
2FE0
2800
FFC0
2720
3940
2380
2DC0
72A0
9C80
0080
0300
0000
ENDCHAR
STARTCHAR uni585E
ENCODING 22622
SWIDTH 960 0
DWIDTH 12 0
BBX 12 13 0 -2
BITMAP
0400
7FE0
5140
BFC0
3F80
1100
FFE0
1500
7FC0
8420
7FC0
0000
0000
ENDCHAR
STARTCHAR uni5862
ENCODING 22626
SWIDTH 960 0
DWIDTH 12 0
BBX 12 13 0 -2
BITMAP
0100
6200
6F80
F880
6F80
6800
6FC0
7800
EFE0
9FA0
15A0
20C0
0000
ENDCHAR
STARTCHAR uni5869
ENCODING 22633
SWIDTH 960 0
DWIDTH 12 0
BBX 12 13 0 -2
BITMAP
0400
2400
2FE0
F780
2480
2780
2000
3FC0
6AC0
8AC0
3FE0
0000
0000
ENDCHAR
STARTCHAR uni586B
ENCODING 22635
SWIDTH 960 0
DWIDTH 12 0
BBX 12 13 0 -2
BITMAP
0100
2100
3FE0
F780
2480
2780
2480
3780
6480
9FE0
0680
1840
0000
ENDCHAR
STARTCHAR uni5870
ENCODING 22640
SWIDTH 960 0
DWIDTH 12 0
BBX 12 13 0 -2
BITMAP
2400
27E0
9FC0
47C0
3FE0
29C0
4FE0
4480
3F80
3F80
FFE0
0000
0000
ENDCHAR
STARTCHAR uni5872
ENCODING 22642
SWIDTH 960 0
DWIDTH 12 0
BBX 12 13 0 -2
BITMAP
0400
6400
6FC0
F780
6780
6480
6780
7FE0
EFC0
9FC0
3540
0B80
0000
ENDCHAR
STARTCHAR uni5875
ENCODING 22645
SWIDTH 960 0
DWIDTH 12 0
BBX 12 13 0 -2
BITMAP
0200
7FE0
4900
7FC0
7FC0
5F60
5180
5F20
B3E0
9F80
0200
7FE0
0000
ENDCHAR
STARTCHAR uni5879
ENCODING 22649
SWIDTH 960 0
DWIDTH 12 0
BBX 12 13 0 -2
BITMAP
20C0
FF00
7BE0
7BE0
7A80
7A80
FC80
2880
3F80
3F80
FFE0
0000
0000
ENDCHAR
STARTCHAR uni587E
ENCODING 22654
SWIDTH 960 0
DWIDTH 12 0
BBX 12 13 0 -2
BITMAP
2100
F900
0780
7980
4B80
7980
19A0
F260
1420
3F80
0400
FFE0
0000
ENDCHAR
STARTCHAR uni5883
ENCODING 22659
SWIDTH 960 0
DWIDTH 12 0
BBX 12 13 0 -2
BITMAP
0100
2FC0
2480
FFE0
2000
2780
2480
3780
6480
8780
0D20
30E0
0000
ENDCHAR
STARTCHAR uni5885
ENCODING 22661
SWIDTH 960 0
DWIDTH 12 0
BBX 12 13 0 -2
BITMAP
0000
7BC0
7980
7FE0
79C0
2180
7980
3100
FF80
3F80
FFE0
0000
0000
ENDCHAR
STARTCHAR uni5893
ENCODING 22675
SWIDTH 960 0
DWIDTH 12 0
BBX 12 13 0 -2
BITMAP
1100
FFE0
1100
3F80
3F80
2080
3F80
FFE0
3580
DF60
0400
7FC0
0000
ENDCHAR
STARTCHAR uni5897
ENCODING 22679
SWIDTH 960 0
DWIDTH 12 0
BBX 12 13 0 -2
BITMAP
0240
1180
17E0
7FE0
14A0
17E0
1000
1BC0
3240
43C0
03C0
0240
0000
ENDCHAR
STARTCHAR uni589C
ENCODING 22684
SWIDTH 960 0
DWIDTH 12 0
BBX 12 13 0 -2
BITMAP
0480
7300
6FE0
7F40
53C0
5D80
63C0
4D20
7FC0
0400
FFE0
0000
0000
ENDCHAR
STARTCHAR uni589F
ENCODING 22687
SWIDTH 960 0
DWIDTH 12 0
BBX 12 13 0 -2
BITMAP
0200
63C0
6FE0
FFE0
7340
7DC0
7380
7BC0
FFC0
A7C0
3FE0
0000
0000
ENDCHAR
STARTCHAR uni58A8
ENCODING 22696
SWIDTH 960 0
DWIDTH 12 0
BBX 12 13 0 -2
BITMAP
0000
3F80
3F80
3F80
3F80
3F80
0400
FFE0
7FC0
1F00
FFE0
0000
0000
ENDCHAR
STARTCHAR uni58AB
ENCODING 22699
SWIDTH 960 0
DWIDTH 12 0
BBX 12 13 0 -2
BITMAP
0180
64C0
7FE0
FFC0
6BC0
6DC0
6FC0
7840
EFC0
9FE0
04C0
0280
0000
ENDCHAR
STARTCHAR uni58AE
ENCODING 22702
SWIDTH 960 0
DWIDTH 12 0
BBX 12 13 0 -2
BITMAP
0200
7FE0
57C0
6FC0
57C0
5440
67C0
47C0
7FC0
3F80
FFE0
0000
0000
ENDCHAR
STARTCHAR uni58B3
ENCODING 22707
SWIDTH 960 0
DWIDTH 12 0
BBX 12 13 0 -2
BITMAP
0100
2FC0
3FE0
F480
2FC0
2840
2FC0
3840
CFC0
0FC0
0680
1860
0000
ENDCHAR
STARTCHAR uni58B8
ENCODING 22712
SWIDTH 960 0
DWIDTH 12 0
BBX 12 13 0 -2
BITMAP
0480
7FE0
6540
F7C0
63C0
7FE0
6180
77C0
FFC0
87C0
07C0
0440
0000
ENDCHAR
STARTCHAR uni58B9
ENCODING 22713
SWIDTH 960 0
DWIDTH 12 0
BBX 12 13 0 -2
BITMAP
0000
3EE0
3EE0
7EE0
7EE0
3020
37E0
34E0
77E0
57E0
1420
1060
0000
ENDCHAR
STARTCHAR uni58BA
ENCODING 22714
SWIDTH 960 0
DWIDTH 12 0
BBX 12 13 0 -2
BITMAP
0100
6200
6FC0
FFC0
6BC0
6FC0
6BC0
7DC0
FFE0
9FE0
0C80
3060
0000
ENDCHAR
STARTCHAR uni58BB
ENCODING 22715
SWIDTH 960 0
DWIDTH 12 0
BBX 12 13 0 -2
BITMAP
0100
6300
7FE0
F7C0
6BA0
7FE0
6000
7FC0
EBC0
8BC0
0FC0
0840
0000
ENDCHAR
STARTCHAR uni58BE
ENCODING 22718
SWIDTH 960 0
DWIDTH 12 0
BBX 12 13 0 -2
BITMAP
33C0
D3C0
7A40
F3C0
DB40
2A80
CB40
1620
6400
3F80
0400
FFE0
0000
ENDCHAR
STARTCHAR uni58C1
ENCODING 22721
SWIDTH 960 0
DWIDTH 12 0
BBX 12 13 0 -2
BITMAP
0080
7880
4FE0
7A40
47E0
7880
BFE0
0480
3F80
0400
FFE0
0000
0000
ENDCHAR
STARTCHAR uni58C5
ENCODING 22725
SWIDTH 960 0
DWIDTH 12 0
BBX 12 13 0 -2
BITMAP
0400
FFE0
63E0
D7E0
7BC0
73C0
F280
27E0
7F80
3F80
FFE0
0000
0000
ENDCHAR
STARTCHAR uni58C7
ENCODING 22727
SWIDTH 960 0
DWIDTH 12 0
BBX 12 13 0 -2
BITMAP
0100
3FE0
2FC0
FBC0
2BC0
2FC0
2780
3480
6780
8780
0000
3FE0
0000
ENDCHAR
STARTCHAR uni58CA
ENCODING 22730
SWIDTH 960 0
DWIDTH 12 0
BBX 12 13 0 -2
BITMAP
0100
3FE0
2100
FFC0
2AC0
2FC0
2100
7FE0
8740
1D80
0780
1860
0000
ENDCHAR
STARTCHAR uni58CC
ENCODING 22732
SWIDTH 960 0
DWIDTH 12 0
BBX 12 13 0 -2
BITMAP
0100
3FE0
2480
FFE0
2280
2FC0
2280
3FE0
67C0
9D80
0640
1820
0000
ENDCHAR
STARTCHAR uni58D1
ENCODING 22737
SWIDTH 960 0
DWIDTH 12 0
BBX 12 13 0 -2
BITMAP
2000
3BC0
7E40
F980
F180
7980
EE40
3820
3F80
3F80
FFE0
0000
0000
ENDCHAR
STARTCHAR uni58D3
ENCODING 22739
SWIDTH 960 0
DWIDTH 12 0
BBX 12 13 0 -2
BITMAP
0000
7FE0
7EE0
7FE0
7EC0
6280
7F40
FF40
BFA0
3F80
FFE0
0000
0000
ENDCHAR
STARTCHAR uni58D5
ENCODING 22741
SWIDTH 960 0
DWIDTH 12 0
BBX 12 13 0 -2
BITMAP
0100
5FE0
4780
F780
5FE0
5020
5FE0
7320
5F80
87C0
1DA0
0300
0000
ENDCHAR
STARTCHAR uni58D7
ENCODING 22743
SWIDTH 960 0
DWIDTH 12 0
BBX 12 13 0 -2
BITMAP
0100
6FC0
6FE0
FFE0
6FC0
6100
7FE0
7AC0
FFE0
8FC0
3FE0
0000
0000
ENDCHAR
ENDFONT
